<?xml version="1.0" standalone="no"?>
<!DOCTYPE svg PUBLIC "-//W3C//DTD SVG 1.1//EN" "http://www.w3.org/Graphics/SVG/1.1/DTD/svg11.dtd" >
<svg xmlns="http://www.w3.org/2000/svg">
<metadata></metadata>
<defs>
<font id="bamtangvicunaferozgordidemiBd" horiz-adv-x="1280" >
<font-face units-per-em="2048" ascent="1536" descent="-512" />
<missing-glyph horiz-adv-x="714" />
<glyph horiz-adv-x="2048" />
<glyph horiz-adv-x="2048" />
<glyph unicode="&#xd;" horiz-adv-x="714" />
<glyph unicode=" "  horiz-adv-x="714" />
<glyph unicode="&#x09;" horiz-adv-x="714" />
<glyph unicode="&#xa0;" horiz-adv-x="714" />
<glyph unicode="!" horiz-adv-x="661" d="M72 238q0 49 19.5 92t51 75.5t72.5 53t84 24.5q-41 90 -68.5 182.5t-46 190.5t-30 203.5t-19.5 222.5h428q-12 -106 -24.5 -209.5t-32 -204t-49 -197t-74.5 -188.5q80 -29 136 -94t56 -151q0 -49 -19 -92.5t-54 -76t-81 -51t-97 -18.5q-53 0 -98.5 18.5t-80 51t-54 75.5 t-19.5 93z" />
<glyph unicode="&#x22;" horiz-adv-x="669" d="M86 1434h166v-496h-98zM420 938v496h166l-68 -496h-98z" />
<glyph unicode="#" horiz-adv-x="1472" d="M43 391v144h313l66 327h-275v144h304l88 426h178l-88 -426h329l89 426h178l-88 -426h295v-144h-324l-66 -327h256v-144h-284l-80 -391h-178l80 391h-330l-80 -391h-178l80 391h-285zM535 535h329l66 327h-330z" />
<glyph unicode="$" horiz-adv-x="1224" d="M51 121q0 -2 1 24.5t1 66.5t1 88t1 91t-1 75t-3 38v2v-2q4 -4 37 -20.5t79 -36t95 -39t86 -27.5q37 -10 80 -27.5t83 -27t73.5 -1t52.5 49.5q16 37 10 59.5t-34.5 47t-82 55t-133.5 84.5q-160 104 -240.5 208.5t-86.5 233.5q-4 61 26.5 129t92 124t152.5 95t212 45v172 h221v-201q76 -25 145.5 -58.5t122 -64t82 -52t27.5 -21.5t-2 -26.5v-66.5v-88.5t1 -88t1 -68.5v-29q0 -2 -20.5 21.5t-55.5 55.5t-79 62.5t-91 45.5q-27 8 -77 26.5t-102 28.5t-97 3t-60 -50q-12 -39 12.5 -77t67.5 -72t92.5 -60.5t83.5 -44.5q35 -18 92.5 -43t112.5 -68 t96 -110.5t41 -171.5q0 -96 -31.5 -164t-86 -114t-126 -72.5t-149.5 -41.5v-333h-221v315q-102 0 -193.5 19.5t-160 42t-108.5 42t-40 17.5z" />
<glyph unicode="%" horiz-adv-x="929" d="M-14 1135q0 61 21.5 116.5t58 95t86 63.5t104.5 24t103.5 -24t84 -63.5t57 -95t21.5 -116.5t-21.5 -115.5t-57 -94.5t-84 -63.5t-103.5 -23.5t-104.5 23.5t-86 63.5t-58 94.5t-21.5 115.5zM74 2l694 1432h211l-694 -1432h-211zM133 1145q0 -66 35 -113t84 -47t84 47 t35 113t-35 113t-84 47t-84 -47t-35 -113zM563 297q0 61 21.5 116.5t58.5 95.5t86 63.5t105 23.5q55 0 103 -23.5t84 -63.5t57.5 -95.5t21.5 -116.5t-21.5 -115.5t-57.5 -94.5t-84 -63.5t-103 -23.5t-104.5 23.5t-86.5 63.5t-58.5 94.5t-21.5 115.5zM711 307 q0 -66 34.5 -113t83.5 -47t84 47.5t35 112.5q0 66 -34.5 113t-84.5 47q-49 0 -83.5 -47t-34.5 -113z" />
<glyph unicode="&#x26;" horiz-adv-x="1617" d="M164 327.5q-6 92.5 30.5 174.5t97 143.5t114.5 89.5q-41 41 -70 79t-37 75q-10 37 -23.5 92t-9.5 116.5t40 124t126 111.5q115 63 219.5 84t193.5 8.5t161.5 -50.5t122 -89t73 -112.5t17.5 -118.5q-14 -117 -74 -181.5t-156 -119.5l-14 -9l147 -131l111 136h354 l-272 -308l241 -215q-2 0 -17 -17t-38.5 -44t-51.5 -56.5t-51.5 -55t-41 -43t-19.5 -17.5l-247 211l-67 -67t-42 -40q-12 -10 -53 -29.5t-100.5 -38t-131 -28.5t-148.5 -2t-154 42t-142 105q-82 88 -88 180.5zM520 363.5q6 -37.5 30.5 -62.5t64.5 -34t83 1q53 10 90 38 t62 65l-201 178l-110 -103q-25 -45 -19 -82.5zM616 1056.5q-2 -32.5 9.5 -56t25 -35t6.5 -7.5l78 -26q27 10 42.5 16t33.5 27q29 31 39 51.5t12 34.5q5 32 -28 65q-10 10 -33 19.5t-49.5 12.5t-53 -2t-45.5 -26q-35 -41 -37 -73.5z" />
<glyph unicode="'" horiz-adv-x="350" d="M82 1434h203l-58 -545h-110z" />
<glyph unicode="(" horiz-adv-x="704" d="M149.5 535.5q-8.5 220.5 54 443.5t214.5 453h221q-154 -236 -222.5 -462.5t-62.5 -446.5t80 -432t205 -419h-221q-117 213 -188.5 428t-80 435.5z" />
<glyph unicode=")" horiz-adv-x="704" d="M66 -328q131 207 204.5 419t79.5 432t-62.5 446.5t-221.5 462.5h221q152 -229 214 -452.5t54 -444t-80 -435.5t-188 -428h-221z" />
<glyph unicode="*" horiz-adv-x="706" d="M47 758l246 188l-246 199l121 88l129 -152v222h121v-213l123 143l121 -88l-244 -197v-6l244 -184l-121 -99l-123 142v-228h-121v234l-129 -148z" />
<glyph unicode="+" horiz-adv-x="827" d="M25 573l2 179l297 -2v274h178v-276h303l-2 -179h-301v-323h-178v325z" />
<glyph unicode="," horiz-adv-x="456" d="M72 -100q-2 0 16 4t72 26q31 12 41 32t12 38q-59 6 -97 47t-38 96q0 59 44 101.5t109 42.5q66 0 111 -42t47 -102q6 -47 -2 -94q-6 -41 -25.5 -89t-60.5 -89q-23 -23 -52.5 -40t-55 -28.5t-43 -16.5t-17.5 -3t-9 20.5t-20.5 40t-21.5 38.5z" />
<glyph unicode="-" horiz-adv-x="1062" d="M106 559v166h859v-166h-859z" />
<glyph unicode="." horiz-adv-x="460" d="M76 143q0 59 44 101.5t109 42.5q66 0 111 -42t45 -102q0 -59 -45 -101t-111 -42t-109.5 42t-43.5 101z" />
<glyph unicode="/" horiz-adv-x="929" d="M12 0l695 1432h211l-695 -1432h-211z" />
<glyph unicode="0" horiz-adv-x="1589" d="M74 715q0 152 56 286t154.5 233t229.5 157.5t281 58.5t280.5 -58.5t229 -157.5t155 -233.5t56.5 -285.5q0 -152 -56.5 -286t-155 -234.5t-229.5 -157.5t-280 -57q-150 0 -281 57t-229.5 157.5t-154.5 234.5t-56 286zM532 692q0 -86 17.5 -159.5t51.5 -128t84 -85 t114 -30.5q63 0 112.5 29.5t82 84t49 127t16.5 158.5t-16.5 164t-49 138.5t-82 95t-112.5 34.5t-113.5 -34.5t-84.5 -93t-51.5 -136.5t-17.5 -164z" />
<glyph unicode="1" horiz-adv-x="735" d="M-6 1102l405 330v2h224v-1434h-514v862h-113z" />
<glyph unicode="2" horiz-adv-x="1196" d="M86 1245q2 2 39 34t102.5 67.5t159.5 61.5t213 17q238 -18 345.5 -126.5t113.5 -288.5q2 -47 -4 -104.5t-21.5 -118t-43 -122t-68.5 -116.5q-84 -113 -139.5 -158t-49.5 -45q4 0 63.5 -1t131.5 -1q82 -2 188 -2v-346h-1014q4 0 7.5 39t4.5 86t1 88v47t26.5 17.5t67.5 30 t90 44t96 60.5q53 39 105.5 107.5t88.5 147t46 156.5t-21 133q-47 86 -122.5 105.5t-153.5 -19.5q-33 -16 -54.5 -37.5t-34.5 -40t-16.5 -32t0.5 -13.5q2 0 -8 25t-26.5 60.5t-37 77.5t-38 79t-28.5 61.5t-9 26.5z" />
<glyph unicode="3" horiz-adv-x="1120" d="M96 161v97t1 99t1 51q0 4 26 -10.5t64.5 -34t84.5 -37t89 -17.5t84 3t75 17.5t54.5 44t20.5 83.5q0 43 -23.5 68.5t-57.5 39t-73 18.5t-67 7l-64 -4q-2 0 -2 23.5v57v73.5t1 75t1 58.5v25.5l105 -12q27 6 58.5 9t59 14.5t45 34t17.5 69.5q0 45 -23.5 72.5t-60.5 43 t-80 19.5t-82 4t-82 -11.5t-80.5 -25.5t-62.5 -25.5t-27 -11.5t1 41t6.5 90.5t2 90t-9.5 38.5q-6 0 13.5 6.5t57.5 18.5t88 24.5t105.5 24.5t110.5 18.5t102 6.5q70 -2 143 -6.5t132 -32t100 -89t49 -177.5q8 -117 -21.5 -192t-68.5 -119t-72.5 -61.5t-33.5 -15.5t38 -18 t83 -65.5t77.5 -118t24.5 -176.5q-10 -104 -64.5 -170t-129 -106t-159.5 -60.5t-155 -30.5t-143.5 5t-135 40t-100.5 46.5t-41 23.5t-2 46z" />
<glyph unicode="4" horiz-adv-x="1423" d="M33 276l4 222l643 934l475 2v-936h201l4 -222h-205v-276h-514v279zM375 498h266v526z" />
<glyph unicode="5" horiz-adv-x="1193" d="M72 138.5q0 25.5 1 57t1 66.5q2 80 6 182q41 -27 84 -47q37 -16 80 -30.5t84 -12.5q70 2 130 14.5t105 32t70.5 49t23.5 68.5q-4 78 -91 107.5t-230 33.5q-55 2 -90 -1t-55.5 -6t-29.5 -6t-11 -3t11 57.5t34.5 144.5t47 188.5t47 188.5t35 144t11.5 59q-2 0 53 1t139 1 h183.5t184.5 -1t141.5 -2t56.5 -3v-53t2 -108q0 -68 2 -156q-123 0 -221 -2q-41 0 -81 -1t-71 -2t-49 -2l-19 -1v-244q2 2 11 4q8 2 23.5 3t43.5 1q70 0 137.5 -20.5t118.5 -68.5t82 -127t29 -195q-4 -233 -161 -341t-454 -104q-98 0 -172.5 12.5t-127 26.5t-81 26.5 t-30.5 12.5t-3 15.5t-1 41z" />
<glyph unicode="6" horiz-adv-x="1333" d="M61 539q0 76 7.5 131t22.5 100t38 86t53 88q25 41 73 88t108.5 96.5t128 96.5t131 88t116 71.5t82.5 47.5q2 0 24.5 -15.5t56.5 -40t74 -53.5t74.5 -54.5t61.5 -44t33 -20.5l-498 -264q55 6 121 4t131.5 -15.5t128 -42t111.5 -74.5t79.5 -112.5t34.5 -158.5 q10 -256 -148.5 -397.5t-457.5 -141.5q-301 0 -443.5 140.5t-142.5 396.5zM422 514q8 -92 63.5 -156.5t153.5 -64.5q49 0 96 17.5t83 47t57.5 69.5t17.5 87q-4 45 -26.5 85t-57.5 69.5t-79 47t-91 17.5q-49 0 -91 -17.5t-70.5 -47t-44 -69.5t-11.5 -85z" />
<glyph unicode="7" horiz-adv-x="1380" d="M90 -4l2 2zM92 -2l711 1094h-651v340h1187v-336l-704 -1096zM803 1092l2 2z" />
<glyph unicode="8" horiz-adv-x="1275" d="M84 1022q0 84 41 158.5t113.5 130t170 88.5t209.5 33q113 0 212.5 -33t175 -88.5t119.5 -130t44 -158.5q0 -90 -46 -166t-126 -133q92 -57 146.5 -138t54.5 -175q0 -84 -47 -159t-127 -130t-185.5 -88t-220.5 -33t-212 33t-167.5 88t-110.5 130t-40 159q0 92 48 169.5 t134 133.5q-86 57 -136 137t-50 172zM408 457q0 -66 60 -111t150 -45t153 45t63 111q0 33 -16.5 61.5t-46.5 50t-68.5 33.5t-84.5 12q-90 0 -150 -45.5t-60 -111.5zM408 958q0 -29 18 -54t48 -43.5t68 -30t76 -11.5q39 0 77 11.5t69 30t50.5 44t19.5 53.5q0 29 -19.5 54.5 t-50.5 45t-69 31t-77 11.5t-76.5 -11.5t-67.5 -31t-48 -45t-18 -54.5z" />
<glyph unicode="9" horiz-adv-x="1331" d="M80 891q-10 256 148.5 397.5t457.5 141.5q301 0 443.5 -140.5t142.5 -396.5q0 -76 -7.5 -131t-22.5 -100.5t-37.5 -86t-53.5 -88.5q-25 -41 -73 -88t-108.5 -96t-128 -96t-131 -88t-115.5 -72t-83 -47q-2 0 -24.5 15.5t-56.5 40t-74 53t-74.5 54t-61 44t-33.5 20.5 l498 265q-84 -10 -186.5 0t-193.5 53t-155.5 126t-70.5 220zM440 918q4 -45 26.5 -85t57.5 -70t79 -47.5t91 -17.5q49 0 91 17.5t71 47.5t44 70t11 85q-8 92 -63 156.5t-154 64.5q-49 0 -96 -17.5t-83 -47.5t-57.5 -70.5t-17.5 -85.5z" />
<glyph unicode=":" horiz-adv-x="477" d="M84 811q0 59 44 101t110 42t110.5 -42t44.5 -101t-45 -101t-110 -42q-66 0 -110 42t-44 101zM86 143q0 59 44 101.5t110 42.5t110.5 -42t44.5 -102q0 -59 -45 -101t-110 -42q-66 0 -110 42t-44 101z" />
<glyph unicode=";" horiz-adv-x="462" d="M76 -100q-2 0 16.5 4t71.5 26q31 12 41 32t12 38q-59 6 -97 47t-38 96q0 59 44 101.5t110 42.5t110.5 -42t46.5 -102q6 -47 -2 -94q-6 -41 -25.5 -89t-60.5 -89q-23 -23 -52.5 -40t-55 -28.5t-43 -16.5t-17.5 -3t-9 20.5t-20.5 40t-21.5 38.5zM80 811q0 59 44 101t109 42 q66 0 111 -42t45 -101t-45 -101t-111 -42t-109.5 42t-43.5 101z" />
<glyph unicode="&#x3c;" horiz-adv-x="815" d="M14 684l596 498l121 -168l-493 -398l493 -376l-121 -154l-594 451z" />
<glyph unicode="=" horiz-adv-x="1071" d="M109 453v165h913v-165h-913zM109 819v166h913v-166h-913z" />
<glyph unicode="&#x3e;" horiz-adv-x="815" d="M84 240l494 376l-494 398l121 168l596 -498l-2 -147l-594 -451z" />
<glyph unicode="?" horiz-adv-x="995" d="M47 975q4 94 41 178t96.5 145.5t138 97.5t169.5 36q92 0 172.5 -38t142 -103.5t96.5 -153.5t35 -189q0 -92 -39 -158.5t-97.5 -120t-129 -99.5t-131.5 -101q86 -16 142 -80.5t56 -150.5q0 -49 -19.5 -92.5t-54 -76t-80.5 -51t-98 -18.5q-53 0 -98 18.5t-80 51t-54 76 t-19 92.5t19 91t53 74.5t79 52t96 19.5l-168 139q37 2 95.5 39t114 87.5t95 103.5t39.5 90q0 39 -15 72.5t-40.5 59.5t-60.5 40t-74 14q-68 0 -120 -42t-66 -103h-236z" />
<glyph unicode="@" horiz-adv-x="1673" d="M72 623q0 168 64.5 315t176 257t262 173.5t320.5 63.5t304 -48.5t226.5 -144.5t141.5 -241.5t49 -340.5q0 -102 -44 -171.5t-109.5 -109.5t-139.5 -50.5t-133 4.5l-86 35h-80q-37 -35 -88 -54.5t-102 -19.5q-90 0 -155 25.5t-107 71.5t-62.5 109.5t-20.5 139.5 t20.5 143.5t62.5 118.5t106.5 81t155.5 30q100 0 190 -39v39h182v-473q27 -8 59.5 -7.5t63.5 15t53.5 43t28.5 74.5q18 137 -12.5 241.5t-101 175t-176 106.5t-234.5 36t-243 -47.5t-199 -127t-133 -188t-48 -231.5t48 -231.5t133 -188.5t199 -127t243 -47q92 0 178 24v-223 q-84 -18 -170 -18q-170 0 -320.5 63.5t-262 173t-176 256t-64.5 314.5zM707 655q0 -70 47 -116.5t116 -46.5q35 0 82 13t72 38v227q-25 23 -72 36t-82 13q-70 0 -116.5 -48t-46.5 -116z" />
<glyph unicode="A" horiz-adv-x="1871" d="M53 0l619 1434h528l619 -1434h-539l-102 256h-484l-102 -256h-539zM784 455h303l-151 569z" />
<glyph unicode="B" horiz-adv-x="1568" d="M109 0v1434l1017 -2q72 -4 119 -37t74 -89t34 -128q3 -34 3 -69q0 -41 -4 -85q-10 -86 -52.5 -152.5t-134.5 -95.5q311 -61 324 -352q-4 -133 -33 -218t-76 -133q-46 -47 -110 -63q-46 -11 -97 -12q-20 0 -40 2h-1024zM623 256h356q147 29 154 168q-4 90 -46.5 132 t-107.5 58h-356v-358zM623 862h305q25 14 47 20.5t40.5 19.5t30 40t11.5 82q2 15 2 28q0 52 -31 83q-39 39 -117 51h-288v-324z" />
<glyph unicode="C" horiz-adv-x="1554" d="M70 717q0 147 64.5 278t177 228.5t264 154t323.5 56.5q170 0 318.5 -55.5t261.5 -151.5l-277 -365q-33 98 -114.5 130t-186.5 32q-66 0 -123 -23.5t-100 -64.5t-68.5 -96.5t-25.5 -116.5t25.5 -116.5t68.5 -96.5t100.5 -64.5t122.5 -23.5q94 0 171 49t122 141l270 -415 q-113 -94 -256 -145.5t-309 -51.5q-172 0 -323.5 56.5t-264 153.5t-177 228t-64.5 279z" />
<glyph unicode="D" horiz-adv-x="1640" d="M98 0v1434h547q8 0 50 1h22q35 0 83 -2q64 -3 144 -15.5t163 -40t162 -74t141.5 -120t103 -176t45.5 -241.5q1 -22 1 -44q0 -182 -60 -306q-68 -140 -186 -225t-270 -125q-153 -40 -318 -56q-146 -14 -292 -14h-37q-164 2 -299 4zM612 375h21q34 0 88 4q72 6 144.5 40 t127 105.5t58.5 198.5v12q0 93 -28 153q-30 64 -76 102t-101 54q-54 15 -102 19q-38 3 -56 3h-8l-49 -5q-2 0 -19 -4v-682z" />
<glyph unicode="E" horiz-adv-x="1198" d="M109 0v1434l1019 -2v-246h-505v-324h467v-248h-467v-358h512v-256h-1026z" />
<glyph unicode="F" horiz-adv-x="1171" d="M109 0v1434h514v-2h505v-246h-505v-324h471v-248h-471v-614h-514z" />
<glyph unicode="G" horiz-adv-x="1732" d="M74 717q0 147 61.5 278t168 228.5t249.5 154t307 56.5q102 0 218 -24t224.5 -65.5t198.5 -101t144 -131.5l-549 -188q-6 37 -29 57t-55.5 29.5t-71.5 11.5t-78 2q-61 0 -116.5 -23.5t-96.5 -64.5t-64.5 -96.5t-23.5 -116.5t23.5 -122.5t63.5 -111t94.5 -79t115.5 -29.5 q49 0 98.5 7t90 26.5t69.5 52.5t37 86h-276v168h768l-5 -721h-419v80q-82 -39 -172.5 -59.5t-188.5 -20.5q-164 0 -307 56.5t-249.5 153.5t-168 228t-61.5 279z" />
<glyph unicode="H" horiz-adv-x="1748" d="M109 0v1434h514v-572h501v572h514v-1434h-514v614h-501v-614h-514z" />
<glyph unicode="I" horiz-adv-x="735" d="M109 0v1434h514v-1434h-514z" />
<glyph unicode="J" horiz-adv-x="983" d="M55 17q0 1 2 1v-2q-2 0 -2 1zM57 16l105 -6q150 0 153 125v1299h514v-1434q-2 -92 -25.5 -158.5t-57 -113.5t-74.5 -77t-81 -47.5t-74 -24.5t-54 -7h-348q-2 0 -5.5 31.5t-9.5 79t-12 103.5t-12 105.5t-11.5 84t-7.5 40.5z" />
<glyph unicode="K" horiz-adv-x="1769" d="M109 0v1434h514v-627l514 625h489l-536 -689l598 -743h-613l-452 639v-639h-514z" />
<glyph unicode="L" horiz-adv-x="1155" d="M109 0v1434h514v-1178h495v-256h-1009z" />
<glyph unicode="M" horiz-adv-x="1918" d="M109 0v1434l514 -2l333 -490l340 496l514 -4v-1434h-514v795l-340 -650l-333 654v-799h-514z" />
<glyph unicode="N" horiz-adv-x="1789" d="M109 0v1434l487 -2l569 -818v820h514v-1434h-462l-594 862v-862h-514z" />
<glyph unicode="O" horiz-adv-x="1628" d="M74 717q0 147 58 278t157.5 228.5t234.5 154t289 56.5t289 -56.5t235.5 -154t158.5 -228.5t58 -278t-58 -278.5t-158.5 -228.5t-235.5 -153.5t-289 -56.5t-289 56.5t-234.5 153.5t-157.5 228.5t-58 278.5zM532 723q0 -61 23 -116.5t60.5 -96.5t89 -64.5t110.5 -23.5 q57 0 109.5 23.5t90.5 64.5t60.5 96.5t22.5 116.5t-22.5 116.5t-60.5 96.5t-90.5 64.5t-109.5 23.5q-59 0 -110.5 -23.5t-89 -64.5t-60.5 -96.5t-23 -116.5z" />
<glyph unicode="P" horiz-adv-x="1523" d="M109 0v1434h514v-2h507q84 -25 142.5 -87.5t89.5 -143.5t34 -173v-17q0 -83 -26 -158q-29 -83 -88 -147.5t-152 -91.5h-507v-614h-514zM623 862h284q67 12 97 60q29 45 28 95v7q-2 55 -33.5 102.5t-91.5 59.5h-284v-324z" />
<glyph unicode="Q" horiz-adv-x="1742" d="M57 717q0 147 58.5 278t158 228.5t234.5 154t289 56.5t289 -56.5t235 -154t158.5 -228.5t58.5 -278q0 -160 -65.5 -296t-178.5 -235l389 -161q-6 -2 -34.5 -22.5t-68.5 -50.5t-84 -62.5t-81 -60.5t-61.5 -47.5t-22.5 -21.5l-35 12q-34 13 -91.5 34.5t-131.5 49 t-148.5 56.5t-145 54.5t-124.5 45.5q-129 25 -238.5 88.5t-189.5 156.5t-125 211t-45 249zM516 723q0 -61 22.5 -116.5t60.5 -96.5t89 -64.5t111 -23.5q57 0 109.5 23.5t90 64.5t60 96.5t22.5 116.5t-22.5 116.5t-60 96.5t-90 64.5t-109.5 23.5q-59 0 -110.5 -23.5 t-89.5 -64.5t-60.5 -96.5t-22.5 -116.5z" />
<glyph unicode="R" horiz-adv-x="1648" d="M109 0v1434l1069 -2q66 -16 111.5 -50t76.5 -85.5t47.5 -116t22.5 -138.5q1 -24 1 -47q1 -70 -13 -129q-18 -78 -55.5 -133t-89.5 -88t-110 -39l406 -606h-528l-377 612l-47 2v-614h-514zM623 862l161 -2h34q58 0 100 5q54 7 86 24.5t47.5 45.5t17.5 66q0 63 -20.5 101.5 t-58.5 57t-90 22.5q-35 3 -75 3q-20 0 -41 -1h-161v-322z" />
<glyph unicode="S" horiz-adv-x="1292" d="M92 121l1 27q1 28 2 71t1 93v93.5t-1 72t-3 28.5q-4 0 28 -15.5t79 -37t100 -42t90 -30.5t80 -27.5t83 -27.5q21 -5 40 -4q18 0 34 4q34 8 52 49q16 37 10 59.5t-34.5 47t-82 55t-133.5 84.5q-160 104 -240.5 208.5t-86.5 233.5v14q1 56 29 116q32 67 96.5 120t161 88 t223.5 37h12q95 0 193 -31q104 -33 186 -72t132 -71.5t48 -32.5t-2 -26.5v-66.5v-88.5t1 -88t1 -68.5v-29q0 -2 -20.5 21.5t-55.5 55.5t-79 62.5t-91 45.5q-27 8 -77 26.5t-102 28.5q-31 6 -59 6q-20 0 -38 -3q-45 -7 -60 -50q-4 -13 -4 -26q0 -26 16 -51q24 -38 67.5 -72 t92.5 -60.5t84 -44.5t92.5 -43t112.5 -68t96 -110.5t41 -171.5q0 -127 -55 -206t-143 -124t-196.5 -61.5t-211.5 -18.5h-19q-93 0 -177 18q-94 20 -163 43t-110 42.5t-41 17.5z" />
<glyph unicode="T" horiz-adv-x="1427" d="M59 1024v408h1309v-408h-403v-1024h-514v1024h-392z" />
<glyph unicode="U" horiz-adv-x="1613" d="M88 727l4 709h483l-6 -703q0 -127 55.5 -209t166.5 -82t180 82t69 209l2 703h484v-701q0 -150 -58.5 -281.5t-159 -231t-231.5 -157t-274 -57.5q-145 0 -274.5 56.5t-227.5 153.5t-155.5 228.5t-57.5 280.5z" />
<glyph unicode="V" horiz-adv-x="1777" d="M53 1434h529l307 -705l307 705h528l-567 -1434h-539z" />
<glyph unicode="W" horiz-adv-x="2660" d="M74 1434h528l209 -627l211 627h616l209 -627l211 627h529l-469 -1428l2 -6h-543l2 6l-250 758l-248 -758l2 -6h-542l2 6z" />
<glyph unicode="X" horiz-adv-x="1875" d="M88 0l1172 1434h528l-1161 -1434h-539zM88 1434h528l1172 -1434h-539z" />
<glyph unicode="Y" horiz-adv-x="1841" d="M43 1432h524l355 -465l352 465h524l-624 -818v-614h-515v614z" />
<glyph unicode="Z" horiz-adv-x="1609" d="M88 -2l709 1188h-623v246h1354l-694 -1176h577v-256h-784v-2h-539z" />
<glyph unicode="[" horiz-adv-x="681" d="M106 -266v1698h527v-154h-268v-1393h268v-151h-527z" />
<glyph unicode="\" horiz-adv-x="929" d="M12 1432h211l695 -1432h-211z" />
<glyph unicode="]" horiz-adv-x="684" d="M47 -115h268v1393h-268v154h526v-1698h-526v151z" />
<glyph unicode="^" horiz-adv-x="1705" d="M141 807l477 555l201 2l391 -569l-135 -95l-368 482l-439 -477z" />
<glyph unicode="_" horiz-adv-x="1361" d="M106 -270h1147v-166h-1147v166z" />
<glyph unicode="`" horiz-adv-x="483" d="M35 1292l141 144l285 -349h-180z" />
<glyph unicode="a" horiz-adv-x="1185" d="M72 233q0 37 4 61.5t13 44t26.5 37t46.5 36.5q39 27 112.5 63.5t202.5 65.5q68 14 109 32.5t62.5 39t27.5 39t6 34.5q0 25 -12 37q-10 12 -38 16q-12 2 -29 2q-20 0 -47 -3q-48 -5 -124 -13q-39 -4 -95 -23.5t-109.5 -42t-91.5 -41t-38 -20.5t0 37t1 87t1 88t-2 40 t26 23.5t81 53t128 57.5t165 34q70 6 166 9h27q82 1 159 -15q90 -18 156.5 -67.5t74.5 -149.5q5 -67 5 -132q0 -33 -1 -65q-4 -96 -12 -171t-15 -122t-3 -47q18 -4 28.5 -4t13.5 1t2 2t-1 -1t1 -42t2 -88t1 -87t-2 -39q-12 0 -55.5 -1t-96.5 -1t-106.5 4t-87.5 14 q-16 6 -26.5 18.5t-16.5 25t-7.5 21.5t-1.5 7t-22.5 -17.5t-68.5 -32.5q-47 -18 -117 -30q-53 -9 -117 -9q-22 0 -45 1q-66 2 -114 23.5t-81 54.5t-49 74t-16 81zM406 236q12 -50 36 -58q14 -5 33 -4q13 0 27 2q16 2 48 14.5t63.5 26.5t58 28.5t33.5 22.5v158l-30 -7 q-30 -7 -68 -16.5t-74.5 -19.5t-49.5 -16q-51 -23 -63 -52.5t-14 -78.5z" />
<glyph unicode="b" horiz-adv-x="1261" d="M106 0v1432h441v-435q45 9 113 17q55 7 99 6h21q80 -4 159 -38t141.5 -95.5t99.5 -153.5q34 -85 34 -195v-18q-4 -147 -55 -247.5t-123 -162.5q-73 -60 -152 -86q-68 -22 -122 -23q-8 0 -17 1q-82 0 -122.5 17.5t-75.5 50.5v-70h-441zM547 324q74 -15 123 -16q10 0 18 2 q53 4 83 29.5t39 71t9 111.5q1 131 -71 169q-34 18 -83 18q-51 0 -118 -21v-364z" />
<glyph unicode="c" horiz-adv-x="1118" d="M47 481q0 109 39 207t111.5 173t175 119t231.5 44q119 0 224.5 -36t187.5 -97l-88 -211q-16 16 -51 29.5t-75 22.5t-80 14.5t-65 5.5q-49 0 -92 -18.5t-74.5 -50.5t-50 -74t-18.5 -91t18.5 -91t50 -72.5t74.5 -49t92 -18.5q27 0 66 5t79 15t74.5 23.5t51.5 31.5l116 -227 q-86 -72 -198.5 -103.5t-241.5 -31.5t-231.5 35t-175 97.5t-111.5 151.5t-39 197z" />
<glyph unicode="d" horiz-adv-x="1263" d="M47 520v23q0 107 34 190q38 92 100.5 153.5t141 95.5t158.5 38h22q45 0 98 -6q67 -8 114 -17v435h440v-1432h-440v70q-35 -33 -76 -50.5t-123 -17.5q-94 0 -178 35t-147.5 101.5t-102.5 162.5t-41 219zM442 522q0 -66 9.5 -111.5t39 -71.5t83.5 -30q9 -1 19 -1 q49 0 122 16v364q-67 21 -119 21q-48 0 -82 -18q-72 -38 -72 -169z" />
<glyph unicode="e" horiz-adv-x="1261" d="M74 518q0 109 31.5 201t104.5 159.5t189.5 106.5t288.5 39q113 0 203 -41t152.5 -111.5t95 -166t32.5 -203.5v-21v-41l-688 2q14 -92 71.5 -148t135.5 -67q29 -3 59 -3q43 0 90 6q79 12 149.5 32.5t121.5 44t66 39.5v-242q-125 -66 -251 -85t-255 -19q-113 0 -220.5 40 t-190.5 110.5t-134 165t-51 202.5zM481 573l357 -2v9q0 55 -6.5 86.5t-23.5 50t-46 25t-72 10.5q-18 1 -34 1q-74 0 -120 -29q-56 -36 -55 -144v-7z" />
<glyph unicode="f" horiz-adv-x="913" d="M43 727v262h170v72q0 27 1 58.5t11.5 65.5t34 72.5t68.5 81.5q33 33 85 53.5t110.5 32t116.5 14.5q44 2 81 2h23q47 -1 75.5 -4t28.5 -5v-279h-20.5h-39t-48 -2t-50.5 -4q-25 -4 -37 -23.5t-16 -44t-3 -50t3 -40.5h215v-262h-215v-727h-424v727h-170z" />
<glyph unicode="g" horiz-adv-x="1265" d="M90 590q0 92 34 173t102.5 141.5t172 96t242.5 37.5h12q77 0 145 -24q74 -25 136 -68q16 35 47 56.5t72 21.5q53 0 92 -39t39 -92q0 -45 -28 -80t-69 -47q41 -82 41 -174q0 -109 -34.5 -185.5t-94 -127t-139.5 -74t-170 -25.5q-31 1 -58 1q-72 0 -108 -8 q-49 -11 -43 -25.5t63 -25.5q36 -7 90 -7q29 0 64 2q238 -29 341.5 -94.5t103.5 -172.5q0 -55 -38 -104t-102.5 -86t-152.5 -58.5t-186 -21.5t-187.5 13.5t-155 39t-104.5 66.5t-39 96q0 31 25.5 60.5t66.5 52t91.5 39t99.5 20.5q-152 20 -217 57q-69 39 -69 82q0 37 46 72 q49 37 125 58q-59 0 -107.5 35.5t-81 88t-50 114t-17.5 116.5zM477 -162q0 -41 50.5 -70.5t121.5 -29.5q72 0 122 29.5t50 70.5t-50 71t-122 30t-122 -30t-50 -71zM489 614q0 -78 34 -134t118 -56t124 56.5t40 133.5q0 78 -38 130.5t-124 52.5q-84 0 -119 -53.5t-35 -129.5z " />
<glyph unicode="h" horiz-adv-x="1288" d="M106 0v1432h463v-492q33 18 78 37.5t98.5 32t114 12.5t121.5 -21q78 -27 127 -72.5t76.5 -100t39 -112t11.5 -104.5v-612h-395v608l-21 37l-26 39q-29 33 -70 33q-13 -1 -25 -3q-58 -12 -129 -40v-674h-463z" />
<glyph unicode="i" horiz-adv-x="665" d="M100 1282q0 49 65.5 84t162.5 35q47 0 89 -9.5t72.5 -25.5t49 -37.5t18.5 -46.5t-18.5 -46.5t-49 -36.5t-72.5 -24.5t-89 -9.5q-96 0 -162 34t-66 83zM102 0v1024h461v-1024h-461z" />
<glyph unicode="j" horiz-adv-x="747" d="M43 -102q37 -18 66.5 -26.5t49 0.5t29.5 39q9 25 9 71v18v1024h460v-1229q-29 -170 -129 -239q-81 -57 -208 -57q-29 0 -60 3l-215 6zM195 1282q0 49 65.5 84t161.5 35q47 0 89 -9.5t72.5 -25.5t49 -37.5t18.5 -46.5t-18.5 -46.5t-49 -36.5t-72.5 -24.5t-89 -9.5 q-96 0 -161.5 34t-65.5 83z" />
<glyph unicode="k" horiz-adv-x="1288" d="M106 0v1432h463v-650l267 359l444 2l-344 -422l45 -12q78 -27 127 -73t76.5 -100.5t39 -111.5t11.5 -105v-319h-395v315l-21 37l-26 39q-29 34 -70 34q-13 0 -25 -3q-58 -12 -129 -41v-381h-463z" />
<glyph unicode="l" horiz-adv-x="679" d="M106 0v1432h463v-1432h-463z" />
<glyph unicode="m" horiz-adv-x="1974" d="M106 -6v1030h416v-76q47 31 104.5 48.5t121.5 17.5q92 0 172.5 -37t136.5 -100q45 31 97 56t107.5 43.5t108.5 28t100 9.5q70 0 134.5 -21.5t117 -60.5t91 -90t61.5 -113v-735h-432v696q-12 35 -47 69t-80 34q-53 0 -100.5 -29t-57.5 -74v-696h-387v696q-10 47 -45 75 t-84 28q-53 0 -74.5 -28t-44.5 -75v-696h-416z" />
<glyph unicode="n" d="M106 -6v1030h416v-76q47 31 104.5 48.5t121.5 17.5q92 0 184 -36t147 -99q66 -72 85.5 -135.5t19.5 -129.5v-620h-414v696q-10 47 -45 75t-84 28q-53 0 -74.5 -28t-44.5 -75v-696h-416z" />
<glyph unicode="o" horiz-adv-x="1271" d="M74 504q0 104 44 198.5t119.5 167t178 114.5t219.5 42t219 -42t179 -114.5t121 -167t44 -198.5t-44 -196.5t-121 -160t-179 -107.5t-219 -40t-219.5 40t-178 107.5t-119.5 160t-44 196.5zM440 496q0 -94 53.5 -153.5t139.5 -59.5t138 63.5t52 157.5q0 47 -13 91t-39 79 t-60.5 55.5t-77.5 20.5t-79 -22.5t-60.5 -58.5t-39 -81t-14.5 -92z" />
<glyph unicode="p" horiz-adv-x="1261" d="M106 -412v1432h441v-70q35 33 76 50.5t122 17.5h9q56 0 130 -22q79 -25 151.5 -86.5t123.5 -162t55 -247.5v-12q0 -114 -34 -201q-37 -92 -99.5 -153.5t-141.5 -95.5t-159 -38q-16 -1 -34 -1q-40 0 -86 6q-68 9 -113 18v-435h-441zM547 332q67 -21 118 -21q48 0 83 18 q71 38 71 169q0 66 -9 111.5t-39 71.5t-83 30q-9 1 -19 1q-49 0 -122 -16v-364z" />
<glyph unicode="q" horiz-adv-x="1263" d="M47 500q4 147 55.5 247.5t124 162t151.5 86.5q73 22 129 22h9q82 0 123 -17.5t76 -50.5v70h440v-1432h-440v435q-23 -4 -52.5 -8.5t-60.5 -8.5t-62.5 -6t-58.5 0q-80 4 -158.5 38t-141 95.5t-100.5 153.5q-34 83 -34 190v23zM442 498q0 -131 72 -169q35 -18 82 -18 q52 0 119 21v364q-74 15 -123 15q-10 0 -18 -1q-54 -3 -83.5 -29t-39 -71.5t-9.5 -111.5z" />
<glyph unicode="r" horiz-adv-x="1126" d="M106 2v1018h441v-70q35 33 76 50.5t122 17.5q6 0 12 1q35 -1 79 -11q52 -12 103.5 -38t101 -68t87.5 -103l-311 -209h-4q-27 55 -55 93q-30 37 -62 53q-21 10 -43 11q-13 1 -26 -3q-37 -8 -80 -48v-694h-441z" />
<glyph unicode="s" horiz-adv-x="1030" d="M74 137q0 43 1 95.5t2 97.5t1 49t17.5 -7.5t46 -30.5t65.5 -40.5t76 -40.5q74 -33 130 -33h6q58 2 79 27q20 25 8 52.5t-74 68.5q-31 20 -82 51t-102 72t-92 90t-54 108q-6 30 -6 58q0 24 4 48q10 48 37 86t66 66.5t84 44.5q107 25 210 25h15q110 -2 201.5 -19.5t154 -43 t80.5 -41.5q2 -2 1 -44t-1 -93.5t-1 -92.5t1 -39t-31.5 19.5t-79.5 39t-94.5 41t-72.5 29.5q-25 8 -55.5 16.5t-59.5 8.5t-55.5 -11.5t-42.5 -39.5q-16 -29 -7 -50.5t34.5 -40t64.5 -35t80 -36.5t98 -40t109.5 -48.5t88.5 -70.5t36 -107q0 -96 -46.5 -156.5t-115 -95.5 t-150.5 -51.5t-155 -22.5q-22 -2 -43 -2q-52 0 -104 10q-73 14 -132 34.5t-97 38t-40 15.5q-4 -2 -4 41z" />
<glyph unicode="t" horiz-adv-x="1032" d="M35 748v262h205q4 0 34.5 23.5t75.5 59t97.5 77.5t96.5 77t74 57q27 20 30 19h1l-4 -313h295v-262h-295q-2 -129 -2 -214t2 -88q2 -4 5 -29.5t16.5 -54t37.5 -48.5q19 -16 51 -16q9 0 19 1q45 6 80 23.5t60.5 36t39 33t15.5 14.5l1 -23v-26v-31q-1 -34 -2 -74.5t-1 -75.5 t-1 -59.5t-1 -26.5q0 -4 -25 -17.5t-70 -28.5t-108.5 -27.5t-140.5 -12.5h-19q-98 0 -164 18q-72 20 -115.5 63.5t-62 111t-20.5 159.5q-4 186 -4 289t4 103h-205z" />
<glyph unicode="u" d="M94 403v621h414v-696q10 -47 45 -75t84 -28q53 0 74.5 28t44.5 75v696h415v-1030h-415v76q-47 -31 -104.5 -48.5t-121.5 -17.5q-92 0 -184 36t-147 99q-66 72 -85.5 135.5t-19.5 128.5z" />
<glyph unicode="v" horiz-adv-x="1286" d="M51 1024h400l192 -518l193 518h399l-410 -1024h-366z" />
<glyph unicode="w" horiz-adv-x="1847" d="M72 1024h346l166 -518l168 518h344l168 -518l166 518h346l-353 -1024h-317l-180 522l-183 -522h-317z" />
<glyph unicode="x" horiz-adv-x="1234" d="M45 4l350 490l-350 524h420l153 -299l154 299h420l-352 -524l352 -490h-418l-156 229l-163 -229h-410z" />
<glyph unicode="y" horiz-adv-x="1300" d="M82 1024h434l166 -365l160 365h434l-698 -1434h-428l305 686z" />
<glyph unicode="z" horiz-adv-x="1247" d="M84 0l451 686h-369v338h971l-510 -768h524v-256h-1067z" />
<glyph unicode="{" horiz-adv-x="700" d="M27 528l186 148v622q12 109 113 134h321v-121h-213v-635l-186 -148l186 -147v-586h213v-123h-287q-135 20 -147 148v561z" />
<glyph unicode="|" horiz-adv-x="442" d="M106 -328v1760h222v-1760h-222z" />
<glyph unicode="}" horiz-adv-x="698" d="M51 -205h213v586l187 147l-187 148v635h-213v121h322q100 -25 112 -134v-622l187 -148l-187 -147v-561q-12 -127 -147 -148h-287v123z" />
<glyph unicode="~" horiz-adv-x="1191" d="M25 436q29 49 63.5 99.5t78.5 90.5t97 61.5t121 14.5q61 -4 104 -17t97 -46q66 -41 116 -81t92 -52t80.5 16.5t81.5 120.5q10 25 14.5 32t12.5 32q55 -29 93 -48.5t91 -48.5q-10 -39 -24.5 -80t-36.5 -75q-37 -59 -74 -109q-41 -55 -88 -68.5t-97 0t-103.5 44 t-103.5 63.5t-98 58.5t-89 27.5q-68 4 -114 -15.5t-78 -52t-53.5 -70.5t-39.5 -69z" />
<glyph unicode="&#xa1;" horiz-adv-x="657" d="M84 709q0 49 19.5 92t54.5 75.5t80 51t98 18.5q51 0 97 -18.5t81 -51t54.5 -75.5t19.5 -92q0 -98 -58.5 -168t-146.5 -78q41 -90 64.5 -182.5t38 -190.5t21.5 -203.5t17 -222.5h-428q25 213 69 414t134 385q-41 14 -79 37.5t-68.5 56.5t-49 71t-18.5 81z" />
<glyph unicode="&#xa2;" horiz-adv-x="1032" d="M29 487q0 104 32.5 199.5t97 169.5t159 119t217.5 49v301l137 2v-311q86 -14 161.5 -46t137.5 -79l-137 -211q-25 23 -70 40t-92 25v-454q47 8 92 26.5t70 44.5l165 -227q-66 -55 -148.5 -87t-178.5 -42v-334l-137 -2v330q-123 2 -217.5 39t-159 101.5t-97 152.5 t-32.5 194zM377 518q0 -78 44 -137t114 -82v438q-70 -23 -114 -82t-44 -137z" />
<glyph unicode="&#xa3;" horiz-adv-x="1155" d="M-2 502v166h172l117 766h514l-117 -766h322v-166h-347l-36 -246h495v-256h-1009v248l36 254h-147z" />
<glyph unicode="&#xa4;" horiz-adv-x="1705" d="M152 188l219 240q-35 53 -53.5 115.5t-18.5 132.5q0 135 70 244l-203 233l106 94l193 -221q51 39 111.5 61.5t128.5 22.5q59 0 115.5 -18.5t103.5 -51.5l186 195l102 -98l-188 -197q41 -55 63.5 -121.5t22.5 -142.5q0 -78 -24.5 -147.5t-67.5 -127.5l182 -208l-106 -95 l-181 207q-96 -61 -208 -61q-66 0 -125.5 20.5t-108.5 57.5l-213 -232zM465 684q0 -57 19.5 -107.5t52 -87t76.5 -58t94 -21.5q49 0 93 21.5t76.5 58t52 87t19.5 107.5t-19.5 107.5t-52 88.5t-76.5 59.5t-93 21.5t-93.5 -21.5t-77 -59.5t-52 -88.5t-19.5 -107.5z" />
<glyph unicode="&#xa5;" horiz-adv-x="1841" d="M43 1432h524l355 -465l352 465h524l-624 -744v-110h323v-166h-323v-140h323v-166h-323v-106h-515v106h-305v166h305v140h-305v166h305v110z" />
<glyph unicode="&#xa6;" horiz-adv-x="444" d="M106 -328v680h222v-680h-222zM106 614v818h222v-818h-222z" />
<glyph unicode="&#xa7;" horiz-adv-x="1527" d="M70 -10q0 43 1 95t2 97t1 49t17.5 -7t46 -30.5t65.5 -41t76 -39.5q78 -35 136 -33t79 26q20 25 7.5 52.5t-73.5 68.5q-31 20 -82 51t-102 72t-92 90t-54 109q-12 57 -2 105t37 86t66 67t84 45q41 10 79.5 14t79.5 8q-4 8 -4 17q-12 57 -2 105t37 86t66 67t84 45 q115 27 225 25t201.5 -19.5t154 -43.5t80.5 -42q2 -2 1 -40t-2 -86t-1 -90v-50l2 -2l-2 2q-6 6 -41 22.5t-79 37t-88 39t-68 28.5q-25 8 -55.5 16t-59.5 8t-55.5 -11t-42.5 -40t-7 -50t34.5 -39.5t64.5 -35t80 -37.5q41 -20 98 -39.5t109.5 -48t88 -70.5t35.5 -108 q0 -76 -30.5 -130t-78.5 -90t-108.5 -57.5t-124.5 -33.5q2 -10 2 -31q0 -96 -46 -156.5t-114.5 -95.5t-150.5 -51t-156 -22t-146.5 8t-131.5 34.5t-97 38t-40 15.5q-4 -2 -4 41zM446 556q9 -21 34.5 -39.5t64.5 -35.5t80 -37q10 -6 22 -11t25 -9v10q59 -16 102 -11t60 26 q20 25 7.5 52t-73.5 68l-100 62q-2 0 -2 2q-25 8 -55.5 16t-59.5 8t-55.5 -11t-42.5 -40t-7 -50z" />
<glyph unicode="&#xa8;" horiz-adv-x="796" d="M94 1206q0 49 32 84t77 35t76.5 -35t31.5 -84t-31.5 -84t-76.5 -35t-77 35t-32 84zM487 1208q0 49 32 84t77 35t77 -35t32 -84t-32 -83.5t-77 -34.5t-77 34.5t-32 83.5z" />
<glyph unicode="&#xa9;" horiz-adv-x="1587" d="M72 709q0 147 56 276t154.5 225.5t230.5 152.5t282 56t280.5 -56t229 -152.5t155 -225.5t56.5 -276q0 -145 -56.5 -274.5t-155 -225.5t-229.5 -151.5t-280 -55.5q-150 0 -282 55.5t-230.5 151.5t-154.5 225.5t-56 274.5zM240 713q0 -109 43 -203t116.5 -165t173 -111.5 t213.5 -40.5q115 0 215.5 40.5t175 111.5t117.5 165t43 203t-43 204t-117.5 165.5t-175 111.5t-215.5 41t-214 -41t-172.5 -111.5t-116.5 -165.5t-43 -204zM455 702q0 66 21.5 127.5t63.5 109.5t102 76.5t138 28.5q35 0 78 -9t86 -22.5t81 -31.5t62 -37l-116 -127 q-10 10 -30.5 21.5t-44.5 20.5t-47.5 15.5t-37.5 6.5q-31 0 -59.5 -14.5t-51 -38t-37 -53t-14.5 -58.5t15.5 -58.5t39 -52t53 -37t60.5 -14.5q14 0 37 7t45.5 17.5t42 23.5t29.5 24l133 -135q-25 -23 -64 -42.5t-82 -34t-88 -23.5t-84 -9q-78 0 -139 25.5t-104 68.5 t-65.5 101.5t-22.5 123.5z" />
<glyph unicode="&#xaa;" horiz-adv-x="1185" d="M330 825q0 20 2 33.5t7 24t15.5 20.5t24.5 21q23 14 63.5 34.5t112.5 36.5q37 6 59.5 16.5t35 23t15.5 21.5t3 19q0 14 -6.5 20.5t-21.5 8.5t-42 0t-70 -8q-20 -2 -52 -12.5t-60.5 -22.5t-50 -22.5t-21.5 -12.5v22q0 21 1 47.5t1 48t-2 21.5l16 13q15 14 43.5 30.5 t70.5 31.5t91 20q39 2 92.5 4t103.5 -8.5t87 -38t41 -82.5t2 -108.5t-6 -94.5t-8.5 -67.5t-2.5 -26.5q10 -2 16.5 -2t7.5 1l1 1v-23.5t1 -48.5t1 -48.5t-2 -21.5q-6 0 -29.5 -1t-53.5 -1t-59.5 2t-47.5 9q-10 4 -15.5 10t-9.5 13t-4 12t0 3l-14 -9q-13 -9 -37.5 -18 t-64.5 -16.5t-91 -3.5q-35 0 -61.5 12.5t-45 30t-27.5 41t-9 45.5zM514 825q8 -27 21.5 -32t31.5 0q10 2 27.5 8t35 14t33 16.5t17.5 12.5v88l-16 -4q-17 -4 -37.5 -9.5t-41 -11.5t-28.5 -8q-29 -14 -35 -30.5t-8 -43.5z" />
<glyph unicode="&#xab;" horiz-adv-x="985" d="M51 479v49l305 502l117 -119l-244 -407l244 -393l-117 -111zM473 479v49l305 502l117 -119l-244 -407l244 -393l-117 -111z" />
<glyph unicode="&#xac;" horiz-adv-x="1282" d="M6 874v150l1168 -4v-596h-144v450h-1024z" />
<glyph unicode="&#xad;" horiz-adv-x="1062" d="M106 559v166h859v-166h-859z" />
<glyph unicode="&#xae;" horiz-adv-x="1603" d="M74 715q0 147 57 278t155.5 228.5t231.5 154t285 56.5q150 0 283 -56.5t231 -154t155.5 -228.5t57.5 -278t-57.5 -277.5t-155.5 -226.5t-231.5 -152.5t-282.5 -56.5q-152 0 -285 56.5t-231.5 152.5t-155.5 226.5t-57 277.5zM244 719q0 -109 43 -204t117.5 -167 t175 -112.5t215.5 -40.5t216 40.5t176 112.5t119 167t44 204t-44 205t-119 167.5t-176.5 112.5t-215.5 41q-115 0 -215.5 -41t-175 -112.5t-117.5 -167.5t-43 -205zM528 434v592l424 -2q25 -6 51.5 -23.5t48 -42t36 -53t16.5 -59.5q2 -39 -13.5 -70t-39 -52.5t-51 -34.5 t-50.5 -15l158 -240h-209l-147 242h-21v-242h-203zM731 776l66 -2q61 -2 85.5 11.5t26.5 45.5q0 49 -30.5 60.5t-81.5 11.5h-66v-127z" />
<glyph unicode="&#xaf;" horiz-adv-x="1021" d="M106 1266v159h787v-159h-787z" />
<glyph unicode="&#xb0;" horiz-adv-x="1705" d="M371 1014q0 57 22.5 107t60.5 88t90 59.5t111 21.5t111.5 -21.5t91.5 -59.5t61.5 -88t22.5 -107t-22.5 -107.5t-61.5 -87.5t-91 -58.5t-112 -21.5q-59 0 -111 21.5t-90 58.5t-60.5 87.5t-22.5 107.5zM508 1024q0 -68 42 -115t103 -47t104.5 47t43.5 115t-43 115t-105 47 q-61 0 -103 -47t-42 -115z" />
<glyph unicode="&#xb1;" horiz-adv-x="958" d="M47 205v166h858v-166h-858zM98 858l2 178l297 -2v275h178v-277h304l-2 -178h-302v-324h-178v326z" />
<glyph unicode="&#xb2;" horiz-adv-x="1196" d="M416 1198q2 0 17.5 13.5t43 28.5t66.5 25.5t90 8.5q98 -8 143 -54t49 -122q0 -18 -2 -43t-9 -49.5t-18.5 -51t-27.5 -49.5q-37 -47 -59.5 -66.5t-20.5 -19.5h26.5h55.5h78v-145h-424l2 16q2 17 2 36v36.5v19.5t11.5 7.5t28.5 12.5t37.5 18t41.5 26q23 16 44 45t36.5 61.5 t19.5 65.5t-8 57q-20 35 -52 43t-65 -8q-14 -6 -23.5 -15.5t-14.5 -16.5t-6 -10l-1 -9q2 0 -2 10t-11 25.5t-16.5 33t-16.5 33t-11 25.5t-4 12z" />
<glyph unicode="&#xb3;" horiz-adv-x="1120" d="M383 651v22.5v46v47v24.5q0 2 12.5 -4.5t30.5 -15.5t40.5 -18.5t43.5 -9.5q20 0 39.5 2.5t35 9.5t26 20t10.5 40q0 20 -11.5 32.5t-28 18.5t-35 8.5t-30.5 4.5l-31 -2q-2 0 -2 11v26.5v35t1 35.5t1 27.5v13.5l50 -6q12 2 27.5 4t28.5 7t21.5 15.5t8.5 32.5q0 23 -11.5 36 t-29 20.5t-38 9.5t-38.5 2t-39 -6t-39 -12.5t-29.5 -11.5t-13.5 -5l1 20q1 19 3 41.5t1 42t-5 19.5q-2 0 7 3t27.5 9t42 11.5t50.5 11.5t52.5 9t47.5 3q33 -2 68 -4t63.5 -14.5t48 -42t23.5 -84.5t-10.5 -91t-32.5 -56.5t-34.5 -30t-16.5 -7.5l19 -9q18 -9 39.5 -30.5 t36.5 -56.5t11 -84q-4 -51 -30.5 -82t-61.5 -50t-76 -28.5t-73 -13.5q-33 -6 -69 1t-64.5 19.5t-47 22.5t-20.5 10z" />
<glyph unicode="&#xb4;" horiz-adv-x="786" d="M358 1155l234 281l141 -144l-246 -205z" />
<glyph unicode="&#xb6;" horiz-adv-x="1705" d="M124 934q3 180 271 350h803v-158h-117v-1450h-157v1450h-193v-1450h-158v883h-178q-274 195 -271 375z" />
<glyph unicode="&#xb7;" horiz-adv-x="411" d="M76 641q0 55 39 94t92 39t92 -39t39 -94t-39 -93t-92 -38t-92 38t-39 93z" />
<glyph unicode="&#xb8;" horiz-adv-x="714" d="M74 -469l90 135q43 -43 112 -43q31 0 62 9.5t55.5 25.5t40 37.5t15.5 44.5t-14.5 45t-38 39.5t-53.5 28t-60 10.5q-37 0 -70 -4t-51 -25v297h176v-131q96 0 159.5 -19.5t101.5 -54.5t52.5 -86t14.5 -112q0 -49 -31 -93.5t-83 -77t-123 -51t-153 -18.5q-57 0 -107 11.5 t-95 31.5z" />
<glyph unicode="&#xb9;" horiz-adv-x="735" d="M426 1151l174 139h94v-604h-219v365h-47z" />
<glyph unicode="&#xba;" horiz-adv-x="1271" d="M358 1051q0 59 26 113.5t69 95t101 64.5t124 24q68 0 126 -24t102 -64.5t68.5 -95t24.5 -113.5t-24.5 -111.5t-68.5 -90.5t-102.5 -60.5t-125.5 -22.5q-66 0 -124 22.5t-101 60.5t-69 90.5t-26 111.5zM567 1047q0 -53 31 -87t80 -34t78.5 35.5t29.5 89.5q0 29 -8 53 t-22.5 43.5t-34 32t-43.5 12.5q-25 0 -45.5 -13.5t-34.5 -34t-22.5 -45.5t-8.5 -52z" />
<glyph unicode="&#xbb;" horiz-adv-x="985" d="M90 119l244 407l-244 394l117 110l305 -479v-49l-305 -502zM512 119l244 407l-244 394l117 110l305 -479v-49l-305 -502z" />
<glyph unicode="&#xbc;" horiz-adv-x="1409" d="M47 1133v124l213 175h117v-752h-271v453h-59zM152 0l694 1432h211l-695 -1432h-210zM606 135l2 111l318 461h235v-461h99l2 -111h-101v-135h-254v137zM776 246h131v260z" />
<glyph unicode="&#xbd;" horiz-adv-x="1374" d="M98 1137v125l211 172h117v-746h-268v449h-60zM203 0l694 1432h211l-694 -1432h-211zM793 528q2 2 17 15.5t43 29t69 25.5t90 8q102 -8 147 -54t49 -124q0 -20 -2 -44t-9 -49.5t-18.5 -52t-29.5 -51.5q-35 -47 -58.5 -66.5t-21.5 -19.5h27.5h54.5h82v-147h-432q2 0 3 16.5 t1 36v36.5v22q0 2 11 7t28.5 12t39 18.5t42.5 25.5q23 16 45 46t36.5 62.5t19.5 66.5t-9 56q-18 37 -51 45.5t-66 -8.5q-14 -6 -23.5 -15t-15.5 -17.5t-7 -13.5t1 -5l-4 11q-4 10 -11 25t-15.5 32.5t-15.5 33t-12 26.5z" />
<glyph unicode="&#xbe;" horiz-adv-x="1697" d="M84 750v23.5v48v50v25.5t13.5 -5t33 -17.5t42 -18.5t44.5 -8q20 0 41 1t38 8t27.5 22.5t10.5 42.5q0 20 -12.5 33.5t-29 19.5t-35.5 9t-34 3l-33 -2v13v28v35.5v37v29.5v13l54 -6q12 4 28.5 5t29.5 7t22.5 17.5t9.5 33.5q0 23 -12.5 37t-31 21.5t-40 9.5t-39.5 2 q-20 0 -42 -5.5t-40 -12.5t-30.5 -13t-14.5 -6l1 21q1 20 3 44.5t1 45t-5 20.5q-2 0 7 3t28.5 9t44 12.5t52.5 12.5t55.5 9t52.5 3q35 -2 70.5 -4t65 -15.5t50 -44t25.5 -90.5q4 -57 -10.5 -95t-34 -59.5t-37 -30.5t-17.5 -7l20 -9q19 -9 41.5 -32t38 -59.5t11.5 -87.5 q-4 -53 -31 -86t-64.5 -52.5t-79.5 -30t-77 -14.5q-35 -6 -72 1t-67.5 19.5t-50 24t-21.5 11.5zM291 0l694 1432h211l-694 -1432h-211zM772 139l2 113l326 473h241v-473h103l2 -113h-105v-139h-262v139h-307zM944 252h135v266z" />
<glyph unicode="&#xbf;" horiz-adv-x="991" d="M55 152q0 92 39 158.5t97.5 119.5t129 99t132.5 102q-86 16 -142.5 80.5t-56.5 150.5q0 49 19.5 92t54 76t80 51.5t98.5 18.5q51 0 97 -18.5t81 -51.5t54.5 -76t19.5 -92t-19.5 -92t-53.5 -74.5t-79 -51t-96 -19.5l168 -140q-37 -2 -95.5 -38.5t-113.5 -87t-95 -103.5 t-40 -90q0 -39 15.5 -73t41 -59.5t60 -39.5t73.5 -14q68 0 120 41.5t67 103.5h235q-4 -96 -41 -179t-97 -144.5t-139 -97.5t-167 -36q-92 0 -173 38t-142.5 103.5t-96.5 153.5t-35 189z" />
<glyph unicode="&#xc0;" horiz-adv-x="1970" d="M53 0l619 1434h528l619 -1434h-539l-102 256h-484l-102 -256h-539zM686 1702l141 143l285 -348h-180zM784 455h303l-151 569z" />
<glyph unicode="&#xc1;" horiz-adv-x="1970" d="M53 0l619 1434h528l619 -1434h-539l-102 256h-484l-102 -256h-539zM639 1565l233 280l142 -143l-246 -205zM784 455h303l-151 569z" />
<glyph unicode="&#xc2;" horiz-adv-x="1970" d="M53 0l619 1434h528l619 -1434h-539l-102 256h-484l-102 -256h-539zM623 1612l292 250l302 -250l-158 -94l-109 94h-63l-131 -94zM784 455h303l-151 569z" />
<glyph unicode="&#xc3;" horiz-adv-x="1970" d="M53 0l619 1434h528l619 -1434h-539l-102 256h-484l-102 -256h-539zM596 1655q2 16 15.5 37.5t34 41t46 36t51.5 22.5q49 14 88 13t80 -15t90.5 -43t120.5 -72q25 -6 46.5 3.5t41 26.5t38 42t36.5 49q8 -33 27.5 -69.5t29.5 -65.5q-10 -27 -31.5 -56.5t-51 -53t-63.5 -37 t-67 -7.5q-47 4 -79.5 15.5t-63.5 29t-66.5 40t-89.5 46.5q-35 0 -60.5 -12t-48 -30.5t-44 -39t-43.5 -32.5q-2 2 -9.5 21.5t-14.5 42t-12 43t-1 24.5zM784 455h303l-151 569z" />
<glyph unicode="&#xc4;" horiz-adv-x="1970" d="M53 0l619 1434h528l619 -1434h-539l-102 256h-484l-102 -256h-539zM713 1616q0 49 31.5 84t76.5 35t77 -35t32 -84t-32 -84t-77 -35t-76.5 35t-31.5 84zM784 455h303l-151 569zM1106 1618q0 49 31.5 84t76.5 35t77 -35t32 -84t-31.5 -84t-77.5 -35q-45 0 -76.5 35 t-31.5 84z" />
<glyph unicode="&#xc5;" horiz-adv-x="1970" d="M53 0l619 1434h528l619 -1434h-539l-102 256h-484l-102 -256h-539zM737 1632q0 39 19.5 75t53.5 62.5t79 42t94 15.5t92 -15.5t75 -42t49.5 -62.5t17.5 -75t-17.5 -75.5t-49.5 -66.5t-75 -47.5t-92 -17.5t-94 17.5t-79 47.5t-53.5 66.5t-19.5 75.5zM784 455h303l-151 569 zM844 1638q0 -41 40 -62.5t95 -21.5t93 21.5t38 62.5t-38 64.5t-93 23.5t-95 -23.5t-40 -64.5z" />
<glyph unicode="&#xc6;" horiz-adv-x="2312" d="M53 0l799 1434h240l1009 -2v-246h-506v-324h467v-248h-467v-358h512v-256h-1026v256h-387l-102 -256h-539zM784 455h297v22l-2 547z" />
<glyph unicode="&#xc7;" horiz-adv-x="1613" d="M70 717q0 147 64.5 278t177 228.5t264 154t323.5 56.5q170 0 318.5 -55.5t261.5 -151.5l-277 -365q-33 98 -114.5 130t-186.5 32q-66 0 -123 -23.5t-100 -64.5t-68.5 -96.5t-25.5 -116.5t25.5 -116.5t68.5 -96.5t100.5 -64.5t122.5 -23.5q94 0 171 49t122 141l270 -415 q-113 -94 -256 -145.5t-309 -51.5q-172 0 -323.5 56.5t-264 153.5t-177 228t-64.5 279zM489 -469l91 135q43 -43 112 -43q31 0 61.5 9.5t55.5 25.5t40 37.5t15 44.5t-14 45t-38 39.5t-53.5 28t-60.5 10.5q-37 0 -69.5 -4t-50.5 -25v297h176v-131q96 0 159.5 -19.5 t101.5 -54.5t52 -86t14 -112q0 -49 -30.5 -93.5t-83 -77t-123 -51t-152.5 -18.5q-57 0 -107 11.5t-96 31.5z" />
<glyph unicode="&#xc8;" horiz-adv-x="1230" d="M109 0v1434l1019 -2v-246h-505v-324h467v-248h-467v-358h512v-256h-1026zM240 1702l141 143l285 -348h-181z" />
<glyph unicode="&#xc9;" horiz-adv-x="1230" d="M109 0v1434l1019 -2v-246h-505v-324h467v-248h-467v-358h512v-256h-1026zM197 1565l233 280l141 -143l-245 -205z" />
<glyph unicode="&#xca;" horiz-adv-x="1230" d="M109 0v1434l1019 -2v-246h-505v-324h467v-248h-467v-358h512v-256h-1026zM176 1612l293 250l301 -250l-158 -94l-108 94h-64l-131 -94z" />
<glyph unicode="&#xcb;" horiz-adv-x="1230" d="M109 0v1434l1019 -2v-246h-505v-324h467v-248h-467v-358h512v-256h-1026zM266 1616q0 49 32 84t77 35t76.5 -35t31.5 -84t-31.5 -84t-76.5 -35t-77 35t-32 84zM659 1618q0 49 32 84t77 35t77 -35t32 -84t-32 -84t-77 -35t-77 35t-32 84z" />
<glyph unicode="&#xcc;" horiz-adv-x="745" d="M35 1702l141 143l285 -348h-180zM135 0v1434h514v-1434h-514z" />
<glyph unicode="&#xcd;" horiz-adv-x="757" d="M4 1565l234 280l141 -143l-246 -205zM147 0v1434h515v-1434h-515z" />
<glyph unicode="&#xce;" horiz-adv-x="819" d="M45 1612l293 250l301 -250l-158 -94l-108 94h-64l-131 -94zM209 0v1434h514v-1434h-514z" />
<glyph unicode="&#xcf;" horiz-adv-x="815" d="M94 1616q0 49 32 84t77 35t76.5 -35t31.5 -84t-31.5 -84t-76.5 -35t-77 35t-32 84zM168 0v1434h514v-1434h-514zM487 1618q0 49 32 84t77 35t77 -35t32 -84t-32 -84t-77 -35t-77 35t-32 84z" />
<glyph unicode="&#xd0;" horiz-adv-x="1818" d="M63 825l928 2l2 -249l-927 -3zM272 0v1434h547q8 0 50 1t105.5 -2t143.5 -15.5t163 -40t162 -74t141.5 -120t103.5 -176t45 -241.5q8 -211 -59.5 -350.5t-185.5 -224.5t-270.5 -125.5t-317.5 -56t-328.5 -13.5t-299.5 4zM750 375q25 -2 68.5 0t96 12t106.5 32.5t99 61.5 t74 97.5t31 144.5q2 100 -31 164.5t-83 102.5t-109.5 53.5t-111.5 19.5t-70 3l-52 -5q-2 0 -18 -4v-682z" />
<glyph unicode="&#xd1;" horiz-adv-x="1775" d="M106 0v1434l488 -2l569 -818v820h514v-1434h-463l-593 862v-862h-515zM516 1655q2 16 15.5 37.5t34 41t46 36t52.5 22.5q49 14 88 13t79.5 -15t90 -43t120.5 -72q25 -6 46.5 3.5t41 26.5t38 42t36.5 49q8 -33 27.5 -69.5t30.5 -65.5q-10 -27 -32 -56.5t-51.5 -53t-63 -37 t-66.5 -7.5q-47 4 -80 15.5t-64 29t-66.5 40t-88.5 46.5q-35 0 -60.5 -12t-48.5 -30.5t-44.5 -39t-43.5 -32.5q-2 2 -9 21.5t-14.5 42t-12.5 43t-1 24.5z" />
<glyph unicode="&#xd2;" horiz-adv-x="1685" d="M74 717q0 147 58 278t157.5 228.5t234.5 154t289 56.5t289 -56.5t235.5 -154t158.5 -228.5t58 -278t-58 -278.5t-158.5 -228.5t-235.5 -153.5t-289 -56.5t-289 56.5t-234.5 153.5t-157.5 228.5t-58 278.5zM532 723q0 -61 23 -116.5t60.5 -96.5t89 -64.5t110.5 -23.5 q57 0 109.5 23.5t90.5 64.5t60.5 96.5t22.5 116.5t-22.5 116.5t-60.5 96.5t-90.5 64.5t-109.5 23.5q-59 0 -110.5 -23.5t-89 -64.5t-60.5 -96.5t-23 -116.5zM629 1702l141 143l285 -348h-181z" />
<glyph unicode="&#xd3;" horiz-adv-x="1685" d="M74 717q0 147 58 278t157.5 228.5t234.5 154t289 56.5t289 -56.5t235.5 -154t158.5 -228.5t58 -278t-58 -278.5t-158.5 -228.5t-235.5 -153.5t-289 -56.5t-289 56.5t-234.5 153.5t-157.5 228.5t-58 278.5zM532 723q0 -61 23 -116.5t60.5 -96.5t89 -64.5t110.5 -23.5 q57 0 109.5 23.5t90.5 64.5t60.5 96.5t22.5 116.5t-22.5 116.5t-60.5 96.5t-90.5 64.5t-109.5 23.5q-59 0 -110.5 -23.5t-89 -64.5t-60.5 -96.5t-23 -116.5zM655 1565l234 280l141 -143l-246 -205z" />
<glyph unicode="&#xd4;" horiz-adv-x="1685" d="M74 717q0 147 58 278t157.5 228.5t234.5 154t289 56.5t289 -56.5t235.5 -154t158.5 -228.5t58 -278t-58 -278.5t-158.5 -228.5t-235.5 -153.5t-289 -56.5t-289 56.5t-234.5 153.5t-157.5 228.5t-58 278.5zM532 723q0 -61 23 -116.5t60.5 -96.5t89 -64.5t110.5 -23.5 q57 0 109.5 23.5t90.5 64.5t60.5 96.5t22.5 116.5t-22.5 116.5t-60.5 96.5t-90.5 64.5t-109.5 23.5q-59 0 -110.5 -23.5t-89 -64.5t-60.5 -96.5t-23 -116.5zM545 1612l293 250l301 -250l-158 -94l-109 94h-63l-131 -94z" />
<glyph unicode="&#xd5;" horiz-adv-x="1685" d="M74 717q0 147 58 278t157.5 228.5t234.5 154t289 56.5t289 -56.5t235.5 -154t158.5 -228.5t58 -278t-58 -278.5t-158.5 -228.5t-235.5 -153.5t-289 -56.5t-289 56.5t-234.5 153.5t-157.5 228.5t-58 278.5zM471 1655q2 16 15.5 37.5t34 41t46 36t51.5 22.5q49 14 88 13 t80 -15t90.5 -43t120.5 -72q25 -6 46.5 3.5t41 26.5t38 42t36.5 49q8 -33 27.5 -69.5t30.5 -65.5q-10 -27 -32 -56.5t-51.5 -53t-63 -37t-66.5 -7.5q-47 4 -80 15.5t-64 29t-66.5 40t-88.5 46.5q-35 0 -61 -12t-48.5 -30.5t-44 -39t-43.5 -32.5q-2 2 -9 21.5t-14.5 42 t-12.5 43t-1 24.5zM532 723q0 -61 23 -116.5t60.5 -96.5t89 -64.5t110.5 -23.5q57 0 109.5 23.5t90.5 64.5t60.5 96.5t22.5 116.5t-22.5 116.5t-60.5 96.5t-90.5 64.5t-109.5 23.5q-59 0 -110.5 -23.5t-89 -64.5t-60.5 -96.5t-23 -116.5z" />
<glyph unicode="&#xd6;" horiz-adv-x="1685" d="M74 717q0 147 58 278t157.5 228.5t234.5 154t289 56.5t289 -56.5t235.5 -154t158.5 -228.5t58 -278t-58 -278.5t-158.5 -228.5t-235.5 -153.5t-289 -56.5t-289 56.5t-234.5 153.5t-157.5 228.5t-58 278.5zM532 723q0 -61 23 -116.5t60.5 -96.5t89 -64.5t110.5 -23.5 q57 0 109.5 23.5t90.5 64.5t60.5 96.5t22.5 116.5t-22.5 116.5t-60.5 96.5t-90.5 64.5t-109.5 23.5q-59 0 -110.5 -23.5t-89 -64.5t-60.5 -96.5t-23 -116.5zM537 1616q0 49 31.5 84t76.5 35t77 -35t32 -84t-32 -84t-77 -35t-76.5 35t-31.5 84zM930 1618q0 49 31.5 84 t76.5 35t77 -35t32 -84t-32 -84t-77 -35t-76.5 35t-31.5 84z" />
<glyph unicode="&#xd7;" horiz-adv-x="843" d="M72 453l235 225l-207 186l131 129l203 -190l199 190l123 -129l-199 -192l211 -219l-129 -129l-209 225l-233 -225z" />
<glyph unicode="&#xd8;" horiz-adv-x="1685" d="M74 717q0 147 58 278t157.5 228.5t234.5 154t289 56.5t289 -56.5t235.5 -154t158.5 -228.5t58 -278t-58 -278.5t-158.5 -228.5t-235.5 -153.5t-289 -56.5t-289 56.5t-234.5 153.5t-157.5 228.5t-58 278.5zM326 -45l757 1561h230l-758 -1561h-229zM532 723 q0 -61 23 -116.5t60.5 -96.5t89 -64.5t110.5 -23.5q57 0 109.5 23.5t90.5 64.5t60.5 96.5t22.5 116.5t-22.5 116.5t-60.5 96.5t-90.5 64.5t-109.5 23.5q-59 0 -110.5 -23.5t-89 -64.5t-60.5 -96.5t-23 -116.5z" />
<glyph unicode="&#xd9;" horiz-adv-x="1642" d="M88 727l4 709h483l-6 -703q0 -127 55.5 -209t166.5 -82t180 82t69 209l2 703h484v-701q0 -150 -58.5 -281.5t-159 -231t-231.5 -157t-274 -57.5q-145 0 -274.5 56.5t-227.5 153.5t-155.5 228.5t-57.5 280.5zM487 1702l142 143l284 -348h-180z" />
<glyph unicode="&#xda;" horiz-adv-x="1642" d="M88 727l4 709h483l-6 -703q0 -127 55.5 -209t166.5 -82t180 82t69 209l2 703h484v-701q0 -150 -58.5 -281.5t-159 -231t-231.5 -157t-274 -57.5q-145 0 -274.5 56.5t-227.5 153.5t-155.5 228.5t-57.5 280.5zM440 1565l234 280l141 -143l-246 -205z" />
<glyph unicode="&#xdb;" horiz-adv-x="1642" d="M88 727l4 709h483l-6 -703q0 -127 55.5 -209t166.5 -82t180 82t69 209l2 703h484v-701q0 -150 -58.5 -281.5t-159 -231t-231.5 -157t-274 -57.5q-145 0 -274.5 56.5t-227.5 153.5t-155.5 228.5t-57.5 280.5zM424 1612l293 250l301 -250l-158 -94l-108 94h-64l-131 -94z " />
<glyph unicode="&#xdc;" horiz-adv-x="1642" d="M88 727l4 709h483l-6 -703q0 -127 55.5 -209t166.5 -82t180 82t69 209l2 703h484v-701q0 -150 -58.5 -281.5t-159 -231t-231.5 -157t-274 -57.5q-145 0 -274.5 56.5t-227.5 153.5t-155.5 228.5t-57.5 280.5zM514 1616q0 49 32 84t77 35t76.5 -35t31.5 -84t-31.5 -84 t-76.5 -35t-77 35t-32 84zM907 1618q0 49 32 84t77 35t76.5 -35t31.5 -84t-31.5 -84t-76.5 -35t-77 35t-32 84z" />
<glyph unicode="&#xdd;" horiz-adv-x="1959" d="M43 1432h524l355 -465l352 465h524l-624 -818v-614h-515v614zM643 1565l234 280l141 -143l-246 -205z" />
<glyph unicode="&#xde;" horiz-adv-x="1705" d="M109 0v1425h514v-241h507q84 -25 142.5 -87.5t89.5 -143.5t34 -173t-26 -175t-88 -147.5t-152 -90.5h-507v-367h-514zM623 614h284q66 12 96.5 59.5t28.5 102.5t-33.5 102.5t-91.5 59.5h-284v-324z" />
<glyph unicode="&#xdf;" horiz-adv-x="1705" d="M205 0v1434l921 -2q72 -4 119 -37t74 -88.5t34 -128t-1 -154.5q-10 -86 -52.5 -152.5t-134.5 -95.5q311 -61 324 -352q-4 -133 -33 -218t-76 -133t-110.5 -63.5t-136.5 -9.5h-172v256h18q147 29 154 168q-4 90 -46.5 132t-107.5 58v263q18 8 33.5 15t26 21.5t14.5 40 t4 70.5q10 72 -29 111t-117 51h-288l4 -1186h-422z" />
<glyph unicode="&#xe0;" horiz-adv-x="1234" d="M72 233q0 37 4 61.5t13 44t26.5 37t46.5 36.5q39 27 112.5 63.5t202.5 65.5q68 14 109 32.5t62.5 39t27.5 39t6 34.5q0 25 -11.5 37t-39 16t-75.5 -1t-124 -13q-39 -4 -95 -23.5t-109.5 -42t-91.5 -41t-38 -20.5t0 37t1 87t1 88t-2 40t26 23.5t81 53t128 57.5t165 34 q70 6 166 9t186 -15.5t156.5 -67.5t74.5 -149t4 -196.5t-12 -171.5t-15 -122t-3 -47q18 -4 28.5 -4t13.5 1t2 2t-1 -1t1 -42t2 -88t1 -87t-2 -39q-12 0 -55.5 -1t-96.5 -1t-106.5 4t-87.5 14q-16 6 -26.5 18.5t-16.5 25t-7.5 21.5t-1.5 7t-22.5 -17.5t-68.5 -33 t-116.5 -29.5t-162.5 -8q-66 2 -114 23.5t-81 54.5t-49 74t-16 81zM403 1292l142 144l284 -349h-180zM406 236q12 -49 36.5 -57.5t59.5 -2.5q16 2 48 14.5t63.5 26.5t58 28.5t33.5 22.5v158l-30 -7t-68 -16.5t-74.5 -19.5t-49.5 -16q-51 -23 -63 -52.5t-14 -78.5z" />
<glyph unicode="&#xe1;" horiz-adv-x="1234" d="M72 233q0 37 4 61.5t13 44t26.5 37t46.5 36.5q39 27 112.5 63.5t202.5 65.5q68 14 109 32.5t62.5 39t27.5 39t6 34.5q0 25 -11.5 37t-39 16t-75.5 -1t-124 -13q-39 -4 -95 -23.5t-109.5 -42t-91.5 -41t-38 -20.5t0 37t1 87t1 88t-2 40t26 23.5t81 53t128 57.5t165 34 q70 6 166 9t186 -15.5t156.5 -67.5t74.5 -149t4 -196.5t-12 -171.5t-15 -122t-3 -47q18 -4 28.5 -4t13.5 1t2 2t-1 -1t1 -42t2 -88t1 -87t-2 -39q-12 0 -55.5 -1t-96.5 -1t-106.5 4t-87.5 14q-16 6 -26.5 18.5t-16.5 25t-7.5 21.5t-1.5 7t-22.5 -17.5t-68.5 -33 t-116.5 -29.5t-162.5 -8q-66 2 -114 23.5t-81 54.5t-49 74t-16 81zM406 236q12 -49 36.5 -57.5t59.5 -2.5q16 2 48 14.5t63.5 26.5t58 28.5t33.5 22.5v158l-30 -7t-68 -16.5t-74.5 -19.5t-49.5 -16q-51 -23 -63 -52.5t-14 -78.5zM430 1155l234 281l141 -144l-246 -205z" />
<glyph unicode="&#xe2;" horiz-adv-x="1234" d="M72 233q0 37 4 61.5t13 44t26.5 37t46.5 36.5q39 27 112.5 63.5t202.5 65.5q68 14 109 32.5t62.5 39t27.5 39t6 34.5q0 25 -11.5 37t-39 16t-75.5 -1t-124 -13q-39 -4 -95 -23.5t-109.5 -42t-91.5 -41t-38 -20.5t0 37t1 87t1 88t-2 40t26 23.5t81 53t128 57.5t165 34 q70 6 166 9t186 -15.5t156.5 -67.5t74.5 -149t4 -196.5t-12 -171.5t-15 -122t-3 -47q18 -4 28.5 -4t13.5 1t2 2t-1 -1t1 -42t2 -88t1 -87t-2 -39q-12 0 -55.5 -1t-96.5 -1t-106.5 4t-87.5 14q-16 6 -26.5 18.5t-16.5 25t-7.5 21.5t-1.5 7t-22.5 -17.5t-68.5 -33 t-116.5 -29.5t-162.5 -8q-66 2 -114 23.5t-81 54.5t-49 74t-16 81zM319 1202l293 250l301 -250l-157 -94l-109 94h-63l-131 -94zM406 236q12 -49 36.5 -57.5t59.5 -2.5q16 2 48 14.5t63.5 26.5t58 28.5t33.5 22.5v158l-30 -7t-68 -16.5t-74.5 -19.5t-49.5 -16 q-51 -23 -63 -52.5t-14 -78.5z" />
<glyph unicode="&#xe3;" horiz-adv-x="1234" d="M72 233q0 37 4 61.5t13 44t26.5 37t46.5 36.5q39 27 112.5 63.5t202.5 65.5q68 14 109 32.5t62.5 39t27.5 39t6 34.5q0 25 -11.5 37t-39 16t-75.5 -1t-124 -13q-39 -4 -95 -23.5t-109.5 -42t-91.5 -41t-38 -20.5t0 37t1 87t1 88t-2 40t26 23.5t81 53t128 57.5t165 34 q70 6 166 9t186 -15.5t156.5 -67.5t74.5 -149t4 -196.5t-12 -171.5t-15 -122t-3 -47q18 -4 28.5 -4t13.5 1t2 2t-1 -1t1 -42t2 -88t1 -87t-2 -39q-12 0 -55.5 -1t-96.5 -1t-106.5 4t-87.5 14q-16 6 -26.5 18.5t-16.5 25t-7.5 21.5t-1.5 7t-22.5 -17.5t-68.5 -33 t-116.5 -29.5t-162.5 -8q-66 2 -114 23.5t-81 54.5t-49 74t-16 81zM246 1245q2 16 15 38t33.5 41t46.5 35.5t52 22.5q49 14 88 13.5t80 -15t90 -43t121 -71.5q25 -6 46.5 3t41 26.5t37.5 42t37 48.5q8 -33 27.5 -69.5t29.5 -65.5q-10 -27 -31.5 -56.5t-51 -53t-63.5 -36.5 t-67 -7q-47 4 -79.5 15t-63.5 28.5t-67 40t-89 47.5q-35 0 -60.5 -12.5t-48 -31t-44 -39t-43.5 -32.5q-2 2 -9.5 21.5t-14.5 42t-12 43t-1 24.5zM406 236q12 -49 36.5 -57.5t59.5 -2.5q16 2 48 14.5t63.5 26.5t58 28.5t33.5 22.5v158l-30 -7t-68 -16.5t-74.5 -19.5 t-49.5 -16q-51 -23 -63 -52.5t-14 -78.5z" />
<glyph unicode="&#xe4;" horiz-adv-x="1234" d="M72 233q0 37 4 61.5t13 44t26.5 37t46.5 36.5q39 27 112.5 63.5t202.5 65.5q68 14 109 32.5t62.5 39t27.5 39t6 34.5q0 25 -11.5 37t-39 16t-75.5 -1t-124 -13q-39 -4 -95 -23.5t-109.5 -42t-91.5 -41t-38 -20.5t0 37t1 87t1 88t-2 40t26 23.5t81 53t128 57.5t165 34 q70 6 166 9t186 -15.5t156.5 -67.5t74.5 -149t4 -196.5t-12 -171.5t-15 -122t-3 -47q18 -4 28.5 -4t13.5 1t2 2t-1 -1t1 -42t2 -88t1 -87t-2 -39q-12 0 -55.5 -1t-96.5 -1t-106.5 4t-87.5 14q-16 6 -26.5 18.5t-16.5 25t-7.5 21.5t-1.5 7t-22.5 -17.5t-68.5 -33 t-116.5 -29.5t-162.5 -8q-66 2 -114 23.5t-81 54.5t-49 74t-16 81zM311 1206q0 49 32 84t77 35t76.5 -35t31.5 -84t-31.5 -84t-76.5 -35t-77 35t-32 84zM406 236q12 -49 36.5 -57.5t59.5 -2.5q16 2 48 14.5t63.5 26.5t58 28.5t33.5 22.5v158l-30 -7t-68 -16.5t-74.5 -19.5 t-49.5 -16q-51 -23 -63 -52.5t-14 -78.5zM705 1208q0 49 31.5 84t76.5 35t77 -35t32 -84t-32 -83.5t-77 -34.5t-76.5 34.5t-31.5 83.5z" />
<glyph unicode="&#xe5;" horiz-adv-x="1234" d="M72 233q0 37 4 61.5t13 44t26.5 37t46.5 36.5q39 27 112.5 63.5t202.5 65.5q68 14 109 32.5t62.5 39t27.5 39t6 34.5q0 25 -11.5 37t-39 16t-75.5 -1t-124 -13q-39 -4 -95 -23.5t-109.5 -42t-91.5 -41t-38 -20.5t0 37t1 87t1 88t-2 40t26 23.5t81 53t128 57.5t165 34 q70 6 166 9t186 -15.5t156.5 -67.5t74.5 -149t4 -196.5t-12 -171.5t-15 -122t-3 -47q18 -4 28.5 -4t13.5 1t2 2t-1 -1t1 -42t2 -88t1 -87t-2 -39q-12 0 -55.5 -1t-96.5 -1t-106.5 4t-87.5 14q-16 6 -26.5 18.5t-16.5 25t-7.5 21.5t-1.5 7t-22.5 -17.5t-68.5 -33 t-116.5 -29.5t-162.5 -8q-66 2 -114 23.5t-81 54.5t-49 74t-16 81zM377 1223q0 39 19.5 74.5t53 62t78.5 42t95 15.5q49 0 92 -15.5t74.5 -42t49 -62t17.5 -74.5t-17.5 -76t-49 -66.5t-74.5 -47t-92 -17.5t-94.5 17.5t-79 47t-53 66.5t-19.5 76zM406 236q12 -49 36.5 -57.5 t59.5 -2.5q16 2 48 14.5t63.5 26.5t58 28.5t33.5 22.5v158l-30 -7t-68 -16.5t-74.5 -19.5t-49.5 -16q-51 -23 -63 -52.5t-14 -78.5zM483 1229q0 -41 40 -62.5t95 -21.5t93.5 21.5t38.5 62.5t-38 64.5t-94 23.5q-55 0 -95 -23.5t-40 -64.5z" />
<glyph unicode="&#xe6;" horiz-adv-x="2054" d="M72 233q0 37 4 61.5t13 44t26.5 37t46.5 36.5q39 27 112.5 63.5t202.5 65.5q68 14 109 32.5t62.5 39t27.5 39t6 34.5q0 25 -11.5 37t-39 16t-75.5 -1t-124 -13q-39 -4 -95 -23.5t-109.5 -42t-91.5 -41t-38 -20.5t0 37t1 87t1 88t-2 40t26 23.5t81 53t128 57.5t165 34 q47 4 109.5 7t127 0t127 -16.5t111.5 -41.5q66 29 150.5 43t191.5 14q113 0 203 -41t152.5 -111.5t95 -166t32.5 -203.5v-62l-688 2q14 -92 71.5 -148t135.5 -67q70 -8 148.5 3.5t149.5 32t122 44t65 39.5v-242q-125 -66 -251 -85t-255 -19q-102 0 -194 31q0 -6 -1 -12.5 t-1 -10.5v-8q-12 0 -55.5 -1t-96.5 -1t-106.5 4t-87.5 14q-16 4 -26.5 15.5t-16.5 24t-7 21.5l-2 9q-2 -4 -25.5 -19.5t-70.5 -32t-115.5 -27.5t-158.5 -7q-66 2 -114 23.5t-81 54.5t-49 74t-16 81zM406 236q12 -49 36.5 -57.5t59.5 -2.5q16 2 48 14.5t63.5 26.5t58 28.5 t33.5 22.5v158l-30 -7t-68 -16.5t-74.5 -19.5t-49.5 -16q-51 -23 -63 -52.5t-14 -78.5zM1108 573l356 -2v9q0 55 -6 86.5t-23.5 50t-46 25t-71.5 10.5q-98 8 -153.5 -28t-55.5 -144v-7z" />
<glyph unicode="&#xe7;" horiz-adv-x="1175" d="M90 481q0 109 39 207t111.5 173t175 119t231.5 44q119 0 224.5 -36t187.5 -97l-88 -211q-16 16 -51 29.5t-75 22.5t-80 14.5t-65 5.5q-49 0 -92 -18.5t-74.5 -50.5t-50 -74t-18.5 -91t18.5 -91t50 -72.5t74.5 -49t92 -18.5q27 0 66 5t79 15t74.5 23.5t51.5 31.5l116 -227 q-86 -72 -198.5 -103.5t-241.5 -31.5t-231.5 35t-175 97.5t-111.5 151.5t-39 197zM291 -469l90 135q43 -43 113 -43q31 0 61.5 9.5t55 25.5t40 37.5t15.5 44.5t-14.5 45t-38 39.5t-53.5 28t-60 10.5q-37 0 -70 -4t-51 -25v297h176v-131q96 0 159.5 -19.5t101.5 -54.5 t52.5 -86t14.5 -112q0 -49 -31 -93.5t-83 -77t-122.5 -51t-152.5 -18.5q-57 0 -107.5 11.5t-95.5 31.5z" />
<glyph unicode="&#xe8;" horiz-adv-x="1306" d="M74 518q0 109 31.5 201t104.5 159.5t189.5 106.5t288.5 39q113 0 203 -41t152.5 -111.5t95 -166t32.5 -203.5v-21v-41l-688 2q14 -92 71.5 -148t135.5 -67q70 -8 149 3.5t149.5 32t121.5 44t66 39.5v-242q-125 -66 -251 -85t-255 -19q-113 0 -220.5 40t-190.5 110.5 t-134 165t-51 202.5zM379 1292l141 144l285 -349h-180zM481 573l357 -2v9q0 55 -6.5 86.5t-23.5 50t-46 25t-72 10.5q-98 8 -153.5 -28t-55.5 -144v-7z" />
<glyph unicode="&#xe9;" horiz-adv-x="1306" d="M74 518q0 109 31.5 201t104.5 159.5t189.5 106.5t288.5 39q113 0 203 -41t152.5 -111.5t95 -166t32.5 -203.5v-21v-41l-688 2q14 -92 71.5 -148t135.5 -67q70 -8 149 3.5t149.5 32t121.5 44t66 39.5v-242q-125 -66 -251 -85t-255 -19q-113 0 -220.5 40t-190.5 110.5 t-134 165t-51 202.5zM336 1155l233 281l142 -144l-246 -205zM481 573l357 -2v9q0 55 -6.5 86.5t-23.5 50t-46 25t-72 10.5q-98 8 -153.5 -28t-55.5 -144v-7z" />
<glyph unicode="&#xea;" horiz-adv-x="1306" d="M74 518q0 109 31.5 201t104.5 159.5t189.5 106.5t288.5 39q113 0 203 -41t152.5 -111.5t95 -166t32.5 -203.5v-21v-41l-688 2q14 -92 71.5 -148t135.5 -67q70 -8 149 3.5t149.5 32t121.5 44t66 39.5v-242q-125 -66 -251 -85t-255 -19q-113 0 -220.5 40t-190.5 110.5 t-134 165t-51 202.5zM315 1202l293 250l301 -250l-157 -94l-109 94h-63l-131 -94zM481 573l357 -2v9q0 55 -6.5 86.5t-23.5 50t-46 25t-72 10.5q-98 8 -153.5 -28t-55.5 -144v-7z" />
<glyph unicode="&#xeb;" horiz-adv-x="1306" d="M74 518q0 109 31.5 201t104.5 159.5t189.5 106.5t288.5 39q113 0 203 -41t152.5 -111.5t95 -166t32.5 -203.5v-21v-41l-688 2q14 -92 71.5 -148t135.5 -67q70 -8 149 3.5t149.5 32t121.5 44t66 39.5v-242q-125 -66 -251 -85t-255 -19q-113 0 -220.5 40t-190.5 110.5 t-134 165t-51 202.5zM406 1206q0 49 31.5 84t76.5 35t77 -35t32 -84t-32 -84t-77 -35t-76.5 35t-31.5 84zM481 573l357 -2v9q0 55 -6.5 86.5t-23.5 50t-46 25t-72 10.5q-98 8 -153.5 -28t-55.5 -144v-7zM799 1208q0 49 31.5 84t76.5 35t77 -35t32 -84t-32 -83.5t-77 -34.5 t-76.5 34.5t-31.5 83.5z" />
<glyph unicode="&#xec;" horiz-adv-x="720" d="M131 0v1024h461v-1024h-461zM147 1292l142 144l284 -349h-180z" />
<glyph unicode="&#xed;" horiz-adv-x="733" d="M137 0v1024h461v-1024h-461zM184 1155l234 281l141 -144l-246 -205z" />
<glyph unicode="&#xee;" horiz-adv-x="798" d="M102 1202l293 250l301 -250l-157 -94l-109 94h-63l-131 -94zM170 0v1024h461v-1024h-461z" />
<glyph unicode="&#xef;" horiz-adv-x="815" d="M102 1206q0 49 32 84t77 35t76.5 -35t31.5 -84t-31.5 -84t-76.5 -35t-77 35t-32 84zM178 0v1024h461v-1024h-461zM496 1208q0 49 31.5 84t76.5 35t77 -35t32 -84t-32 -83.5t-77 -34.5t-76.5 34.5t-31.5 83.5z" />
<glyph unicode="&#xf0;" horiz-adv-x="1398" d="M80 539q6 137 70.5 220t155.5 126t193.5 53t200.5 0l60 4l-133 129l-146 -110h-364l313 213l-313 262h375l135 -172l137 172h375l-312 -262q354 -279 377 -320t38 -86t22.5 -100.5t7.5 -130.5q0 -256 -142.5 -396.5t-443.5 -140.5q-299 0 -457.5 141.5t-148.5 397.5z M440 512q-4 -45 17.5 -86t57.5 -70.5t83 -47t96 -17.5q98 0 153.5 64.5t63.5 156.5q45 219 -217 219q-47 0 -91 -17.5t-79 -47t-57.5 -69.5t-26.5 -85z" />
<glyph unicode="&#xf1;" horiz-adv-x="1282" d="M106 -6v1030h416v-76q47 31 104.5 48.5t121.5 17.5q92 0 184 -36t147 -99q66 -72 85.5 -135.5t19.5 -129.5v-620h-414v696q-10 47 -45 75t-84 28q-53 0 -74.5 -28t-44.5 -75v-696h-416zM270 1245q2 16 15.5 38t34 41t46 35.5t52.5 22.5q49 14 88 13.5t80 -15t90 -43 t121 -71.5q25 -6 46 3t40.5 26.5t38 42t36.5 48.5q8 -33 28 -69.5t30 -65.5q-10 -27 -31.5 -56.5t-51.5 -53t-63.5 -36.5t-66.5 -7q-47 4 -80 15t-63.5 28.5t-66.5 40t-89 47.5q-35 0 -60.5 -12.5t-48 -31t-44 -39t-44.5 -32.5q-2 2 -9 21.5t-14.5 42t-12.5 43t-1 24.5z" />
<glyph unicode="&#xf2;" horiz-adv-x="1329" d="M102 504q0 104 44 198.5t120 167t178.5 114.5t219.5 42t219 -42t179 -114.5t121 -167t44 -198.5t-44 -196.5t-121 -160t-179.5 -107.5t-218.5 -40q-117 0 -219.5 40t-178.5 107.5t-120 160t-44 196.5zM451 1292l141 144l285 -349h-181zM469 496q0 -94 53 -153.5 t140 -59.5q86 0 138 63.5t52 157.5q0 47 -13.5 91t-39 79t-60 55.5t-77.5 20.5t-79 -22.5t-60.5 -58.5t-39 -81t-14.5 -92z" />
<glyph unicode="&#xf3;" horiz-adv-x="1329" d="M102 504q0 104 44 198.5t120 167t178.5 114.5t219.5 42t219 -42t179 -114.5t121 -167t44 -198.5t-44 -196.5t-121 -160t-179.5 -107.5t-218.5 -40q-117 0 -219.5 40t-178.5 107.5t-120 160t-44 196.5zM469 496q0 -94 53 -153.5t140 -59.5q86 0 138 63.5t52 157.5 q0 47 -13.5 91t-39 79t-60 55.5t-77.5 20.5t-79 -22.5t-60.5 -58.5t-39 -81t-14.5 -92zM477 1155l234 281l141 -144l-246 -205z" />
<glyph unicode="&#xf4;" horiz-adv-x="1329" d="M74 504q0 104 44 198.5t119.5 167t178 114.5t219.5 42t219 -42t179 -114.5t121 -167t44 -198.5t-44 -196.5t-121 -160t-179 -107.5t-219 -40t-219.5 40t-178 107.5t-119.5 160t-44 196.5zM283 1202l292 250l302 -250l-158 -94l-109 94h-63l-131 -94zM440 496 q0 -94 53.5 -153.5t139.5 -59.5t138 63.5t52 157.5q0 47 -13 91t-39 79t-60.5 55.5t-77.5 20.5t-79 -22.5t-60.5 -58.5t-39 -81t-14.5 -92z" />
<glyph unicode="&#xf5;" horiz-adv-x="1329" d="M74 504q0 104 44 198.5t119.5 167t178 114.5t219.5 42t219 -42t179 -114.5t121 -167t44 -198.5t-44 -196.5t-121 -160t-179 -107.5t-219 -40t-219.5 40t-178 107.5t-119.5 160t-44 196.5zM256 1245q2 16 15.5 38t34 41t46 35.5t51.5 22.5q49 14 88 13.5t80 -15t90.5 -43 t120.5 -71.5q25 -6 46.5 3t41 26.5t38 42t36.5 48.5q8 -33 27.5 -69.5t29.5 -65.5q-10 -27 -31.5 -56.5t-51 -53t-63.5 -36.5t-67 -7q-47 4 -79.5 15t-63.5 28.5t-66.5 40t-89.5 47.5q-35 0 -60.5 -12.5t-48 -31t-44 -39t-43.5 -32.5q-2 2 -9.5 21.5t-14.5 42t-12 43 t-1 24.5zM440 496q0 -94 53.5 -153.5t139.5 -59.5t138 63.5t52 157.5q0 47 -13 91t-39 79t-60.5 55.5t-77.5 20.5t-79 -22.5t-60.5 -58.5t-39 -81t-14.5 -92z" />
<glyph unicode="&#xf6;" horiz-adv-x="1329" d="M74 504q0 104 44 198.5t119.5 167t178 114.5t219.5 42t219 -42t179 -114.5t121 -167t44 -198.5t-44 -196.5t-121 -160t-179 -107.5t-219 -40t-219.5 40t-178 107.5t-119.5 160t-44 196.5zM373 1206q0 49 31.5 84t76.5 35t77 -35t32 -84t-32 -84t-77 -35t-76.5 35 t-31.5 84zM440 496q0 -94 53.5 -153.5t139.5 -59.5t138 63.5t52 157.5q0 47 -13 91t-39 79t-60.5 55.5t-77.5 20.5t-79 -22.5t-60.5 -58.5t-39 -81t-14.5 -92zM766 1208q0 49 31.5 84t76.5 35t77 -35t32 -84t-31.5 -83.5t-77.5 -34.5q-45 0 -76.5 34.5t-31.5 83.5z" />
<glyph unicode="&#xf7;" horiz-adv-x="1062" d="M106 412v166h859v-166h-859zM336 811q0 59 44 101t109 42q66 0 111 -42t45 -101t-45 -101t-111 -42t-109.5 42t-43.5 101zM338 143q0 59 44 101.5t110 42.5t110.5 -42t44.5 -102q0 -59 -45 -101t-110 -42q-66 0 -110 42t-44 101z" />
<glyph unicode="&#xf8;" horiz-adv-x="1329" d="M74 504q0 104 44 198.5t119.5 167t178 114.5t219.5 42t219 -42t179 -114.5t121 -167t44 -198.5t-44 -196.5t-121 -160t-179 -107.5t-219 -40t-219.5 40t-178 107.5t-119.5 160t-44 196.5zM262 -176l615 1425h186l-614 -1425h-187zM440 496q0 -94 53.5 -153.5t139.5 -59.5 t138 63.5t52 157.5q0 47 -13 91t-39 79t-60.5 55.5t-77.5 20.5t-79 -22.5t-60.5 -58.5t-39 -81t-14.5 -92z" />
<glyph unicode="&#xf9;" horiz-adv-x="1282" d="M94 403v621h414v-696q10 -47 45 -75t84 -28q53 0 74.5 28t44.5 75v696h415v-1030h-415v76q-47 -31 -104.5 -48.5t-121.5 -17.5q-92 0 -184 36t-147 99q-66 72 -85.5 135.5t-19.5 128.5zM309 1292l142 144l284 -349h-180z" />
<glyph unicode="&#xfa;" horiz-adv-x="1282" d="M94 403v621h414v-696q10 -47 45 -75t84 -28q53 0 74.5 28t44.5 75v696h415v-1030h-415v76q-47 -31 -104.5 -48.5t-121.5 -17.5q-92 0 -184 36t-147 99q-66 72 -85.5 135.5t-19.5 128.5zM266 1155l234 281l141 -144l-246 -205z" />
<glyph unicode="&#xfb;" horiz-adv-x="1282" d="M94 403v621h414v-696q10 -47 45 -75t84 -28q53 0 74.5 28t44.5 75v696h415v-1030h-415v76q-47 -31 -104.5 -48.5t-121.5 -17.5q-92 0 -184 36t-147 99q-66 72 -85.5 135.5t-19.5 128.5zM246 1202l293 250l301 -250l-158 -94l-109 94h-63l-131 -94z" />
<glyph unicode="&#xfc;" horiz-adv-x="1282" d="M94 403v621h414v-696q10 -47 45 -75t84 -28q53 0 74.5 28t44.5 75v696h415v-1030h-415v76q-47 -31 -104.5 -48.5t-121.5 -17.5q-92 0 -184 36t-147 99q-66 72 -85.5 135.5t-19.5 128.5zM336 1206q0 49 31.5 84t76.5 35t77 -35t32 -84t-32 -84t-77 -35t-76.5 35t-31.5 84z M729 1208q0 49 32 84t77 35t76.5 -35t31.5 -84t-31.5 -83.5t-76.5 -34.5t-77 34.5t-32 83.5z" />
<glyph unicode="&#xfd;" horiz-adv-x="1398" d="M82 1024h434l166 -365l160 365h434l-698 -1434h-428l305 686zM301 1155l234 281l141 -144l-246 -205z" />
<glyph unicode="&#xfe;" horiz-adv-x="1230" d="M57 -412v1844h441v-482q35 33 75.5 50.5t122.5 17.5q59 2 138 -22.5t152 -86t124 -162t55 -247.5q2 -121 -34.5 -213t-99 -153.5t-141.5 -95.5t-159 -38q-53 -4 -120.5 5t-112.5 18v-435h-441zM498 332q129 -41 200.5 -3t71.5 169q0 66 -9 111.5t-39 71.5t-83 30 t-141 -15v-364z" />
<glyph unicode="&#xff;" horiz-adv-x="1398" d="M82 1024h434l166 -365l160 365h434l-698 -1434h-428l305 686zM371 1206q0 49 31.5 84t76.5 35t77 -35t32 -84t-32 -84t-77 -35t-76.5 35t-31.5 84zM764 1208q0 49 31.5 84t76.5 35t77 -35t32 -84t-31.5 -83.5t-77.5 -34.5q-45 0 -76.5 34.5t-31.5 83.5z" />
<glyph unicode="&#x100;" horiz-adv-x="1871" d="M53 0l619 1434h528l619 -1434h-539l-102 256h-484l-102 -256h-539zM543 1675v160h786v-160h-786zM784 455h303l-151 569z" />
<glyph unicode="&#x101;" horiz-adv-x="1185" d="M72 233q0 37 4 61.5t13 44t26.5 37t46.5 36.5q39 27 112.5 63.5t202.5 65.5q68 14 109 32.5t62.5 39t27.5 39t6 34.5q0 25 -11.5 37t-39 16t-75.5 -1t-124 -13q-39 -4 -95 -23.5t-109.5 -42t-91.5 -41t-38 -20.5t0 37t1 87t1 88t-2 40t26 23.5t81 53t128 57.5t165 34 q70 6 166 9t186 -15.5t156.5 -67.5t74.5 -149t4 -196.5t-12 -171.5t-15 -122t-3 -47q18 -4 28.5 -4t13.5 1t2 2t-1 -1t1 -42t2 -88t1 -87t-2 -39q-12 0 -55.5 -1t-96.5 -1t-106.5 4t-87.5 14q-16 6 -26.5 18.5t-16.5 25t-7.5 21.5t-1.5 7t-22.5 -17.5t-68.5 -33 t-116.5 -29.5t-162.5 -8q-66 2 -114 23.5t-81 54.5t-49 74t-16 81zM199 1266v159h786v-159h-786zM406 236q12 -49 36.5 -57.5t59.5 -2.5q16 2 48 14.5t63.5 26.5t58 28.5t33.5 22.5v158l-30 -7t-68 -16.5t-74.5 -19.5t-49.5 -16q-51 -23 -63 -52.5t-14 -78.5z" />
<glyph unicode="&#x102;" horiz-adv-x="1871" d="M53 0l619 1434h528l619 -1434h-539l-102 256h-484l-102 -256h-539zM680 1640v119h115v-102l26 -33h244l22 21v114h103v-121q-25 -96 -125 -118h-262q-43 14 -75 41.5t-48 78.5zM784 455h303l-151 569z" />
<glyph unicode="&#x103;" horiz-adv-x="1185" d="M72 233q0 37 4 61.5t13 44t26.5 37t46.5 36.5q39 27 112.5 63.5t202.5 65.5q68 14 109 32.5t62.5 39t27.5 39t6 34.5q0 25 -11.5 37t-39 16t-75.5 -1t-124 -13q-39 -4 -95 -23.5t-109.5 -42t-91.5 -41t-38 -20.5t0 37t1 87t1 88t-2 40t26 23.5t81 53t128 57.5t165 34 q70 6 166 9t186 -15.5t156.5 -67.5t74.5 -149t4 -196.5t-12 -171.5t-15 -122t-3 -47q18 -4 28.5 -4t13.5 1t2 2t-1 -1t1 -42t2 -88t1 -87t-2 -39q-12 0 -55.5 -1t-96.5 -1t-106.5 4t-87.5 14q-16 6 -26.5 18.5t-16.5 25t-7.5 21.5t-1.5 7t-22.5 -17.5t-68.5 -33 t-116.5 -29.5t-162.5 -8q-66 2 -114 23.5t-81 54.5t-49 74t-16 81zM340 1231v119h115v-103l26 -33h244l23 21v115h102v-121q-25 -96 -125 -119h-262q-43 14 -75 42t-48 79zM406 236q12 -49 36.5 -57.5t59.5 -2.5q16 2 48 14.5t63.5 26.5t58 28.5t33.5 22.5v158l-30 -7 t-68 -16.5t-74.5 -19.5t-49.5 -16q-51 -23 -63 -52.5t-14 -78.5z" />
<glyph unicode="&#x104;" horiz-adv-x="1871" d="M53 0l619 1434h528l619 -1434h-539l-102 256h-484l-102 -256h-539zM784 455h303l-151 569zM1223 -274q0 61 14 112t52 86t101.5 54.5t159.5 19.5v131h187v-328q-18 20 -53 32.5t-72 12.5q-59 0 -102.5 -32.5t-43.5 -79.5t43 -80t103 -33q70 0 112 43l95 -162 q-45 -20 -95.5 -31.5t-107.5 -11.5q-82 0 -152.5 22.5t-124 60.5t-85 86t-31.5 98z" />
<glyph unicode="&#x105;" horiz-adv-x="1185" d="M72 233q0 37 4 61.5t13 44t26.5 37t46.5 36.5q39 27 112.5 63.5t202.5 65.5q68 14 109 32.5t62.5 39t27.5 39t6 34.5q0 25 -11.5 37t-39 16t-75.5 -1t-124 -13q-39 -4 -95 -23.5t-109.5 -42t-91.5 -41t-38 -20.5t0 37t1 87t1 88t-2 40t26 23.5t81 53t128 57.5t165 34 q70 6 166 9t186 -15.5t156.5 -67.5t74.5 -149t4 -196.5t-12 -171.5t-15 -122t-3 -47q18 -4 28.5 -4t13.5 1t2 2t-1 -1t1 -42t2 -88t1 -87t-2 -39q-12 0 -55.5 -1t-96.5 -1t-106.5 4t-87.5 14q-16 6 -26.5 18.5t-16.5 25t-7.5 21.5t-1.5 7t-22.5 -17.5t-68.5 -33 t-116.5 -29.5t-162.5 -8q-66 2 -114 23.5t-81 54.5t-49 74t-16 81zM406 236q12 -49 36.5 -57.5t59.5 -2.5q16 2 48 14.5t63.5 26.5t58 28.5t33.5 22.5v158l-30 -7t-68 -16.5t-74.5 -19.5t-49.5 -16q-51 -23 -63 -52.5t-14 -78.5zM506 -274q0 61 14.5 112t52 86t101 54.5 t160.5 19.5v131h186v-328q-18 20 -53 32.5t-72 12.5q-59 0 -102 -32.5t-43 -79.5t43 -80t102 -33q70 0 113 43l94 -162q-45 -20 -95.5 -31.5t-107.5 -11.5q-82 0 -152.5 22.5t-124 60.5t-85 86t-31.5 98z" />
<glyph unicode="&#x106;" horiz-adv-x="1554" d="M70 717q0 147 64.5 278t177 228.5t264 154t323.5 56.5q170 0 318.5 -55.5t261.5 -151.5l-277 -365q-33 98 -114.5 130t-186.5 32q-66 0 -123 -23.5t-100 -64.5t-68.5 -96.5t-25.5 -116.5t25.5 -116.5t68.5 -96.5t100.5 -64.5t122.5 -23.5q94 0 171 49t122 141l270 -415 q-113 -94 -256 -145.5t-309 -51.5q-172 0 -323.5 56.5t-264 153.5t-177 228t-64.5 279zM590 1565l233 280l142 -143l-246 -205z" />
<glyph unicode="&#x107;" horiz-adv-x="1118" d="M47 481q0 109 39 207t111.5 173t175 119t231.5 44q119 0 224.5 -36t187.5 -97l-88 -211q-16 16 -51 29.5t-75 22.5t-80 14.5t-65 5.5q-49 0 -92 -18.5t-74.5 -50.5t-50 -74t-18.5 -91t18.5 -91t50 -72.5t74.5 -49t92 -18.5q27 0 66 5t79 15t74.5 23.5t51.5 31.5l116 -227 q-86 -72 -198.5 -103.5t-241.5 -31.5t-231.5 35t-175 97.5t-111.5 151.5t-39 197zM371 1155l233 281l141 -144l-245 -205z" />
<glyph unicode="&#x108;" horiz-adv-x="1554" d="M70 717q0 147 64.5 278t177 228.5t264 154t323.5 56.5q170 0 318.5 -55.5t261.5 -151.5l-277 -365q-33 98 -114.5 130t-186.5 32q-66 0 -123 -23.5t-100 -64.5t-68.5 -96.5t-25.5 -116.5t25.5 -116.5t68.5 -96.5t100.5 -64.5t122.5 -23.5q94 0 171 49t122 141l270 -415 q-113 -94 -256 -145.5t-309 -51.5q-172 0 -323.5 56.5t-264 153.5t-177 228t-64.5 279zM479 1612l293 250l301 -250l-158 -94l-108 94h-64l-131 -94z" />
<glyph unicode="&#x109;" horiz-adv-x="1118" d="M47 481q0 109 39 207t111.5 173t175 119t231.5 44q119 0 224.5 -36t187.5 -97l-88 -211q-16 16 -51 29.5t-75 22.5t-80 14.5t-65 5.5q-49 0 -92 -18.5t-74.5 -50.5t-50 -74t-18.5 -91t18.5 -91t50 -72.5t74.5 -49t92 -18.5q27 0 66 5t79 15t74.5 23.5t51.5 31.5l116 -227 q-86 -72 -198.5 -103.5t-241.5 -31.5t-231.5 35t-175 97.5t-111.5 151.5t-39 197zM262 1202l293 250l301 -250l-158 -94l-108 94h-64l-131 -94z" />
<glyph unicode="&#x10a;" horiz-adv-x="1554" d="M70 717q0 147 64.5 278t177 228.5t264 154t323.5 56.5q170 0 318.5 -55.5t261.5 -151.5l-277 -365q-33 98 -114.5 130t-186.5 32q-66 0 -123 -23.5t-100 -64.5t-68.5 -96.5t-25.5 -116.5t25.5 -116.5t68.5 -96.5t100.5 -64.5t122.5 -23.5q94 0 171 49t122 141l270 -415 q-113 -94 -256 -145.5t-309 -51.5q-172 0 -323.5 56.5t-264 153.5t-177 228t-64.5 279zM680 1606q0 37 27.5 63.5t68.5 26.5t69.5 -27t28.5 -63q0 -37 -28.5 -63.5t-69.5 -26.5t-68.5 26.5t-27.5 63.5z" />
<glyph unicode="&#x10b;" horiz-adv-x="1118" d="M47 481q0 109 39 207t111.5 173t175 119t231.5 44q119 0 224.5 -36t187.5 -97l-88 -211q-16 16 -51 29.5t-75 22.5t-80 14.5t-65 5.5q-49 0 -92 -18.5t-74.5 -50.5t-50 -74t-18.5 -91t18.5 -91t50 -72.5t74.5 -49t92 -18.5q27 0 66 5t79 15t74.5 23.5t51.5 31.5l116 -227 q-86 -72 -198.5 -103.5t-241.5 -31.5t-231.5 35t-175 97.5t-111.5 151.5t-39 197zM465 1196q0 37 27.5 63.5t68.5 26.5t69.5 -26.5t28.5 -63.5t-28.5 -63.5t-69.5 -26.5t-68.5 26.5t-27.5 63.5z" />
<glyph unicode="&#x10c;" horiz-adv-x="1554" d="M70 717q0 147 64.5 278t177 228.5t264 154t323.5 56.5q170 0 318.5 -55.5t261.5 -151.5l-277 -365q-33 98 -114.5 130t-186.5 32q-66 0 -123 -23.5t-100 -64.5t-68.5 -96.5t-25.5 -116.5t25.5 -116.5t68.5 -96.5t100.5 -64.5t122.5 -23.5q94 0 171 49t122 141l270 -415 q-113 -94 -256 -145.5t-309 -51.5q-172 0 -323.5 56.5t-264 153.5t-177 228t-64.5 279zM479 1767l133 95l131 -113h64l108 113l158 -95l-301 -249z" />
<glyph unicode="&#x10d;" horiz-adv-x="1118" d="M47 481q0 109 39 207t111.5 173t175 119t231.5 44q119 0 224.5 -36t187.5 -97l-88 -211q-16 16 -51 29.5t-75 22.5t-80 14.5t-65 5.5q-49 0 -92 -18.5t-74.5 -50.5t-50 -74t-18.5 -91t18.5 -91t50 -72.5t74.5 -49t92 -18.5q27 0 66 5t79 15t74.5 23.5t51.5 31.5l116 -227 q-86 -72 -198.5 -103.5t-241.5 -31.5t-231.5 35t-175 97.5t-111.5 151.5t-39 197zM262 1358l133 94l131 -113h64l108 113l158 -94l-301 -250z" />
<glyph unicode="&#x10e;" horiz-adv-x="1640" d="M98 0v1434h547q8 0 50 1t105.5 -2t143.5 -15.5t163 -40t162 -74t141.5 -120t103 -176t45.5 -241.5q8 -211 -59.5 -350.5t-185.5 -224.5t-270.5 -125.5t-317.5 -56t-329 -13.5t-299 4zM522 1767l133 95l131 -113h64l108 113l158 -95l-301 -249zM612 375q37 -2 109 4 t144.5 40t127 105.5t58.5 198.5q2 100 -28 164.5t-76 102.5t-101 53.5t-102.5 19.5t-63.5 3l-49 -5q-2 0 -19 -4v-682z" />
<glyph unicode="&#x10f;" horiz-adv-x="1648" d="M47 520q-4 121 34 213t100.5 153.5t141 95.5t158.5 38q53 2 120 -6t114 -17v435h440v-1432h-440v70q-35 -33 -76 -50.5t-123 -17.5q-94 0 -178 35t-147.5 101.5t-102.5 162.5t-41 219zM442 522q0 -66 9.5 -111.5t39 -71.5t83 -30t141.5 15v364q-129 41 -201 3t-72 -169z M1335 1044q-2 0 13.5 4.5t56.5 26.5q25 12 33 31.5t10 38.5q-47 6 -78 46t-31 95q0 59 36 101.5t87 42.5q53 0 89 -42t38 -102q4 -47 -2 -94q-4 -41 -19.5 -88t-49.5 -88q-18 -23 -42 -40.5t-43.5 -28.5t-34 -16t-14.5 -3t-7 20.5t-16 40t-17 38.5z" />
<glyph unicode="&#x110;" horiz-adv-x="1640" d="M4 621v159h787v-159h-787zM98 0v1434h547q8 0 50 1t105.5 -2t143.5 -15.5t163 -40t162 -74t141.5 -120t103 -176t45.5 -241.5q8 -211 -59.5 -350.5t-185.5 -224.5t-270.5 -125.5t-317.5 -56t-329 -13.5t-299 4zM612 375q37 -2 109 4t144.5 40t127 105.5t58.5 198.5 q2 100 -28 164.5t-76 102.5t-101 53.5t-102.5 19.5t-63.5 3l-49 -5q-2 0 -19 -4v-682z" />
<glyph unicode="&#x111;" horiz-adv-x="1263" d="M47 520q-4 121 34 213t100.5 153.5t141 95.5t158.5 38q53 2 120 -6t114 -17v435h440v-1432h-440v70q-35 -33 -76 -50.5t-123 -17.5q-94 0 -178 35t-147.5 101.5t-102.5 162.5t-41 219zM442 522q0 -66 9.5 -111.5t39 -71.5t83 -30t141.5 15v364q-129 41 -201 3t-72 -169z M582 436v158h667v-158h-667z" />
<glyph unicode="&#x112;" horiz-adv-x="1198" d="M109 0v1434l1019 -2v-246h-505v-324h467v-248h-467v-358h512v-256h-1026zM205 1675v160h786v-160h-786z" />
<glyph unicode="&#x113;" horiz-adv-x="1261" d="M74 518q0 109 31.5 201t104.5 159.5t189.5 106.5t288.5 39q113 0 203 -41t152.5 -111.5t95 -166t32.5 -203.5v-21v-41l-688 2q14 -92 71.5 -148t135.5 -67q70 -8 149 3.5t149.5 32t121.5 44t66 39.5v-242q-125 -66 -251 -85t-255 -19q-113 0 -220.5 40t-190.5 110.5 t-134 165t-51 202.5zM238 1266v159h786v-159h-786zM481 573l357 -2v9q0 55 -6.5 86.5t-23.5 50t-46 25t-72 10.5q-98 8 -153.5 -28t-55.5 -144v-7z" />
<glyph unicode="&#x114;" horiz-adv-x="1198" d="M109 0v1434l1019 -2v-246h-505v-324h467v-248h-467v-358h512v-256h-1026zM346 1640v119h115v-102l26 -33h244l23 21v114h102v-121q-25 -96 -125 -118h-262q-43 14 -75 41.5t-48 78.5z" />
<glyph unicode="&#x115;" horiz-adv-x="1261" d="M74 518q0 109 31.5 201t104.5 159.5t189.5 106.5t288.5 39q113 0 203 -41t152.5 -111.5t95 -166t32.5 -203.5v-21v-41l-688 2q14 -92 71.5 -148t135.5 -67q70 -8 149 3.5t149.5 32t121.5 44t66 39.5v-242q-125 -66 -251 -85t-255 -19q-113 0 -220.5 40t-190.5 110.5 t-134 165t-51 202.5zM340 1231v119h115v-103l26 -33h244l23 21v115h102v-121q-25 -96 -125 -119h-262q-43 14 -75 42t-48 79zM481 573l357 -2v9q0 55 -6.5 86.5t-23.5 50t-46 25t-72 10.5q-98 8 -153.5 -28t-55.5 -144v-7z" />
<glyph unicode="&#x116;" horiz-adv-x="1198" d="M109 0v1434l1019 -2v-246h-505v-324h467v-248h-467v-358h512v-256h-1026zM504 1606q0 37 27.5 63.5t68.5 26.5t69.5 -27t28.5 -63q0 -37 -28.5 -63.5t-69.5 -26.5t-68.5 26.5t-27.5 63.5z" />
<glyph unicode="&#x117;" horiz-adv-x="1261" d="M74 518q0 109 31.5 201t104.5 159.5t189.5 106.5t288.5 39q113 0 203 -41t152.5 -111.5t95 -166t32.5 -203.5v-21v-41l-688 2q14 -92 71.5 -148t135.5 -67q70 -8 149 3.5t149.5 32t121.5 44t66 39.5v-242q-125 -66 -251 -85t-255 -19q-113 0 -220.5 40t-190.5 110.5 t-134 165t-51 202.5zM481 573l357 -2v9q0 55 -6.5 86.5t-23.5 50t-46 25t-72 10.5q-98 8 -153.5 -28t-55.5 -144v-7zM537 1196q0 37 27.5 63.5t68.5 26.5t69.5 -26.5t28.5 -63.5t-28.5 -63.5t-69.5 -26.5t-68.5 26.5t-27.5 63.5z" />
<glyph unicode="&#x118;" horiz-adv-x="1198" d="M109 0v1434l1019 -2v-246h-505v-324h467v-248h-467v-358h512v-256h-1026zM539 -274q0 61 14 112t52 86t101.5 54.5t159.5 19.5v131h187v-328q-18 20 -53 32.5t-72 12.5q-59 0 -102.5 -32.5t-43.5 -79.5t43 -80t103 -33q70 0 112 43l95 -162q-45 -20 -95.5 -31.5 t-107.5 -11.5q-82 0 -152.5 22.5t-124 60.5t-85 86t-31.5 98z" />
<glyph unicode="&#x119;" horiz-adv-x="1261" d="M74 518q0 109 31.5 201t104.5 159.5t189.5 106.5t288.5 39q113 0 203 -41t152.5 -111.5t95 -166t32.5 -203.5v-21v-41l-688 2q14 -92 71.5 -148t135.5 -67q70 -8 149 3.5t149.5 32t121.5 44t66 39.5v-242q-125 -66 -251 -85t-255 -19q-113 0 -220.5 40t-190.5 110.5 t-134 165t-51 202.5zM481 573l357 -2v9q0 55 -6.5 86.5t-23.5 50t-46 25t-72 10.5q-98 8 -153.5 -28t-55.5 -144v-7zM580 -274q0 61 14 112t52 86t101.5 54.5t159.5 19.5v131h187v-328q-18 20 -53 32.5t-72 12.5q-59 0 -102.5 -32.5t-43.5 -79.5t43 -80t103 -33q70 0 112 43 l95 -162q-45 -20 -95.5 -31.5t-107.5 -11.5q-82 0 -152.5 22.5t-124 60.5t-85 86t-31.5 98z" />
<glyph unicode="&#x11a;" horiz-adv-x="1198" d="M109 0v1434l1019 -2v-246h-505v-324h467v-248h-467v-358h512v-256h-1026zM301 1767l133 95l131 -113h64l108 113l158 -95l-301 -249z" />
<glyph unicode="&#x11b;" horiz-adv-x="1261" d="M74 518q0 109 31.5 201t104.5 159.5t189.5 106.5t288.5 39q113 0 203 -41t152.5 -111.5t95 -166t32.5 -203.5v-21v-41l-688 2q14 -92 71.5 -148t135.5 -67q70 -8 149 3.5t149.5 32t121.5 44t66 39.5v-242q-125 -66 -251 -85t-255 -19q-113 0 -220.5 40t-190.5 110.5 t-134 165t-51 202.5zM334 1358l133 94l131 -113h64l108 113l158 -94l-301 -250zM481 573l357 -2v9q0 55 -6.5 86.5t-23.5 50t-46 25t-72 10.5q-98 8 -153.5 -28t-55.5 -144v-7z" />
<glyph unicode="&#x11c;" horiz-adv-x="1732" d="M74 717q0 147 61.5 278t168 228.5t249.5 154t307 56.5q102 0 218 -24t224.5 -65.5t198.5 -101t144 -131.5l-549 -188q-6 37 -29 57t-55.5 29.5t-71.5 11.5t-78 2q-61 0 -116.5 -23.5t-96.5 -64.5t-64.5 -96.5t-23.5 -116.5t23.5 -122.5t63.5 -111t94.5 -79t115.5 -29.5 q49 0 98.5 7t90 26.5t69.5 52.5t37 86h-276v168h768l-5 -721h-419v80q-82 -39 -172.5 -59.5t-188.5 -20.5q-164 0 -307 56.5t-249.5 153.5t-168 228t-61.5 279zM569 1612l293 250l301 -250l-157 -94l-109 94h-63l-132 -94z" />
<glyph unicode="&#x11d;" horiz-adv-x="1265" d="M90 590q0 92 34 173t102.5 141.5t172 96t242.5 37.5q84 2 157.5 -23.5t135.5 -68.5q16 35 47 56.5t72 21.5q53 0 92 -39t39 -92q0 -45 -28 -80t-69 -47q41 -82 41 -174q0 -109 -34.5 -185.5t-94 -127t-139.5 -74t-170 -25.5q-117 4 -166 -7t-43 -25.5t62.5 -25.5 t154.5 -5q238 -29 341.5 -94.5t103.5 -172.5q0 -55 -38 -104t-102.5 -86t-152.5 -58.5t-186 -21.5t-187.5 13.5t-155 39t-104.5 66.5t-39 96q0 31 25.5 60.5t66.5 52t91.5 39t99.5 20.5q-152 20 -217.5 57t-68.5 77t46 77t125 58q-59 0 -107.5 35.5t-81 88t-50 114 t-17.5 116.5zM336 1202l293 250l301 -250l-158 -94l-108 94h-64l-131 -94zM477 -162q0 -41 50.5 -70.5t121.5 -29.5q72 0 122 29.5t50 70.5t-50 71t-122 30t-122 -30t-50 -71zM489 614q0 -78 34 -134t118 -56t124 56.5t40 133.5q0 78 -38 130.5t-124 52.5q-84 0 -119 -53.5 t-35 -129.5z" />
<glyph unicode="&#x11e;" horiz-adv-x="1732" d="M74 717q0 147 61.5 278t168 228.5t249.5 154t307 56.5q102 0 218 -24t224.5 -65.5t198.5 -101t144 -131.5l-549 -188q-6 37 -29 57t-55.5 29.5t-71.5 11.5t-78 2q-61 0 -116.5 -23.5t-96.5 -64.5t-64.5 -96.5t-23.5 -116.5t23.5 -122.5t63.5 -111t94.5 -79t115.5 -29.5 q49 0 98.5 7t90 26.5t69.5 52.5t37 86h-276v168h768l-5 -721h-419v80q-82 -39 -172.5 -59.5t-188.5 -20.5q-164 0 -307 56.5t-249.5 153.5t-168 228t-61.5 279zM610 1640v119h115v-102l27 -33h243l23 21v114h102v-121q-25 -96 -125 -118h-262q-43 14 -74.5 41.5t-48.5 78.5z " />
<glyph unicode="&#x11f;" horiz-adv-x="1265" d="M90 590q0 92 34 173t102.5 141.5t172 96t242.5 37.5q84 2 157.5 -23.5t135.5 -68.5q16 35 47 56.5t72 21.5q53 0 92 -39t39 -92q0 -45 -28 -80t-69 -47q41 -82 41 -174q0 -109 -34.5 -185.5t-94 -127t-139.5 -74t-170 -25.5q-117 4 -166 -7t-43 -25.5t62.5 -25.5 t154.5 -5q238 -29 341.5 -94.5t103.5 -172.5q0 -55 -38 -104t-102.5 -86t-152.5 -58.5t-186 -21.5t-187.5 13.5t-155 39t-104.5 66.5t-39 96q0 31 25.5 60.5t66.5 52t91.5 39t99.5 20.5q-152 20 -217.5 57t-68.5 77t46 77t125 58q-59 0 -107.5 35.5t-81 88t-50 114 t-17.5 116.5zM381 1231v119h115v-103l26 -33h244l22 21v115h103v-121q-25 -96 -125 -119h-262q-43 14 -75 42t-48 79zM477 -162q0 -41 50.5 -70.5t121.5 -29.5q72 0 122 29.5t50 70.5t-50 71t-122 30t-122 -30t-50 -71zM489 614q0 -78 34 -134t118 -56t124 56.5t40 133.5 q0 78 -38 130.5t-124 52.5q-84 0 -119 -53.5t-35 -129.5z" />
<glyph unicode="&#x120;" horiz-adv-x="1732" d="M74 717q0 147 61.5 278t168 228.5t249.5 154t307 56.5q102 0 218 -24t224.5 -65.5t198.5 -101t144 -131.5l-549 -188q-6 37 -29 57t-55.5 29.5t-71.5 11.5t-78 2q-61 0 -116.5 -23.5t-96.5 -64.5t-64.5 -96.5t-23.5 -116.5t23.5 -122.5t63.5 -111t94.5 -79t115.5 -29.5 q49 0 98.5 7t90 26.5t69.5 52.5t37 86h-276v168h768l-5 -721h-419v80q-82 -39 -172.5 -59.5t-188.5 -20.5q-164 0 -307 56.5t-249.5 153.5t-168 228t-61.5 279zM768 1606q0 37 27.5 63.5t68.5 26.5t70 -27t29 -63q0 -37 -29 -63.5t-70 -26.5t-68.5 26.5t-27.5 63.5z" />
<glyph unicode="&#x121;" horiz-adv-x="1265" d="M90 590q0 92 34 173t102.5 141.5t172 96t242.5 37.5q84 2 157.5 -23.5t135.5 -68.5q16 35 47 56.5t72 21.5q53 0 92 -39t39 -92q0 -45 -28 -80t-69 -47q41 -82 41 -174q0 -109 -34.5 -185.5t-94 -127t-139.5 -74t-170 -25.5q-117 4 -166 -7t-43 -25.5t62.5 -25.5 t154.5 -5q238 -29 341.5 -94.5t103.5 -172.5q0 -55 -38 -104t-102.5 -86t-152.5 -58.5t-186 -21.5t-187.5 13.5t-155 39t-104.5 66.5t-39 96q0 31 25.5 60.5t66.5 52t91.5 39t99.5 20.5q-152 20 -217.5 57t-68.5 77t46 77t125 58q-59 0 -107.5 35.5t-81 88t-50 114 t-17.5 116.5zM477 -162q0 -41 50.5 -70.5t121.5 -29.5q72 0 122 29.5t50 70.5t-50 71t-122 30t-122 -30t-50 -71zM489 614q0 -78 34 -134t118 -56t124 56.5t40 133.5q0 78 -38 130.5t-124 52.5q-84 0 -119 -53.5t-35 -129.5zM539 1196q0 37 27.5 63.5t68.5 26.5t69.5 -26.5 t28.5 -63.5t-28.5 -63.5t-69.5 -26.5t-68.5 26.5t-27.5 63.5z" />
<glyph unicode="&#x122;" horiz-adv-x="1732" d="M74 717q0 147 61.5 278t168 228.5t249.5 154t307 56.5q102 0 218 -24t224.5 -65.5t198.5 -101t144 -131.5l-549 -188q-6 37 -29 57t-55.5 29.5t-71.5 11.5t-78 2q-61 0 -116.5 -23.5t-96.5 -64.5t-64.5 -96.5t-23.5 -116.5t23.5 -122.5t63.5 -111t94.5 -79t115.5 -29.5 q49 0 98.5 7t90 26.5t69.5 52.5t37 86h-276v168h768l-5 -721h-419v80q-82 -39 -172.5 -59.5t-188.5 -20.5q-164 0 -307 56.5t-249.5 153.5t-168 228t-61.5 279zM705 -453q-2 0 16 4.5t72 26.5q31 12 41 31.5t12 38.5q-59 6 -97 47t-38 96q0 59 44 101t109 42q66 0 111 -42 t47 -101q6 -47 -2 -94q-6 -41 -25.5 -89t-60.5 -89q-23 -23 -52.5 -40.5t-55 -28.5t-43 -16t-17.5 -3t-9 20.5t-20.5 40t-21.5 38.5z" />
<glyph unicode="&#x123;" horiz-adv-x="1265" d="M90 590q0 92 34 173t102.5 141.5t172 96t242.5 37.5q84 2 157.5 -23.5t135.5 -68.5q16 35 47 56.5t72 21.5q53 0 92 -39t39 -92q0 -45 -28 -80t-69 -47q41 -82 41 -174q0 -109 -34.5 -185.5t-94 -127t-139.5 -74t-170 -25.5q-117 4 -166 -7t-43 -25.5t62.5 -25.5 t154.5 -5q238 -29 341.5 -94.5t103.5 -172.5q0 -55 -38 -104t-102.5 -86t-152.5 -58.5t-186 -21.5t-187.5 13.5t-155 39t-104.5 66.5t-39 96q0 31 25.5 60.5t66.5 52t91.5 39t99.5 20.5q-152 20 -217.5 57t-68.5 77t46 77t125 58q-59 0 -107.5 35.5t-81 88t-50 114 t-17.5 116.5zM477 -162q0 -41 50.5 -70.5t121.5 -29.5q72 0 122 29.5t50 70.5t-50 71t-122 30t-122 -30t-50 -71zM489 614q0 -78 34 -134t118 -56t124 56.5t40 133.5q0 78 -38 130.5t-124 52.5q-84 0 -119 -53.5t-35 -129.5zM506 1284q-4 47 2 94q4 41 19.5 88t50.5 88 q18 23 41.5 40.5t43 28.5t34 16.5t14.5 2.5q0 -2 7 -20t16 -39.5t18 -38.5l8 -18q2 0 -13.5 -4t-56.5 -27q-25 -12 -33 -31.5t-10 -38.5q47 -6 78 -46t31 -95q0 -59 -36 -101t-87 -42q-53 0 -89 42t-38 101z" />
<glyph unicode="&#x124;" horiz-adv-x="1748" d="M109 0v1434h514v-572h501v572h514v-1434h-514v614h-501v-614h-514zM578 1612l292 250l301 -250l-157 -94l-109 94h-63l-131 -94z" />
<glyph unicode="&#x125;" horiz-adv-x="1288" d="M106 0v1432h463v-492q33 18 78 37.5t98.5 32t114 12.5t121.5 -21q78 -27 127 -72.5t76.5 -100t39 -112t11.5 -104.5v-612h-395v608l-21 37l-26 39q-37 43 -94.5 30.5t-129.5 -40.5v-674h-463zM346 1587l293 250l301 -250l-158 -94l-108 94h-64l-131 -94z" />
<glyph unicode="&#x126;" horiz-adv-x="1748" d="M-1831 1034v144h1413v-144h-1413zM109 0v1434h514v-572h501v572h514v-1434h-514v614h-501v-614h-514z" />
<glyph unicode="&#x127;" horiz-adv-x="1288" d="M-45 1124v160h786v-160h-786zM106 0v1432h463v-492q33 18 78 37.5t98.5 32t114 12.5t121.5 -21q78 -27 127 -72.5t76.5 -100t39 -112t11.5 -104.5v-612h-395v608l-21 37l-26 39q-37 43 -94.5 30.5t-129.5 -40.5v-674h-463z" />
<glyph unicode="&#x128;" horiz-adv-x="735" d="M0 1655q2 16 15.5 37.5t34 41t46 36t51.5 22.5q49 14 88 13t80 -15t90.5 -43t120.5 -72q25 -6 46.5 3.5t41 26.5t38 42t36.5 49q8 -33 27.5 -69.5t29.5 -65.5q-10 -27 -31.5 -56.5t-51 -53t-63.5 -37t-67 -7.5q-47 4 -79.5 15.5t-63.5 29t-66.5 40t-89.5 46.5 q-35 0 -60.5 -12t-48 -30.5t-44 -39t-43.5 -32.5q-2 2 -9.5 21.5t-14.5 42t-12 43t-1 24.5zM109 0v1434h514v-1434h-514z" />
<glyph unicode="&#x129;" horiz-adv-x="681" d="M-27 1245q2 16 15.5 38t34 41t46 35.5t52.5 22.5q49 14 88 13.5t80 -15t90 -43t121 -71.5q25 -6 46 3t40.5 26.5t38 42t37.5 48.5q8 -33 27.5 -69.5t29.5 -65.5q-10 -27 -31.5 -56.5t-51.5 -53t-63.5 -36.5t-66.5 -7q-47 4 -80 15t-63.5 28.5t-66.5 40t-89 47.5 q-35 0 -60.5 -12.5t-48 -31t-44 -39t-44.5 -32.5q-2 2 -9 21.5t-14 42t-12.5 43t-1.5 24.5zM109 0v1024h460v-1024h-460z" />
<glyph unicode="&#x12a;" horiz-adv-x="735" d="M-23 1675v160h787v-160h-787zM109 0v1434h514v-1434h-514z" />
<glyph unicode="&#x12b;" horiz-adv-x="681" d="M-49 1266v159h786v-159h-786zM109 0v1024h460v-1024h-460z" />
<glyph unicode="&#x12c;" horiz-adv-x="735" d="M109 0v1434h514v-1434h-514zM115 1640v119h114v-102l27 -33h244l22 21v114h103v-121q-25 -96 -125 -118h-262q-43 14 -75 41.5t-48 78.5z" />
<glyph unicode="&#x12d;" horiz-adv-x="681" d="M88 1231v119h115v-103l26 -33h244l23 21v115h102v-121q-25 -96 -125 -119h-262q-43 14 -75 42t-48 79zM109 0v1024h460v-1024h-460z" />
<glyph unicode="&#x12e;" horiz-adv-x="735" d="M29 -274q0 61 14 112t52 86t101.5 54.5t159.5 19.5v131h187v-328q-18 20 -53 32.5t-72 12.5q-59 0 -102.5 -32.5t-43.5 -79.5t43 -80t103 -33q70 0 112 43l95 -162q-45 -20 -95.5 -31.5t-107.5 -11.5q-82 0 -152.5 22.5t-124 60.5t-85 86t-31.5 98zM109 0v1434h514v-1434 h-514z" />
<glyph unicode="&#x12f;" horiz-adv-x="665" d="M37 -274q0 61 14.5 112t52 86t101 54.5t160.5 19.5v131h186v-328q-18 20 -53 32.5t-72 12.5q-59 0 -102 -32.5t-43 -79.5t43 -80t102 -33q70 0 113 43l94 -162q-45 -20 -95.5 -31.5t-107.5 -11.5q-82 0 -152.5 22.5t-124 60.5t-85 86t-31.5 98zM100 1282q0 49 65.5 84 t162.5 35q47 0 89 -9.5t72.5 -25.5t49 -37.5t18.5 -46.5t-18.5 -46.5t-49 -36.5t-72.5 -24.5t-89 -9.5q-96 0 -162 34t-66 83zM102 0v1024h461v-1024h-461z" />
<glyph unicode="&#x130;" horiz-adv-x="735" d="M109 0v1434h514v-1434h-514zM272 1606q0 37 28 63.5t69 26.5t69.5 -27t28.5 -63q0 -37 -28.5 -63.5t-69.5 -26.5t-69 26.5t-28 63.5z" />
<glyph unicode="&#x131;" horiz-adv-x="681" d="M109 0v1024h460v-1024h-460z" />
<glyph unicode="&#x132;" horiz-adv-x="1718" d="M109 0v1434h514v-1434h-514zM791 17q0 1 2 1v-2q-2 0 -2 1zM793 16l104 -6q150 0 154 125v1299h514v-1434q-2 -92 -25.5 -158.5t-57.5 -113.5t-75 -77t-81 -47.5t-73.5 -24.5t-54.5 -7h-348q-2 0 -5 31.5t-9.5 79t-12.5 103.5t-12 105.5t-11 84t-7 40.5z" />
<glyph unicode="&#x133;" horiz-adv-x="1413" d="M100 1282q0 49 65.5 84t162.5 35q47 0 89 -9.5t72.5 -25.5t49 -37.5t18.5 -46.5t-18.5 -46.5t-49 -36.5t-72.5 -24.5t-89 -9.5q-96 0 -162 34t-66 83zM102 0v1024h461v-1024h-461zM709 -102q37 -18 66.5 -26.5t49 0.5t29.5 39t8 89v1024h461v-1229q-29 -170 -129 -239.5 t-268 -53.5l-215 6zM860 1282q0 49 65.5 84t161.5 35q47 0 89.5 -9.5t73 -25.5t49 -37.5t18.5 -46.5t-18.5 -46.5t-49 -36.5t-72.5 -24.5t-90 -9.5q-96 0 -161.5 34t-65.5 83z" />
<glyph unicode="&#x134;" horiz-adv-x="983" d="M55 17q0 1 2 1v-2q-2 0 -2 1zM57 16l105 -6q150 0 153 125v1299h514v-1434q-2 -92 -25.5 -158.5t-57 -113.5t-74.5 -77t-81 -47.5t-74 -24.5t-54 -7h-348q-2 0 -5.5 31.5t-9.5 79t-12 103.5t-12 105.5t-11.5 84t-7.5 40.5zM195 1612l292 250l301 -250l-157 -94l-109 94 h-63l-131 -94z" />
<glyph unicode="&#x135;" horiz-adv-x="747" d="M43 -102q37 -18 66.5 -26.5t49 0.5t30 39t8.5 89v1024h460v-1229q-29 -170 -129 -239.5t-268 -53.5l-215 6zM76 1202l293 250l301 -250l-158 -94l-109 94h-63l-131 -94z" />
<glyph unicode="&#x136;" horiz-adv-x="1769" d="M109 0v1434h514v-627l514 625h489l-536 -689l598 -743h-613l-452 639v-639h-514zM723 -471q-2 0 16.5 4t71.5 27q31 12 41 31.5t12 37.5q-59 6 -97 47.5t-38 96.5q0 59 44 101t110 42t110.5 -42t46.5 -101q6 -47 -2 -95q-6 -41 -25.5 -89t-60.5 -89q-23 -23 -52.5 -40 t-55 -28.5t-43 -16.5t-17.5 -3t-9 20.5t-20.5 40t-21.5 39.5z" />
<glyph unicode="&#x137;" horiz-adv-x="1288" d="M106 0v1432h463v-357l267 359l444 2l-344 -422l45 -13q78 -27 127 -72.5t76.5 -100t39 -112t11.5 -104.5v-612h-395v608l-21 37l-26 39q-37 43 -94.5 30.5t-129.5 -40.5v-674h-463zM483 -483q-2 0 16.5 4t71.5 26q31 12 41.5 32t12.5 38q-59 6 -97.5 47t-38.5 96 q0 59 44.5 101.5t109.5 42.5q66 0 111 -42t47 -102q6 -47 -2 -94q-6 -41 -25.5 -89t-60.5 -89q-23 -23 -52.5 -40t-55 -28.5t-43 -16.5t-17.5 -3t-9.5 20.5t-20.5 40t-21 39.5z" />
<glyph unicode="&#x138;" horiz-adv-x="1288" d="M106 0v1432h463v-357q147 47 221 132t46 227l444 2q-4 -84 -23.5 -154t-60.5 -125t-104.5 -92t-155.5 -51l45 -13q78 -27 127 -72.5t76.5 -100t39 -112t11.5 -104.5v-612h-395v608l-21 37l-26 39q-37 43 -94.5 30.5t-129.5 -40.5v-674h-463z" />
<glyph unicode="&#x139;" horiz-adv-x="1155" d="M109 0v1434h514v-1178h495v-256h-1009zM389 1565l234 280l141 -143l-246 -205z" />
<glyph unicode="&#x13a;" horiz-adv-x="679" d="M106 0v1432h463v-1432h-463zM156 1589l233 281l141 -144l-245 -204z" />
<glyph unicode="&#x13b;" horiz-adv-x="1155" d="M109 0v1434h514v-1178h495v-256h-1009zM416 -537q-2 0 16.5 4.5t71.5 26.5q31 12 41 31.5t12 38.5q-59 6 -97 47t-38 96q0 59 44 101t109 42q66 0 111 -41.5t47 -101.5q6 -47 -2 -94q-6 -41 -25.5 -89t-60.5 -89q-23 -23 -52.5 -40.5t-55 -28.5t-43 -16t-17.5 -3t-9 20.5 t-20.5 40t-21.5 38.5z" />
<glyph unicode="&#x13c;" horiz-adv-x="679" d="M106 0v1432h463v-1432h-463zM182 -518q-2 0 16.5 4t71.5 27q31 12 41.5 31.5t12.5 37.5q-59 6 -97.5 47.5t-38.5 96.5q0 59 44 101t110 42t111 -42t47 -101q6 -47 -2 -95q-6 -41 -25.5 -89t-60.5 -89q-23 -23 -52.5 -40t-55 -28.5t-43 -16.5t-17.5 -3t-9.5 20.5t-20.5 40 t-22 38.5z" />
<glyph unicode="&#x13d;" horiz-adv-x="1155" d="M109 0v1434h514v-1178h495v-256h-1009zM180 1724l133 95l131 -113h64l108 113l158 -95l-301 -249z" />
<glyph unicode="&#x13e;" horiz-adv-x="1064" d="M106 0v1432h463v-1432h-463zM752 1044q-2 0 13 4.5t56 26.5q25 12 33 31.5t10 38.5q-47 6 -77.5 46t-30.5 95q0 59 35.5 101.5t87.5 42.5q53 0 89 -42t38 -102q4 -47 -2 -94q-4 -41 -19.5 -88t-50.5 -88q-18 -23 -42 -40.5t-43.5 -28.5t-33.5 -16t-14 -3t-7.5 20.5 t-16.5 40t-17 38.5z" />
<glyph unicode="&#x13f;" horiz-adv-x="1155" d="M109 0v1434h514v-1178h495v-256h-1009zM780 641q0 55 39 94t92 39t92 -39t39 -94t-38.5 -93t-92.5 -38q-53 0 -92 38t-39 93z" />
<glyph unicode="&#x140;" horiz-adv-x="1091" d="M106 0v1432h463v-1432h-463zM756 641q0 55 39 94t92 39t92 -39t39 -94t-39 -93t-92 -38t-92 38t-39 93z" />
<glyph unicode="&#x141;" horiz-adv-x="1329" d="M106 473v160h787v-160h-787zM223 0v1434h514v-1178h496v-256h-1010z" />
<glyph unicode="&#x142;" horiz-adv-x="991" d="M106 473v160h787v-160h-787zM266 0v1432h463v-1432h-463z" />
<glyph unicode="&#x143;" horiz-adv-x="1789" d="M109 0v1434l487 -2l569 -818v820h514v-1434h-462l-594 862v-862h-514zM707 1565l233 280l141 -143l-245 -205z" />
<glyph unicode="&#x144;" d="M106 -6v1030h416v-76q47 31 104.5 48.5t121.5 17.5q92 0 184 -36t147 -99q66 -72 85.5 -135.5t19.5 -129.5v-620h-414v696q-10 47 -45 75t-84 28q-53 0 -74.5 -28t-44.5 -75v-696h-416zM453 1155l233 281l141 -144l-245 -205z" />
<glyph unicode="&#x145;" horiz-adv-x="1789" d="M109 0v1434l487 -2l569 -818v820h514v-1434h-462l-594 862v-862h-514zM733 -498q-2 0 16.5 4.5t71.5 26.5q31 12 41 31.5t12 38.5q-59 6 -97 47t-38 96q0 59 44 101t110 42t111 -42t47 -101q6 -47 -2 -94q-6 -41 -25.5 -89t-60.5 -89q-23 -23 -52.5 -40.5t-55.5 -28.5 t-43 -16t-17 -3t-9.5 20.5t-20.5 40t-21 38.5z" />
<glyph unicode="&#x146;" d="M106 -6v1030h416v-76q47 31 104.5 48.5t121.5 17.5q92 0 184 -36t147 -99q66 -72 85.5 -135.5t19.5 -129.5v-620h-414v696q-10 47 -45 75t-84 28q-53 0 -74.5 -28t-44.5 -75v-696h-416zM479 -551q-2 0 16.5 4t71.5 27q31 12 41 31.5t13 37.5q-59 6 -97.5 47.5t-38.5 96.5 q0 59 44 101t110 42t111 -42t47 -101q6 -47 -2 -94q-6 -41 -25.5 -89.5t-60.5 -89.5q-23 -23 -52.5 -40t-55.5 -28t-43 -16.5t-17 -3.5t-9.5 20.5t-20.5 40t-21 39.5z" />
<glyph unicode="&#x147;" horiz-adv-x="1789" d="M109 0v1434l487 -2l569 -818v820h514v-1434h-462l-594 862v-862h-514zM598 1767l133 95l131 -113h64l108 113l158 -95l-301 -249z" />
<glyph unicode="&#x148;" d="M106 -6v1030h416v-76q47 31 104.5 48.5t121.5 17.5q92 0 184 -36t147 -99q66 -72 85.5 -135.5t19.5 -129.5v-620h-414v696q-10 47 -45 75t-84 28q-53 0 -74.5 -28t-44.5 -75v-696h-416zM342 1358l133 94l131 -113h64l108 113l158 -94l-301 -250z" />
<glyph unicode="&#x149;" d="M18 1169q-2 0 16.5 4.5t71.5 26.5q31 12 41.5 31.5t12.5 38.5q-59 6 -97 47t-38 96q0 59 44 101t109 42q66 0 111 -41.5t47 -101.5q6 -47 -2 -94q-6 -41 -25.5 -89t-60.5 -89q-23 -23 -52.5 -40.5t-55 -28.5t-43 -16t-17.5 -3t-9.5 20.5t-20.5 40t-22 38.5zM106 -6v1030 h416v-76q47 31 104.5 48.5t121.5 17.5q92 0 184 -36t147 -99q66 -72 85.5 -135.5t19.5 -129.5v-620h-414v696q-10 47 -45 75t-84 28q-53 0 -74.5 -28t-44.5 -75v-696h-416z" />
<glyph unicode="&#x14a;" horiz-adv-x="1789" d="M109 0v1434l487 -2l569 -818v820h514v-1434h-462l-594 862v-862h-514zM905 17q0 1 2 1v-2q-2 0 -2 1zM907 16l105 -6q150 0 153 125v1299h514v-1434q-2 -92 -25.5 -158.5t-57 -113.5t-74.5 -77t-81 -47.5t-74 -24.5t-54 -7h-348q-2 0 -5.5 31.5t-9.5 79t-12 103.5 t-12 105.5t-11.5 84t-7.5 40.5z" />
<glyph unicode="&#x14b;" d="M106 -6v1030h416v-76q47 31 104.5 48.5t121.5 17.5q92 0 184 -36t147 -99q66 -72 85.5 -135.5t19.5 -129.5v-774q-25 -68 -125.5 -137.5t-388.5 -52.5l-150 6l-2 178q37 -18 66.5 -26.5t99.5 1t80 39t8 89.5l-2 57v696q-10 47 -45 75t-84 28q-53 0 -74.5 -28t-44.5 -75 v-696h-416z" />
<glyph unicode="&#x14c;" horiz-adv-x="1628" d="M74 717q0 147 58 278t157.5 228.5t234.5 154t289 56.5t289 -56.5t235.5 -154t158.5 -228.5t58 -278t-58 -278.5t-158.5 -228.5t-235.5 -153.5t-289 -56.5t-289 56.5t-234.5 153.5t-157.5 228.5t-58 278.5zM420 1675v160h786v-160h-786zM532 723q0 -61 23 -116.5 t60.5 -96.5t89 -64.5t110.5 -23.5q57 0 109.5 23.5t90.5 64.5t60.5 96.5t22.5 116.5t-22.5 116.5t-60.5 96.5t-90.5 64.5t-109.5 23.5q-59 0 -110.5 -23.5t-89 -64.5t-60.5 -96.5t-23 -116.5z" />
<glyph unicode="&#x14d;" horiz-adv-x="1271" d="M74 504q0 104 44 198.5t119.5 167t178 114.5t219.5 42t219 -42t179 -114.5t121 -167t44 -198.5t-44 -196.5t-121 -160t-179 -107.5t-219 -40t-219.5 40t-178 107.5t-119.5 160t-44 196.5zM242 1266v159h786v-159h-786zM440 496q0 -94 53.5 -153.5t139.5 -59.5t138 63.5 t52 157.5q0 47 -13 91t-39 79t-60.5 55.5t-77.5 20.5t-79 -22.5t-60.5 -58.5t-39 -81t-14.5 -92z" />
<glyph unicode="&#x14e;" horiz-adv-x="1628" d="M74 717q0 147 58 278t157.5 228.5t234.5 154t289 56.5t289 -56.5t235.5 -154t158.5 -228.5t58 -278t-58 -278.5t-158.5 -228.5t-235.5 -153.5t-289 -56.5t-289 56.5t-234.5 153.5t-157.5 228.5t-58 278.5zM532 723q0 -61 23 -116.5t60.5 -96.5t89 -64.5t110.5 -23.5 q57 0 109.5 23.5t90.5 64.5t60.5 96.5t22.5 116.5t-22.5 116.5t-60.5 96.5t-90.5 64.5t-109.5 23.5q-59 0 -110.5 -23.5t-89 -64.5t-60.5 -96.5t-23 -116.5zM559 1640v119h115v-102l26 -33h244l23 21v114h102v-121q-25 -96 -125 -118h-262q-43 14 -75 41.5t-48 78.5z" />
<glyph unicode="&#x14f;" horiz-adv-x="1271" d="M74 504q0 104 44 198.5t119.5 167t178 114.5t219.5 42t219 -42t179 -114.5t121 -167t44 -198.5t-44 -196.5t-121 -160t-179 -107.5t-219 -40t-219.5 40t-178 107.5t-119.5 160t-44 196.5zM383 1231v119h115v-103l26 -33h244l23 21v115h102v-121q-25 -96 -125 -119h-262 q-43 14 -75 42t-48 79zM440 496q0 -94 53.5 -153.5t139.5 -59.5t138 63.5t52 157.5q0 47 -13 91t-39 79t-60.5 55.5t-77.5 20.5t-79 -22.5t-60.5 -58.5t-39 -81t-14.5 -92z" />
<glyph unicode="&#x150;" horiz-adv-x="1628" d="M74 717q0 147 58 278t157.5 228.5t234.5 154t289 56.5t289 -56.5t235.5 -154t158.5 -228.5t58 -278t-58 -278.5t-158.5 -228.5t-235.5 -153.5t-289 -56.5t-289 56.5t-234.5 153.5t-157.5 228.5t-58 278.5zM379 1497l285 348l141 -143l-246 -205h-180zM532 723 q0 -61 23 -116.5t60.5 -96.5t89 -64.5t110.5 -23.5q57 0 109.5 23.5t90.5 64.5t60.5 96.5t22.5 116.5t-22.5 116.5t-60.5 96.5t-90.5 64.5t-109.5 23.5q-59 0 -110.5 -23.5t-89 -64.5t-60.5 -96.5t-23 -116.5zM823 1497l285 348l141 -143l-245 -205h-181z" />
<glyph unicode="&#x151;" horiz-adv-x="1271" d="M74 504q0 104 44 198.5t119.5 167t178 114.5t219.5 42t219 -42t179 -114.5t121 -167t44 -198.5t-44 -196.5t-121 -160t-179 -107.5t-219 -40t-219.5 40t-178 107.5t-119.5 160t-44 196.5zM201 1087l284 349l142 -144l-246 -205h-180zM440 496q0 -94 53.5 -153.5 t139.5 -59.5t138 63.5t52 157.5q0 47 -13 91t-39 79t-60.5 55.5t-77.5 20.5t-79 -22.5t-60.5 -58.5t-39 -81t-14.5 -92zM645 1087l285 349l141 -144l-246 -205h-180z" />
<glyph unicode="&#x152;" horiz-adv-x="2146" d="M74 717q0 147 58 278t157.5 228.5t234.5 154t289 56.5q31 0 60.5 -2t60.5 -7v9l960 -2v-246h-446v-324h407v-248h-407v-358h453v-256h-967v8q-31 -4 -60.5 -6t-60.5 -2q-154 0 -289 56.5t-234.5 153.5t-157.5 228t-58 279zM532 723q0 -61 23 -116.5t60.5 -96.5t89 -64.5 t110.5 -23.5q66 0 119 27v546q-57 29 -119 29q-59 0 -110.5 -23.5t-89 -64.5t-60.5 -96.5t-23 -116.5z" />
<glyph unicode="&#x153;" horiz-adv-x="2119" d="M74 504q0 104 44 198.5t119.5 167t178 114.5t219.5 42q102 0 193.5 -32.5t164.5 -90.5q72 57 182.5 89t266.5 32q113 0 203 -41t152.5 -111.5t95 -166t32.5 -203.5v-62l-688 2q14 -92 71.5 -148t135.5 -67q70 -8 148.5 3.5t149 32t122 44t65.5 39.5v-242 q-125 -66 -251 -85t-255 -19q-111 0 -213 37t-186 102q-76 -66 -175 -102.5t-214 -36.5q-117 0 -219.5 40t-178 107.5t-119.5 159.5t-44 197zM440 496q0 -94 53.5 -153.5t139.5 -59.5t138 63.5t52 157.5q0 47 -13 91t-39 79t-60.5 55.5t-77.5 20.5t-79 -22.5t-60.5 -58.5 t-39 -81t-14.5 -92zM1235 573l356 -2v9q0 55 -6 86.5t-23.5 50t-46 25t-71.5 10.5q-98 8 -153.5 -28t-55.5 -144v-7z" />
<glyph unicode="&#x154;" horiz-adv-x="1648" d="M109 0v1434l1069 -2q66 -16 111.5 -50t76.5 -85.5t47.5 -116t22.5 -138.5q6 -98 -12.5 -176t-55.5 -133t-89 -88t-110 -39l406 -606h-528l-377 612l-47 2v-614h-514zM623 862l161 -2q80 -2 133.5 5t86 24.5t48 45.5t17.5 66q0 63 -20.5 101.5t-58.5 57t-90 22.5t-116 2 h-161v-322zM637 1565l233 280l142 -143l-246 -205z" />
<glyph unicode="&#x155;" horiz-adv-x="1126" d="M106 2v1018h441v-70q35 33 76 50.5t122 17.5q39 2 90.5 -9.5t103.5 -38t101.5 -68.5t87.5 -103l-311 -209h-4q-27 55 -55.5 93t-61 53.5t-69.5 7t-80 -47.5v-694h-441zM375 1155l233 281l142 -144l-246 -205z" />
<glyph unicode="&#x156;" horiz-adv-x="1648" d="M109 0v1434l1069 -2q66 -16 111.5 -50t76.5 -85.5t47.5 -116t22.5 -138.5q6 -98 -12.5 -176t-55.5 -133t-89 -88t-110 -39l406 -606h-528l-377 612l-47 2v-614h-514zM623 862l161 -2q80 -2 133.5 5t86 24.5t48 45.5t17.5 66q0 63 -20.5 101.5t-58.5 57t-90 22.5t-116 2 h-161v-322zM664 -469q-2 0 16 4t72 27q31 12 41 31.5t12 37.5q-59 6 -97 47.5t-38 96.5q0 59 44 101t109 42q66 0 111 -42t47 -101q6 -47 -2 -94q-6 -41 -25.5 -89.5t-60.5 -89.5q-23 -23 -52.5 -40t-55 -28.5t-43 -16.5t-17.5 -3t-9 20.5t-20.5 40t-21.5 39.5z" />
<glyph unicode="&#x157;" horiz-adv-x="1126" d="M106 2v1018h441v-70q35 33 76 50.5t122 17.5q39 2 90.5 -9.5t103.5 -38t101.5 -68.5t87.5 -103l-311 -209h-4q-27 55 -55.5 93t-61 53.5t-69.5 7t-80 -47.5v-694h-441zM401 -498q-2 0 16.5 4.5t71.5 26.5q31 12 41.5 31.5t12.5 38.5q-59 6 -97 47t-38 96q0 59 44 101 t109 42q66 0 111 -42t47 -101q6 -47 -2 -94q-6 -41 -25.5 -89t-60.5 -89q-23 -23 -52.5 -40.5t-55 -28.5t-43 -16t-17.5 -3t-9.5 20.5t-20.5 40t-21 38.5z" />
<glyph unicode="&#x158;" horiz-adv-x="1648" d="M109 0v1434l1069 -2q66 -16 111.5 -50t76.5 -85.5t47.5 -116t22.5 -138.5q6 -98 -12.5 -176t-55.5 -133t-89 -88t-110 -39l406 -606h-528l-377 612l-47 2v-614h-514zM526 1767l133 95l132 -113h63l109 113l157 -95l-301 -249zM623 862l161 -2q80 -2 133.5 5t86 24.5 t48 45.5t17.5 66q0 63 -20.5 101.5t-58.5 57t-90 22.5t-116 2h-161v-322z" />
<glyph unicode="&#x159;" horiz-adv-x="1126" d="M106 2v1018h441v-70q35 33 76 50.5t122 17.5q39 2 90.5 -9.5t103.5 -38t101.5 -68.5t87.5 -103l-311 -209h-4q-27 55 -55.5 93t-61 53.5t-69.5 7t-80 -47.5v-694h-441zM266 1358l133 94l131 -113h64l108 113l158 -94l-301 -250z" />
<glyph unicode="&#x15a;" horiz-adv-x="1292" d="M92 121l1 27q1 28 2 71t1 93v93.5t-1 72t-3 28.5q-4 0 28 -15.5t79 -37t100 -42t90 -30.5t80 -27.5t83 -27t73.5 -1t52.5 49.5q16 37 10 59.5t-34.5 47t-82 55t-133.5 84.5q-160 104 -240.5 208.5t-86.5 233.5q-4 63 28.5 130t97 120t161 88t223.5 37q102 2 205.5 -31 t185.5 -72t132 -71.5t48 -32.5t-2 -26.5v-66.5v-88.5t1 -88t1 -68.5v-29q0 -2 -20.5 21.5t-55.5 55.5t-79 62.5t-91 45.5q-27 8 -77 26.5t-102 28.5t-97 3t-60 -50q-12 -39 12.5 -77t67.5 -72t92 -60.5t84 -44.5t92.5 -43t112.5 -68t96 -110.5t41 -171.5q0 -127 -55 -206 t-143 -124t-196.5 -61.5t-211.5 -18.5q-102 -2 -195.5 17.5t-163 43t-110.5 43t-41 17.5zM459 1565l233 280l142 -143l-246 -205z" />
<glyph unicode="&#x15b;" horiz-adv-x="1030" d="M74 137q0 43 1 95.5t2 97.5t1 49t17.5 -7.5t46 -30.5t65.5 -40.5t76 -40.5q78 -35 136 -33t79 27q20 25 8 52.5t-74 68.5q-31 20 -82 51t-102 72t-92 90t-54 108q-12 57 -1.5 105.5t37 86.5t65.5 66.5t84 44.5q115 27 225.5 25t201.5 -19.5t153.5 -43t80.5 -41.5 q2 -2 1 -44t-1 -93.5t-1 -92.5t1 -39t-31.5 19.5t-79.5 39t-94.5 41t-72.5 29.5q-25 8 -55.5 16.5t-59.5 8.5t-55.5 -11.5t-42.5 -39.5q-16 -29 -7 -50.5t34.5 -40t64.5 -35t80 -36.5t98 -40t109.5 -48.5t88.5 -70.5t36 -107q0 -96 -46.5 -156.5t-115 -95.5t-150.5 -51.5 t-155 -22.5q-74 -6 -147 8.5t-132 34.5t-97 37.5t-40 15.5q-4 -2 -4 41zM330 1155l233 281l142 -144l-246 -205z" />
<glyph unicode="&#x15c;" horiz-adv-x="1292" d="M92 121l1 27q1 28 2 71t1 93v93.5t-1 72t-3 28.5q-4 0 28 -15.5t79 -37t100 -42t90 -30.5t80 -27.5t83 -27t73.5 -1t52.5 49.5q16 37 10 59.5t-34.5 47t-82 55t-133.5 84.5q-160 104 -240.5 208.5t-86.5 233.5q-4 63 28.5 130t97 120t161 88t223.5 37q102 2 205.5 -31 t185.5 -72t132 -71.5t48 -32.5t-2 -26.5v-66.5v-88.5t1 -88t1 -68.5v-29q0 -2 -20.5 21.5t-55.5 55.5t-79 62.5t-91 45.5q-27 8 -77 26.5t-102 28.5t-97 3t-60 -50q-12 -39 12.5 -77t67.5 -72t92 -60.5t84 -44.5t92.5 -43t112.5 -68t96 -110.5t41 -171.5q0 -127 -55 -206 t-143 -124t-196.5 -61.5t-211.5 -18.5q-102 -2 -195.5 17.5t-163 43t-110.5 43t-41 17.5zM348 1612l293 250l301 -250l-158 -94l-108 94h-64l-131 -94z" />
<glyph unicode="&#x15d;" horiz-adv-x="1030" d="M74 137q0 43 1 95.5t2 97.5t1 49t17.5 -7.5t46 -30.5t65.5 -40.5t76 -40.5q78 -35 136 -33t79 27q20 25 8 52.5t-74 68.5q-31 20 -82 51t-102 72t-92 90t-54 108q-12 57 -1.5 105.5t37 86.5t65.5 66.5t84 44.5q115 27 225.5 25t201.5 -19.5t153.5 -43t80.5 -41.5 q2 -2 1 -44t-1 -93.5t-1 -92.5t1 -39t-31.5 19.5t-79.5 39t-94.5 41t-72.5 29.5q-25 8 -55.5 16.5t-59.5 8.5t-55.5 -11.5t-42.5 -39.5q-16 -29 -7 -50.5t34.5 -40t64.5 -35t80 -36.5t98 -40t109.5 -48.5t88.5 -70.5t36 -107q0 -96 -46.5 -156.5t-115 -95.5t-150.5 -51.5 t-155 -22.5q-74 -6 -147 8.5t-132 34.5t-97 37.5t-40 15.5q-4 -2 -4 41zM217 1202l293 250l301 -250l-158 -94l-108 94h-64l-131 -94z" />
<glyph unicode="&#x15e;" horiz-adv-x="1292" d="M92 121l1 27q1 28 2 71t1 93v93.5t-1 72t-3 28.5q-4 0 28 -15.5t79 -37t100 -42t90 -30.5t80 -27.5t83 -27t73.5 -1t52.5 49.5q16 37 10 59.5t-34.5 47t-82 55t-133.5 84.5q-160 104 -240.5 208.5t-86.5 233.5q-4 63 28.5 130t97 120t161 88t223.5 37q102 2 205.5 -31 t185.5 -72t132 -71.5t48 -32.5t-2 -26.5v-66.5v-88.5t1 -88t1 -68.5v-29q0 -2 -20.5 21.5t-55.5 55.5t-79 62.5t-91 45.5q-27 8 -77 26.5t-102 28.5t-97 3t-60 -50q-12 -39 12.5 -77t67.5 -72t92 -60.5t84 -44.5t92.5 -43t112.5 -68t96 -110.5t41 -171.5q0 -127 -55 -206 t-143 -124t-196.5 -61.5t-211.5 -18.5q-102 -2 -195.5 17.5t-163 43t-110.5 43t-41 17.5zM350 -469l90 135q43 -43 113 -43q31 0 61.5 9.5t55 25.5t40 37.5t15.5 44.5t-14.5 45t-38 39.5t-53 28t-60.5 10.5q-37 0 -69.5 -4t-51.5 -25v297h176v-131q96 0 160 -19.5 t101.5 -54.5t52 -86t14.5 -112q0 -49 -30.5 -93.5t-83 -77t-123 -51t-152.5 -18.5q-57 0 -107.5 11.5t-95.5 31.5z" />
<glyph unicode="&#x15f;" horiz-adv-x="1030" d="M74 137q0 43 1 95.5t2 97.5t1 49t17.5 -7.5t46 -30.5t65.5 -40.5t76 -40.5q78 -35 136 -33t79 27q20 25 8 52.5t-74 68.5q-31 20 -82 51t-102 72t-92 90t-54 108q-12 57 -1.5 105.5t37 86.5t65.5 66.5t84 44.5q115 27 225.5 25t201.5 -19.5t153.5 -43t80.5 -41.5 q2 -2 1 -44t-1 -93.5t-1 -92.5t1 -39t-31.5 19.5t-79.5 39t-94.5 41t-72.5 29.5q-25 8 -55.5 16.5t-59.5 8.5t-55.5 -11.5t-42.5 -39.5q-16 -29 -7 -50.5t34.5 -40t64.5 -35t80 -36.5t98 -40t109.5 -48.5t88.5 -70.5t36 -107q0 -96 -46.5 -156.5t-115 -95.5t-150.5 -51.5 t-155 -22.5q-74 -6 -147 8.5t-132 34.5t-97 37.5t-40 15.5q-4 -2 -4 41zM219 -469l90 135q43 -43 113 -43q31 0 61.5 9.5t55 25.5t40 37.5t15.5 44.5t-14.5 45t-38 39.5t-53 28t-60.5 10.5q-37 0 -69.5 -4t-51.5 -25v297h176v-131q96 0 160 -19.5t101.5 -54.5t52 -86 t14.5 -112q0 -49 -30.5 -93.5t-83 -77t-123 -51t-152.5 -18.5q-57 0 -107.5 11.5t-95.5 31.5z" />
<glyph unicode="&#x160;" horiz-adv-x="1325" d="M92 121l1 27q1 28 2 71t1 93v93.5t-1 72t-3 28.5q-4 0 28 -15.5t79 -37t100 -42t90 -30.5t80 -27.5t83 -27t73.5 -1t52.5 49.5q16 37 10 59.5t-34.5 47t-82 55t-133.5 84.5q-160 104 -240.5 208.5t-86.5 233.5q-4 63 28.5 130t97 120t161 88t223.5 37q102 2 205.5 -31 t185.5 -72t132 -71.5t48 -32.5t-2 -26.5v-66.5v-88.5t1 -88t1 -68.5v-29q0 -2 -20.5 21.5t-55.5 55.5t-79 62.5t-91 45.5q-27 8 -77 26.5t-102 28.5t-97 3t-60 -50q-12 -39 12.5 -77t67.5 -72t92 -60.5t84 -44.5t92.5 -43t112.5 -68t96 -110.5t41 -171.5q0 -127 -55 -206 t-143 -124t-196.5 -61.5t-211.5 -18.5q-102 -2 -195.5 17.5t-163 43t-110.5 43t-41 17.5zM256 1767l133 95l131 -113h64l108 113l158 -95l-301 -249z" />
<glyph unicode="&#x161;" horiz-adv-x="1093" d="M74 137q0 43 1 95.5t2 97.5t1 49t17.5 -7.5t46 -30.5t65.5 -40.5t76 -40.5q78 -35 136 -33t79 27q20 25 8 52.5t-74 68.5q-31 20 -82 51t-102 72t-92 90t-54 108q-12 57 -1.5 105.5t37 86.5t65.5 66.5t84 44.5q115 27 225.5 25t201.5 -19.5t153.5 -43t80.5 -41.5 q2 -2 1 -44t-1 -93.5t-1 -92.5t1 -39t-31.5 19.5t-79.5 39t-94.5 41t-72.5 29.5q-25 8 -55.5 16.5t-59.5 8.5t-55.5 -11.5t-42.5 -39.5q-16 -29 -7 -50.5t34.5 -40t64.5 -35t80 -36.5t98 -40t109.5 -48.5t88.5 -70.5t36 -107q0 -96 -46.5 -156.5t-115 -95.5t-150.5 -51.5 t-155 -22.5q-74 -6 -147 8.5t-132 34.5t-97 37.5t-40 15.5q-4 -2 -4 41zM129 1358l133 94l131 -113h64l108 113l158 -94l-301 -250z" />
<glyph unicode="&#x162;" horiz-adv-x="1427" d="M59 1024v408h1309v-408h-403v-1024h-514v1024h-392zM553 -444q-2 0 16.5 4t71.5 26q31 12 41 32t12 38q-59 6 -97 47t-38 96q0 59 44 101.5t110 42.5t110.5 -42t46.5 -102q6 -47 -2 -94q-6 -41 -25.5 -89t-60.5 -89q-23 -23 -52.5 -40t-55 -28.5t-43 -16.5t-17.5 -3 t-9 20.5t-20.5 40t-21.5 38.5z" />
<glyph unicode="&#x163;" horiz-adv-x="1032" d="M35 748v262h205q4 0 34.5 23.5t75.5 59t97.5 77.5t96.5 77t73.5 56.5t31.5 19.5l-4 -313h295v-262h-295q-2 -129 -2 -214t2 -88q2 -4 5 -29.5t16.5 -54t38 -49t69.5 -14.5t80 23.5t60.5 36t39 33t15.5 14.5l1 -23t0 -57.5t-2 -74.5t-1 -75t-1 -59.5t-1 -26.5 q0 -4 -25 -17.5t-70 -28.5t-108.5 -27.5t-140.5 -12.5q-111 -2 -183.5 18.5t-115.5 63.5t-61.5 110.5t-20.5 159.5q-4 186 -4 289t4 103h-205zM354 -500q-2 0 16.5 4t71.5 27q31 12 41.5 31.5t12.5 38.5q-59 6 -97.5 47t-38.5 96q0 59 44.5 101t109.5 42q66 0 111 -42 t47 -101q6 -47 -2 -94q-6 -41 -25.5 -89t-60.5 -89q-23 -23 -52.5 -40.5t-55 -28.5t-43 -16t-17.5 -3t-9.5 20t-20.5 39.5t-22 38.5z" />
<glyph unicode="&#x164;" horiz-adv-x="1427" d="M59 1024v408h1309v-408h-403v-1024h-514v1024h-392zM416 1767l133 95l131 -113h63l109 113l158 -95l-301 -249z" />
<glyph unicode="&#x165;" horiz-adv-x="1417" d="M35 748v262h205q4 0 34.5 23.5t75.5 59t97.5 77.5t96.5 77t73.5 56.5t31.5 19.5l-4 -313h295v-262h-295q-2 -129 -2 -214t2 -88q2 -4 5 -29.5t16.5 -54t38 -49t69.5 -14.5t80 23.5t60.5 36t39 33t15.5 14.5l1 -23t0 -57.5t-2 -74.5t-1 -75t-1 -59.5t-1 -26.5 q0 -4 -25 -17.5t-70 -28.5t-108.5 -27.5t-140.5 -12.5q-111 -2 -183.5 18.5t-115.5 63.5t-61.5 110.5t-20.5 159.5q-4 186 -4 289t4 103h-205zM1104 1044q-2 0 13.5 4.5t56.5 26.5q25 12 32.5 31.5t10.5 38.5q-47 6 -78 46t-31 95q0 59 36 101.5t87 42.5q53 0 89 -42 t38 -102q4 -47 -2 -94q-4 -41 -19.5 -88t-50.5 -88q-18 -23 -41.5 -40.5t-43 -28.5t-34 -16t-14.5 -3t-7 20.5t-16.5 40t-17.5 38.5z" />
<glyph unicode="&#x166;" horiz-adv-x="1427" d="M59 1024v408h1309v-408h-403v-1024h-514v1024h-392zM219 621v196h969v-196h-969z" />
<glyph unicode="&#x167;" horiz-adv-x="1032" d="M35 748v262h205q4 0 34.5 23.5t75.5 59t97.5 77.5t96.5 77t73.5 56.5t31.5 19.5l-4 -313h295v-262h-295q-2 -129 -2 -214t2 -88q2 -4 5 -29.5t16.5 -54t38 -49t69.5 -14.5t80 23.5t60.5 36t39 33t15.5 14.5l1 -23t0 -57.5t-2 -74.5t-1 -75t-1 -59.5t-1 -26.5 q0 -4 -25 -17.5t-70 -28.5t-108.5 -27.5t-140.5 -12.5q-111 -2 -183.5 18.5t-115.5 63.5t-61.5 110.5t-20.5 159.5q-4 186 -4 289t4 103h-205zM123 471v160h786v-160h-786z" />
<glyph unicode="&#x168;" horiz-adv-x="1613" d="M88 727l4 709h483l-6 -703q0 -127 55.5 -209t166.5 -82t180 82t69 209l2 703h484v-701q0 -150 -58.5 -281.5t-159 -231t-231.5 -157t-274 -57.5q-145 0 -274.5 56.5t-227.5 153.5t-155.5 228.5t-57.5 280.5zM436 1655q2 16 15.5 37.5t34 41t46 36t52.5 22.5q49 14 88 13 t80 -15t90 -43t121 -72q25 -6 46 3.5t40.5 26.5t38 42t36.5 49q8 -33 27.5 -69.5t30.5 -65.5q-10 -27 -32 -56.5t-51.5 -53t-63 -37t-66.5 -7.5q-47 4 -80 15.5t-63.5 29t-66.5 40t-89 46.5q-35 0 -60.5 -12t-48 -30.5t-44 -39t-44.5 -32.5q-2 2 -9 21.5t-14.5 42t-12.5 43 t-1 24.5z" />
<glyph unicode="&#x169;" d="M94 403v621h414v-696q10 -47 45 -75t84 -28q53 0 74.5 28t44.5 75v696h415v-1030h-415v76q-47 -31 -104.5 -48.5t-121.5 -17.5q-92 0 -184 36t-147 99q-66 72 -85.5 135.5t-19.5 128.5zM268 1245q2 16 15.5 38t34 41t46 35.5t52.5 22.5q49 14 88 13.5t80 -15t90 -43 t121 -71.5q25 -6 46 3t40.5 26.5t38 42t36.5 48.5q8 -33 28 -69.5t30 -65.5q-10 -27 -31.5 -56.5t-51.5 -53t-63.5 -36.5t-66.5 -7q-47 4 -80 15t-63.5 28.5t-66.5 40t-89 47.5q-35 0 -60.5 -12.5t-48 -31t-44 -39t-44.5 -32.5q-2 2 -9 21.5t-14.5 42t-12.5 43t-1 24.5z" />
<glyph unicode="&#x16a;" horiz-adv-x="1613" d="M88 727l4 709h483l-6 -703q0 -127 55.5 -209t166.5 -82t180 82t69 209l2 703h484v-701q0 -150 -58.5 -281.5t-159 -231t-231.5 -157t-274 -57.5q-145 0 -274.5 56.5t-227.5 153.5t-155.5 228.5t-57.5 280.5zM414 1675v160h786v-160h-786z" />
<glyph unicode="&#x16b;" d="M94 403v621h414v-696q10 -47 45 -75t84 -28q53 0 74.5 28t44.5 75v696h415v-1030h-415v76q-47 -31 -104.5 -48.5t-121.5 -17.5q-92 0 -184 36t-147 99q-66 72 -85.5 135.5t-19.5 128.5zM246 1266v159h786v-159h-786z" />
<glyph unicode="&#x16c;" horiz-adv-x="1613" d="M88 727l4 709h483l-6 -703q0 -127 55.5 -209t166.5 -82t180 82t69 209l2 703h484v-701q0 -150 -58.5 -281.5t-159 -231t-231.5 -157t-274 -57.5q-145 0 -274.5 56.5t-227.5 153.5t-155.5 228.5t-57.5 280.5zM551 1640v119h115v-102l26 -33h244l22 21v114h103v-121 q-25 -96 -125 -118h-262q-43 14 -75 41.5t-48 78.5z" />
<glyph unicode="&#x16d;" d="M94 403v621h414v-696q10 -47 45 -75t84 -28q53 0 74.5 28t44.5 75v696h415v-1030h-415v76q-47 -31 -104.5 -48.5t-121.5 -17.5q-92 0 -184 36t-147 99q-66 72 -85.5 135.5t-19.5 128.5zM387 1231v119h115v-103l26 -33h244l23 21v115h102v-121q-25 -96 -125 -119h-262 q-43 14 -75 42t-48 79z" />
<glyph unicode="&#x16e;" horiz-adv-x="1613" d="M88 727l4 709h483l-6 -703q0 -127 55.5 -209t166.5 -82t180 82t69 209l2 703h484v-701q0 -150 -58.5 -281.5t-159 -231t-231.5 -157t-274 -57.5q-145 0 -274.5 56.5t-227.5 153.5t-155.5 228.5t-57.5 280.5zM567 1632q0 39 19.5 75t53.5 62.5t79 42t94 15.5t92 -15.5 t75 -42t49.5 -62.5t17.5 -75t-17.5 -75.5t-49.5 -66.5t-75 -47.5t-92 -17.5t-94 17.5t-79 47.5t-53.5 66.5t-19.5 75.5zM674 1638q0 -41 40 -62.5t95 -21.5t93 21.5t38 62.5t-38 64.5t-93 23.5t-95 -23.5t-40 -64.5z" />
<glyph unicode="&#x16f;" d="M94 403v621h414v-696q10 -47 45 -75t84 -28q53 0 74.5 28t44.5 75v696h415v-1030h-415v76q-47 -31 -104.5 -48.5t-121.5 -17.5q-92 0 -184 36t-147 99q-66 72 -85.5 135.5t-19.5 128.5zM399 1223q0 39 19.5 74.5t53.5 62t79 42t94 15.5t92 -15.5t75 -42t49.5 -62 t17.5 -74.5t-17.5 -76t-49.5 -66.5t-75 -47t-92 -17.5t-94 17.5t-79 47t-53.5 66.5t-19.5 76zM506 1229q0 -41 40 -62.5t95 -21.5t93 21.5t38 62.5t-38 64.5t-93 23.5t-95 -23.5t-40 -64.5z" />
<glyph unicode="&#x170;" horiz-adv-x="1613" d="M88 727l4 709h483l-6 -703q0 -127 55.5 -209t166.5 -82t180 82t69 209l2 703h484v-701q0 -150 -58.5 -281.5t-159 -231t-231.5 -157t-274 -57.5q-145 0 -274.5 56.5t-227.5 153.5t-155.5 228.5t-57.5 280.5zM371 1497l284 348l142 -143l-246 -205h-180zM815 1497l285 348 l141 -143l-246 -205h-180z" />
<glyph unicode="&#x171;" d="M94 403v621h414v-696q10 -47 45 -75t84 -28q53 0 74.5 28t44.5 75v696h415v-1030h-415v76q-47 -31 -104.5 -48.5t-121.5 -17.5q-92 0 -184 36t-147 99q-66 72 -85.5 135.5t-19.5 128.5zM205 1087l284 349l142 -144l-246 -205h-180zM649 1087l285 349l141 -144l-246 -205 h-180z" />
<glyph unicode="&#x172;" horiz-adv-x="1613" d="M88 727l4 709h483l-6 -703q0 -127 55.5 -209t166.5 -82t180 82t69 209l2 703h484v-701q0 -150 -58.5 -281.5t-159 -231t-231.5 -157t-274 -57.5q-145 0 -274.5 56.5t-227.5 153.5t-155.5 228.5t-57.5 280.5zM385 -274q0 61 14.5 112t52 86t101 54.5t160.5 19.5v131h186 v-328q-18 20 -53 32.5t-72 12.5q-59 0 -102 -32.5t-43 -79.5t43 -80t102 -33q70 0 113 43l94 -162q-45 -20 -95.5 -31.5t-107.5 -11.5q-82 0 -152.5 22.5t-123.5 60.5t-85 86t-32 98z" />
<glyph unicode="&#x173;" d="M94 403v621h414v-696q10 -47 45 -75t84 -28q53 0 74.5 28t44.5 75v696h415v-1030h-415v76q-47 -31 -104.5 -48.5t-121.5 -17.5q-92 0 -184 36t-147 99q-66 72 -85.5 135.5t-19.5 128.5zM575 -274q0 61 14.5 112t52.5 86t101.5 54.5t159.5 19.5v131h187v-328 q-18 20 -53.5 32.5t-71.5 12.5q-59 0 -102.5 -32.5t-43.5 -79.5t43 -80t103 -33q70 0 112 43l94 -162q-45 -20 -95 -31.5t-107 -11.5q-82 0 -153 22.5t-124 60.5t-85 86t-32 98z" />
<glyph unicode="&#x174;" horiz-adv-x="2660" d="M74 1434h528l209 -627l211 627h616l209 -627l211 627h529l-469 -1428l2 -6h-543l2 6l-250 758l-248 -758l2 -6h-542l2 6zM1032 1612l293 250l301 -250l-158 -94l-108 94h-64l-131 -94z" />
<glyph unicode="&#x175;" horiz-adv-x="1847" d="M72 1024h346l166 -518l168 518h344l168 -518l166 518h346l-353 -1024h-317l-180 522l-183 -522h-317zM627 1202l293 250l301 -250l-158 -94l-109 94h-63l-131 -94z" />
<glyph unicode="&#x176;" horiz-adv-x="1841" d="M43 1432h524l355 -465l352 465h524l-624 -818v-614h-515v614zM623 1612l292 250l302 -250l-158 -94l-109 94h-63l-131 -94z" />
<glyph unicode="&#x177;" horiz-adv-x="1300" d="M82 1024h434l166 -365l160 365h434l-698 -1434h-428l305 686zM352 1202l293 250l301 -250l-158 -94l-108 94h-64l-131 -94z" />
<glyph unicode="&#x178;" horiz-adv-x="1959" d="M43 1432h524l355 -465l352 465h524l-624 -818v-614h-515v614zM717 1616q0 49 31.5 84t76.5 35t77 -35t32 -84t-32 -84t-77 -35t-76.5 35t-31.5 84zM1110 1618q0 49 32 84t77 35t76.5 -35t31.5 -84t-31.5 -84t-76.5 -35t-77 35t-32 84z" />
<glyph unicode="&#x179;" horiz-adv-x="1609" d="M88 -2l709 1188h-623v246h1354l-694 -1176h577v-256h-784v-2h-539zM616 1565l234 280l141 -143l-246 -205z" />
<glyph unicode="&#x17a;" horiz-adv-x="1247" d="M84 0l451 686h-369v338h971l-510 -768h524v-256h-1067zM436 1155l234 281l141 -144l-246 -205z" />
<glyph unicode="&#x17b;" horiz-adv-x="1609" d="M88 -2l709 1188h-623v246h1354l-694 -1176h577v-256h-784v-2h-539zM707 1606q0 37 27.5 63.5t68.5 26.5t69.5 -27t28.5 -63q0 -37 -28.5 -63.5t-69.5 -26.5t-68.5 26.5t-27.5 63.5z" />
<glyph unicode="&#x17c;" horiz-adv-x="1247" d="M84 0l451 686h-369v338h971l-510 -768h524v-256h-1067zM528 1196q0 37 28 63.5t69 26.5t69.5 -26.5t28.5 -63.5t-28.5 -63.5t-69.5 -26.5t-69 26.5t-28 63.5z" />
<glyph unicode="&#x17d;" horiz-adv-x="1644" d="M88 -2l709 1188h-623v246h1354l-694 -1176h577v-256h-784v-2h-539zM418 1767l133 95l131 -113h63l109 113l158 -95l-301 -249z" />
<glyph unicode="&#x17e;" horiz-adv-x="1271" d="M84 0l451 686h-369v338h971l-510 -768h524v-256h-1067zM246 1358l133 94l131 -113h63l109 113l158 -94l-301 -250z" />
<glyph unicode="&#x17f;" horiz-adv-x="913" d="M43 727v262h170v72q0 27 1 58.5t11.5 65.5t34 72.5t68.5 81.5q33 33 85 53.5t110.5 32t116.5 14.5t104.5 2t75 -4t28.5 -5v-279h-20.5h-39t-48 -2t-50.5 -4q-25 -4 -37 -23.5t-16 -44t0 -1079.5h-424v727h-170z" />
<glyph unicode="&#x192;" horiz-adv-x="913" d="M0 -61h20.5h39t48 1t50.5 5q27 4 39 25.5t16 47.5v709h-170v262h170v72q0 27 1 58.5t11.5 65.5t34 72.5t68.5 81.5q33 33 85 53.5t110.5 32t116.5 14.5t104.5 2t75 -4t28.5 -5v-279h-20.5h-39t-48 -2t-50.5 -4q-25 -4 -37 -23.5t-16 -44t-3 -50t3 -40.5h215v-262h-215 v-727h-2q0 -25 -4 -53.5t-15.5 -59t-34 -64.5t-61.5 -71q-33 -33 -85 -53.5t-110.5 -31.5t-116.5 -14t-104.5 -2t-75 4t-28.5 5v279z" />
<glyph unicode="&#x1fc;" horiz-adv-x="2312" d="M53 0l799 1434h240l1009 -2v-246h-506v-324h467v-248h-467v-358h512v-256h-1026v256h-387l-102 -256h-539zM784 455h297v22l-2 547zM969 1565l233 280l141 -143l-245 -205z" />
<glyph unicode="&#x1fd;" horiz-adv-x="2054" d="M72 233q0 37 4 61.5t13 44t26.5 37t46.5 36.5q39 27 112.5 63.5t202.5 65.5q68 14 109 32.5t62.5 39t27.5 39t6 34.5q0 25 -11.5 37t-39 16t-75.5 -1t-124 -13q-39 -4 -95 -23.5t-109.5 -42t-91.5 -41t-38 -20.5t0 37t1 87t1 88t-2 40t26 23.5t81 53t128 57.5t165 34 q47 4 109.5 7t127 0t127 -16.5t111.5 -41.5q66 29 150.5 43t191.5 14q113 0 203 -41t152.5 -111.5t95 -166t32.5 -203.5v-62l-688 2q14 -92 71.5 -148t135.5 -67q70 -8 148.5 3.5t149.5 32t122 44t65 39.5v-242q-125 -66 -251 -85t-255 -19q-102 0 -194 31q0 -6 -1 -12.5 t-1 -10.5v-8q-12 0 -55.5 -1t-96.5 -1t-106.5 4t-87.5 14q-16 4 -26.5 15.5t-16.5 24t-7 21.5l-2 9q-2 -4 -25.5 -19.5t-70.5 -32t-115.5 -27.5t-158.5 -7q-66 2 -114 23.5t-81 54.5t-49 74t-16 81zM406 236q12 -49 36.5 -57.5t59.5 -2.5q16 2 48 14.5t63.5 26.5t58 28.5 t33.5 22.5v158l-30 -7t-68 -16.5t-74.5 -19.5t-49.5 -16q-51 -23 -63 -52.5t-14 -78.5zM840 1155l233 281l141 -144l-245 -205zM1108 573l356 -2v9q0 55 -6 86.5t-23.5 50t-46 25t-71.5 10.5q-98 8 -153.5 -28t-55.5 -144v-7z" />
<glyph unicode="&#x218;" horiz-adv-x="1292" d="M92 121l1 27q1 28 2 71t1 93v93.5t-1 72t-3 28.5q-4 0 28 -15.5t79 -37t100 -42t90 -30.5t80 -27.5t83 -27t73.5 -1t52.5 49.5q16 37 10 59.5t-34.5 47t-82 55t-133.5 84.5q-160 104 -240.5 208.5t-86.5 233.5q-4 63 28.5 130t97 120t161 88t223.5 37q102 2 205.5 -31 t185.5 -72t132 -71.5t48 -32.5t-2 -26.5v-66.5v-88.5t1 -88t1 -68.5v-29q0 -2 -20.5 21.5t-55.5 55.5t-79 62.5t-91 45.5q-27 8 -77 26.5t-102 28.5t-97 3t-60 -50q-12 -39 12.5 -77t67.5 -72t92 -60.5t84 -44.5t92.5 -43t112.5 -68t96 -110.5t41 -171.5q0 -127 -55 -206 t-143 -124t-196.5 -61.5t-211.5 -18.5q-102 -2 -195.5 17.5t-163 43t-110.5 43t-41 17.5zM498 -442q-2 0 16 4t72 26q31 12 41 32t12 38q-59 6 -97 47t-38 96q0 59 44 101.5t109 42.5q66 0 111 -42t47 -102q6 -47 -2 -94q-6 -41 -25.5 -89t-60.5 -89q-23 -23 -52.5 -40 t-55 -28.5t-43 -16.5t-17.5 -3t-9 20.5t-20.5 40t-21.5 38.5z" />
<glyph unicode="&#x219;" horiz-adv-x="1030" d="M74 137q0 43 1 95.5t2 97.5t1 49t17.5 -7.5t46 -30.5t65.5 -40.5t76 -40.5q78 -35 136 -33t79 27q20 25 8 52.5t-74 68.5q-31 20 -82 51t-102 72t-92 90t-54 108q-12 57 -1.5 105.5t37 86.5t65.5 66.5t84 44.5q115 27 225.5 25t201.5 -19.5t153.5 -43t80.5 -41.5 q2 -2 1 -44t-1 -93.5t-1 -92.5t1 -39t-31.5 19.5t-79.5 39t-94.5 41t-72.5 29.5q-25 8 -55.5 16.5t-59.5 8.5t-55.5 -11.5t-42.5 -39.5q-16 -29 -7 -50.5t34.5 -40t64.5 -35t80 -36.5t98 -40t109.5 -48.5t88.5 -70.5t36 -107q0 -96 -46.5 -156.5t-115 -95.5t-150.5 -51.5 t-155 -22.5q-74 -6 -147 8.5t-132 34.5t-97 37.5t-40 15.5q-4 -2 -4 41zM354 -449q-2 0 16.5 4.5t71.5 26.5q31 12 41.5 31.5t12.5 38.5q-59 6 -97.5 47t-38.5 96q0 59 44.5 101.5t109.5 42.5q66 0 111 -42t47 -102q6 -47 -2 -94q-6 -41 -25.5 -89t-60.5 -89 q-23 -23 -52.5 -40.5t-55 -28.5t-43 -16t-17.5 -3t-9.5 20.5t-20.5 40t-22 38.5z" />
<glyph unicode="&#x2c6;" horiz-adv-x="679" d="M45 1202l293 250l301 -250l-158 -94l-108 94h-64l-131 -94z" />
<glyph unicode="&#x2da;" horiz-adv-x="628" d="M74 1223q0 39 19.5 74.5t53 62t78.5 42t94 15.5t92.5 -15.5t75 -42t49 -62t17.5 -74.5t-17.5 -76t-49 -66.5t-74.5 -47t-93 -17.5q-49 0 -94 17.5t-78.5 47t-53 66.5t-19.5 76zM180 1229q0 -41 40 -62.5t95 -21.5t93 21.5t38 62.5t-37.5 64.5t-93.5 23.5q-55 0 -95 -23.5 t-40 -64.5z" />
<glyph unicode="&#x2dc;" horiz-adv-x="882" d="M70 1245q2 16 15 38t33.5 41t46 35.5t52.5 22.5q49 14 88 13.5t80 -15t90 -43t121 -71.5q25 -6 46.5 3t40.5 26.5t37.5 42t37.5 48.5q8 -33 27.5 -69.5t29.5 -65.5q-10 -27 -31.5 -56.5t-51.5 -53t-63.5 -36.5t-66.5 -7q-47 4 -80 15t-63.5 28.5t-66.5 40t-89 47.5 q-35 0 -60.5 -12.5t-48 -31t-44 -39t-44.5 -32.5q-2 2 -9 21.5t-14 42t-12 43t-1 24.5z" />
<glyph unicode="&#x1e80;" horiz-adv-x="2660" d="M74 1434h528l209 -627l211 627h616l209 -627l211 627h529l-469 -1428l2 -6h-543l2 6l-250 758l-248 -758l2 -6h-542l2 6zM1116 1702l141 143l285 -348h-180z" />
<glyph unicode="&#x1e81;" horiz-adv-x="1847" d="M72 1024h346l166 -518l168 518h344l168 -518l166 518h346l-353 -1024h-317l-180 522l-183 -522h-317zM711 1292l141 144l285 -349h-181z" />
<glyph unicode="&#x1e82;" horiz-adv-x="2660" d="M74 1434h528l209 -627l211 627h616l209 -627l211 627h529l-469 -1428l2 -6h-543l2 6l-250 758l-248 -758l2 -6h-542l2 6zM1143 1565l233 280l142 -143l-246 -205z" />
<glyph unicode="&#x1e83;" horiz-adv-x="1847" d="M72 1024h346l166 -518l168 518h344l168 -518l166 518h346l-353 -1024h-317l-180 522l-183 -522h-317zM735 1155l234 281l141 -144l-246 -205z" />
<glyph unicode="&#x1e84;" horiz-adv-x="2660" d="M74 1434h528l209 -627l211 627h616l209 -627l211 627h529l-469 -1428l2 -6h-543l2 6l-250 758l-248 -758l2 -6h-542l2 6zM1024 1616q0 49 31.5 84t77.5 35q45 0 76.5 -35t31.5 -84t-31.5 -84t-76.5 -35t-77 35t-32 84zM1417 1618q0 49 32 84t77 35t76.5 -35t31.5 -84 t-31.5 -84t-76.5 -35t-77 35t-32 84z" />
<glyph unicode="&#x1e85;" horiz-adv-x="1847" d="M72 1024h346l166 -518l168 518h344l168 -518l166 518h346l-353 -1024h-317l-180 522l-183 -522h-317zM618 1206q0 49 32 84t77 35t77 -35t32 -84t-32 -84t-77 -35t-77 35t-32 84zM1012 1208q0 49 31.5 84t76.5 35t77 -35t32 -84t-32 -83.5t-77 -34.5t-76.5 34.5 t-31.5 83.5z" />
<glyph unicode="&#x1ef2;" horiz-adv-x="1841" d="M43 1432h524l355 -465l352 465h524l-624 -818v-614h-515v614zM707 1702l141 143l285 -348h-181z" />
<glyph unicode="&#x1ef3;" horiz-adv-x="1300" d="M82 1024h434l166 -365l160 365h434l-698 -1434h-428l305 686zM436 1292l142 144l284 -349h-180z" />
<glyph unicode="&#x2000;" horiz-adv-x="935" />
<glyph unicode="&#x2001;" horiz-adv-x="1870" />
<glyph unicode="&#x2002;" horiz-adv-x="935" />
<glyph unicode="&#x2003;" horiz-adv-x="1870" />
<glyph unicode="&#x2004;" horiz-adv-x="623" />
<glyph unicode="&#x2005;" horiz-adv-x="467" />
<glyph unicode="&#x2006;" horiz-adv-x="311" />
<glyph unicode="&#x2007;" horiz-adv-x="311" />
<glyph unicode="&#x2008;" horiz-adv-x="233" />
<glyph unicode="&#x2009;" horiz-adv-x="374" />
<glyph unicode="&#x200a;" horiz-adv-x="103" />
<glyph unicode="&#x2010;" horiz-adv-x="1062" d="M106 559v166h859v-166h-859z" />
<glyph unicode="&#x2011;" horiz-adv-x="1062" d="M106 559v166h859v-166h-859z" />
<glyph unicode="&#x2012;" horiz-adv-x="1062" d="M106 559v166h859v-166h-859z" />
<glyph unicode="&#x2013;" horiz-adv-x="1001" d="M106 473v160h787v-160h-787z" />
<glyph unicode="&#x2014;" horiz-adv-x="1316" d="M106 473v160h1102v-160h-1102z" />
<glyph unicode="&#x2018;" horiz-adv-x="385" d="M63 1065q-4 47 3 94q4 41 19 88t50 88q18 23 42 40.5t43.5 28.5t33.5 16t14 3t7.5 -20.5t16.5 -40t17 -38.5l8 -17q2 0 -13 -4.5t-56 -26.5q-25 -12 -33 -31.5t-10 -38.5q47 -6 77.5 -46t30.5 -95q0 -59 -35.5 -101t-87.5 -42q-53 0 -88.5 42t-38.5 101z" />
<glyph unicode="&#x2019;" horiz-adv-x="385" d="M72 1044q-2 0 13 4.5t56 26.5q25 12 33 31.5t10 38.5q-47 6 -77.5 46t-30.5 95q0 59 35.5 101.5t87.5 42.5q53 0 89 -42t38 -102q4 -47 -2 -94q-4 -41 -19.5 -88t-50.5 -88q-18 -23 -42 -40.5t-43 -28.5t-33.5 -16t-14.5 -3t-7.5 20.5t-16.5 40t-17 38.5z" />
<glyph unicode="&#x201a;" horiz-adv-x="385" d="M72 -61q-2 0 13 4t56 26q25 12 33 31.5t10 38.5q-47 6 -77.5 46t-30.5 95q0 59 35.5 101.5t87.5 42.5q53 0 89 -42t38 -102q4 -47 -2 -94q-4 -41 -19.5 -88t-50.5 -88q-18 -23 -42 -40t-43 -28.5t-33.5 -16.5t-14.5 -3t-7.5 20.5t-16.5 40t-17 39.5z" />
<glyph unicode="&#x201c;" horiz-adv-x="823" d="M96 1067q-4 47 2 94q4 41 19.5 88t50.5 88q18 23 41.5 40.5t43 28.5t34 16t14.5 3t7 -20.5t16.5 -40t17.5 -38.5l8 -17q2 0 -13 -4.5t-56 -26.5q-25 -12 -33 -31.5t-10 -38.5q47 -6 77.5 -46t30.5 -95q0 -59 -36 -101t-87 -42q-53 0 -89 42t-38 101zM475 1067q-4 47 2 94 q4 41 19.5 88t50.5 88q18 23 41.5 40.5t43 28.5t34 16t14.5 3t7 -20.5t16.5 -40t17.5 -38.5l8 -17q2 0 -13.5 -4.5t-56.5 -26.5q-25 -12 -33 -31.5t-10 -38.5q47 -6 78 -46t31 -95q0 -59 -36 -101t-87 -42q-53 0 -89 42t-38 101z" />
<glyph unicode="&#x201d;" horiz-adv-x="817" d="M90 1049q-2 0 13.5 4t56.5 26q25 12 33 31.5t10 38.5q-47 6 -78 46t-31 95q0 59 36 101.5t87 42.5q53 0 89 -42t38 -102q4 -47 -2 -94q-4 -41 -19.5 -88t-50.5 -88q-18 -23 -41.5 -40t-43 -28.5t-34 -16.5t-14.5 -3t-7 20.5t-16.5 40t-17.5 39.5zM469 1049q-2 0 13.5 4 t56.5 26q25 12 33 31.5t10 38.5q-47 6 -78 46t-31 95q0 59 36 101.5t87 42.5q53 0 89 -42t38 -102q4 -47 -2 -94q-4 -41 -19.5 -88t-50.5 -88q-18 -23 -41.5 -40t-43 -28.5t-34 -16.5t-14.5 -3t-7 20.5t-16.5 40t-17.5 39.5z" />
<glyph unicode="&#x201e;" horiz-adv-x="749" d="M90 -61q-2 0 13.5 4t56.5 26q25 12 33 31.5t10 38.5q-47 6 -78 46t-31 95q0 59 36 101.5t87 42.5q53 0 89 -42t38 -102q4 -47 -2 -94q-4 -41 -19.5 -88t-50.5 -88q-18 -23 -41.5 -40t-43 -28.5t-34 -16.5t-14.5 -3t-7 20.5t-16.5 40t-17.5 39.5zM403 -59q-2 0 13.5 4 t56.5 26q25 12 33 32t10 38q-47 6 -77.5 46t-30.5 95q0 59 35.5 101.5t86.5 42.5q53 0 89 -42t38 -102q4 -47 -2 -94q-4 -41 -19 -88t-50 -88q-18 -23 -42 -40t-43.5 -28.5t-33.5 -16.5t-14 -3t-7.5 20.5t-16.5 40t-17 39.5z" />
<glyph unicode="&#x2022;" horiz-adv-x="630" d="M74 643q0 49 19.5 91t52 75t76.5 51.5t93 18.5t93.5 -18.5t77 -51.5t52 -75t19.5 -91t-19.5 -91t-52 -74t-76.5 -50t-94 -18q-49 0 -93 18t-76.5 50t-52 74t-19.5 91z" />
<glyph unicode="&#x2026;" horiz-adv-x="3930" d="M104 143q0 59 44.5 101.5t109.5 42.5q66 0 111 -42t45 -102q0 -59 -45 -101t-111 -42t-110 42t-44 101zM1810 143q0 59 44 101.5t110 42.5t111 -42t45 -102q0 -59 -45 -101t-111 -42t-110 42t-44 101zM3516 143q0 59 44 101.5t110 42.5t111 -42t45 -102q0 -59 -45 -101 t-111 -42t-110 42t-44 101z" />
<glyph unicode="&#x202f;" horiz-adv-x="374" />
<glyph unicode="&#x2039;" horiz-adv-x="688" d="M10 502v49l482 479l116 -110l-395 -394l395 -407l-116 -119z" />
<glyph unicode="&#x203a;" horiz-adv-x="690" d="M82 119l395 407l-395 394l117 110l481 -479v-49l-481 -502z" />
<glyph unicode="&#x205f;" horiz-adv-x="467" />
<glyph unicode="&#x20ac;" horiz-adv-x="1658" d="M53 408v165h174q-12 68 -12 144v28.5t2 28.5h-164v166h195q35 111 103.5 202t160.5 155.5t203.5 99.5t232.5 35q106 0 204.5 -29t180.5 -81t147.5 -127t108.5 -169h-403q-47 45 -108.5 70.5t-137.5 25.5q-39 0 -86 -13t-91 -36.5t-82 -57.5t-60 -75h376v-166h-432 q-14 -35 -12 -91t12 -110h432v-165h-376q10 -41 50 -69t90 -46.5t101 -26.5t82 -8q45 0 85 14.5t74 39t62.5 54t51.5 60.5h380q-41 -98 -107.5 -177t-152.5 -134.5t-187 -85t-212 -29.5q-109 0 -208 28.5t-184 81t-152.5 128t-110.5 170.5h-230z" />
<glyph unicode="&#x2122;" horiz-adv-x="1753" d="M59 1094v190h613v-190h-189v-480h-241v480h-183zM752 614v672l239 -2l158 -229l158 233l241 -2v-672h-241v373l-158 -303l-158 303v-373h-239z" />
<glyph unicode="&#x25fc;" horiz-adv-x="1013" d="M0 0v1014h1014v-1014h-1014z" />
</font>
</defs>
</svg>
